<?xml version="1.0" standalone="no"?>
<!DOCTYPE svg PUBLIC "-//W3C//DTD SVG 1.1//EN" "http://www.w3.org/Graphics/SVG/1.1/DTD/svg11.dtd" >
<svg xmlns="http://www.w3.org/2000/svg" xmlns:xlink="http://www.w3.org/1999/xlink" version="1.1">
<metadata>
Created by FontForge 20200427 at Fri Feb 26 00:38:54 2016
 By www
(URW)++,Copyright 2015 by (URW)++ Design &#38; Development
</metadata>
<defs>
<font id="URWGeometricW03-Heavy" horiz-adv-x="792" >
  <font-face 
    font-family="URWGeometricW03-Heavy"
    font-weight="800"
    font-stretch="normal"
    units-per-em="2048"
    panose-1="1 0 0 0 0 0 0 0 0 0"
    ascent="1638"
    descent="-410"
    x-height="908"
    cap-height="1365"
    bbox="-285 -593 2527 2206"
    underline-thickness="102"
    underline-position="-256"
    unicode-range="U+0020-FB04"
  />
<missing-glyph horiz-adv-x="447" 
d="M45 0v1365h357v-1365h-357zM357 45v1275h-267v-1275h267z" />
    <glyph glyph-name="afii61352" unicode="Nr&#x2e;" horiz-adv-x="2152" 
d="M1489 535v200h535v-200h-535zM131 0v1365h253l631 -828v828h303v-1365h-253l-631 828v-828h-303zM1760 1399q134 0 223 -98q75 -84 75 -198q0 -132 -97 -219q-85 -77 -205 -77q-138 0 -227 98q-75 84 -75 198q0 113 71 193q91 103 235 103zM1754 1226q-50 0 -82 -34.5
t-32 -88.5t32.5 -88.5t83.5 -34.5q52 0 84 34.5t32 89.5t-32.5 88.5t-85.5 33.5z" />
    <glyph glyph-name="uniFB00" unicode="ff" horiz-adv-x="1111" 
d="M405 649v-649h-291v649h-82v259h82v152q0 179 91 259q73 65 189 65q68 0 155 -19v-259q-53 19 -89 19q-55 0 -55 -71v-146h147v-259h-147zM952 649v-649h-291v649h-82v259h82v152q0 179 91 259q73 65 189 65q68 0 155 -19v-259q-53 19 -89 19q-55 0 -55 -71v-146h147
v-259h-147z" />
    <glyph glyph-name="uniFB01" unicode="fi" horiz-adv-x="1034" 
d="M405 649v-649h-291v649h-82v259h82v152q0 179 91 259q73 65 189 65q68 0 155 -19v-259q-53 19 -89 19q-55 0 -55 -71v-146h147v-259h-147zM789 1388q79 0 131 -57q43 -47 43 -111q0 -75 -56 -124q-50 -45 -117 -45q-73 0 -123.5 49.5t-50.5 121.5q0 70 56 121
q49 45 117 45zM935 908v-908h-291v908h291z" />
    <glyph glyph-name="uniFB02" unicode="fl" horiz-adv-x="1036" 
d="M405 649v-649h-291v649h-82v259h82v152q0 179 91 259q73 65 189 65q68 0 155 -19v-259q-53 19 -89 19q-55 0 -55 -71v-146h147v-259h-147zM936 0h-291v1365h291v-1365z" />
    <glyph glyph-name="uniFB03" unicode="ffi" horiz-adv-x="1581" 
d="M405 649v-649h-291v649h-82v259h82v152q0 179 91 259q73 65 189 65q68 0 155 -19v-259q-53 19 -89 19q-55 0 -55 -71v-146h147v-259h-147zM951 649v-649h-291v649h-81v259h81v152q0 179 91 259q73 65 189 65q69 0 156 -19v-259q-53 19 -90 19q-55 0 -55 -71v-146h148
v-259h-148zM1336 1388q79 0 131 -57q43 -48 43 -111q0 -74 -56 -124q-50 -45 -117 -45q-73 0 -123.5 49.5t-50.5 121.5q0 71 56 121q49 45 117 45zM1482 908v-908h-291v908h291z" />
    <glyph glyph-name="uniFB04" unicode="ffl" horiz-adv-x="1582" 
d="M405 649v-649h-291v649h-82v259h82v152q0 179 91 259q73 65 189 65q68 0 155 -19v-259q-53 19 -89 19q-55 0 -55 -71v-146h147v-259h-147zM951 649v-649h-291v649h-81v259h81v152q0 179 91 259q73 65 189 65q69 0 156 -19v-259q-53 19 -90 19q-55 0 -55 -71v-146h148
v-259h-148zM1483 0h-291v1365h291v-1365z" />
    <glyph glyph-name=".notdef" horiz-adv-x="447" 
d="M45 0v1365h357v-1365h-357zM357 45v1275h-267v-1275h267z" />
    <glyph glyph-name="glyph1" horiz-adv-x="0" 
 />
    <glyph glyph-name="glyph2" horiz-adv-x="447" 
 />
    <glyph glyph-name="space" unicode=" " horiz-adv-x="447" 
 />
    <glyph glyph-name="exclam" unicode="!" horiz-adv-x="651" 
d="M190 378l-25 987h321l-25 -987h-271zM326 305q78 0 130 -57q43 -47 43 -111q0 -74 -56 -123q-49 -45 -117 -45q-73 0 -123.5 49.5t-50.5 121.5q0 70 56 121q49 44 118 44z" />
    <glyph glyph-name="quotedbl" unicode="&#x22;" horiz-adv-x="769" 
d="M323 771h-237l-30 663h297zM682 771h-237l-30 663h297z" />
    <glyph glyph-name="numbersign" unicode="#" horiz-adv-x="1221" 
d="M213 362h-143l46 223h143l39 189h-143l46 223h144l82 399l237 -54l-71 -345h167l82 399l238 -51l-73 -348h143l-46 -223h-143l-39 -189h143l-46 -223h-143l-83 -400l-236 55l71 345h-167l-83 -400l-236 55zM674 585l39 189h-167l-39 -189h167z" />
    <glyph glyph-name="dollar" unicode="$" horiz-adv-x="1212" 
d="M401 470q3 -13 12 -49q42 -174 179 -174q83 0 134 58q43 49 43 110q0 35 -20 60q-31 41 -153 87l-118 45q-315 120 -315 380q0 138 83.5 244t222.5 146v193h298v-192q171 -48 294 -255l-251 -157q-44 68 -74 100q-49 52 -127 52q-71 0 -111 -47q-34 -40 -34 -86
q0 -71 137 -122l124 -47q155 -59 238 -138q110 -104 110 -261q0 -142 -82 -254.5t-224 -166.5v-208h-298v191q-302 71 -365 412z" />
    <glyph glyph-name="percent" unicode="%" horiz-adv-x="1835" 
d="M1224 1399l163 -94l-776 -1340l-163 94zM408 1384q346 0 346 -425q0 -424 -344 -424q-168 0 -254 109t-86 321q0 171 62 276q85 143 276 143zM411 1200q-133 0 -133 -232q0 -129 32.5 -189t102.5 -60q54 0 85 34q20 22 34 81.5t14 121.5q0 124 -33 184t-102 60zM1419 829
q346 0 346 -425q0 -175 -62 -280q-84 -144 -279 -144q-343 0 -343 430q0 171 62 276q86 143 276 143zM1422 645q-53 0 -84 -34q-22 -25 -35.5 -83t-13.5 -128q0 -67 16 -127.5t40 -81.5q30 -27 78 -27q55 0 86 34q20 22 34 82t14 123q0 122 -33.5 182t-101.5 60z" />
    <glyph glyph-name="ampersand" unicode="&#x26;" horiz-adv-x="1408" 
d="M747 749l188 -217q29 65 60 155l279 -76q-9 -29 -25 -82q-37 -119 -105 -239l252 -290h-380l-63 75q-161 -109 -344 -109q-156 0 -286 72q-101 55 -161 160q-51 90 -51 189q0 160 121 279q48 47 132 109q-68 89 -95 151t-27 130q0 151 111 253q99 90 246 90
q166 0 267 -113q85 -94 85 -216q0 -171 -204 -321zM583 938q65 49 86.5 77t21.5 62q0 38 -26 62.5t-66 24.5q-42 0 -69.5 -26t-27.5 -65q0 -27 14.5 -51t66.5 -84zM527 582q-120 -106 -120 -183q0 -64 52 -111q53 -48 143 -48q84 0 163 58z" />
    <glyph glyph-name="quotesingle" unicode="'" horiz-adv-x="410" 
d="M323 771h-237l-30 663h297z" />
    <glyph glyph-name="parenleft" unicode="(" horiz-adv-x="695" 
d="M335 1545l262 -124q-53 -136 -81 -235q-81 -280 -81 -621q0 -367 97 -675q24 -74 65 -181l-262 -124q-55 123 -61 138q-60 146 -98 382t-38 460q0 349 82 674q22 88 36.5 126.5t78.5 179.5z" />
    <glyph glyph-name="parenright" unicode=")" horiz-adv-x="695" 
d="M358 1545q53 -116 62 -138q46 -111 80 -283q56 -288 56 -559q0 -350 -82 -674q-23 -89 -37.5 -127.5t-78.5 -178.5l-261 124q53 136 81 235q81 281 81 621q0 367 -97 676q-24 73 -65 180z" />
    <glyph glyph-name="asterisk" unicode="*" horiz-adv-x="1059" 
d="M399 1340l-9 223h278l-9 -223l209 78l86 -265l-215 -60l139 -175l-225 -163l-124 186l-124 -187l-225 164l139 175l-215 60l86 264z" />
    <glyph glyph-name="plus" unicode="+" horiz-adv-x="1139" 
d="M435 771v410h270v-410h406v-264h-406v-409h-270v409h-407v264h407z" />
    <glyph glyph-name="comma" unicode="," horiz-adv-x="579" 
d="M231 288l267 -98l-262 -588l-220 87z" />
    <glyph glyph-name="hyphen" unicode="-" horiz-adv-x="594" 
d="M43 606h509v-268h-509v268z" />
    <glyph glyph-name="period" unicode="." horiz-adv-x="544" 
d="M273 305q78 0 130 -57q43 -47 43 -111q0 -74 -56 -123q-49 -45 -117 -45q-73 0 -123.5 49.5t-50.5 121.5q0 70 56 121q49 44 118 44z" />
    <glyph glyph-name="slash" unicode="/" horiz-adv-x="1172" 
d="M80 104l771 1299l241 -141l-771 -1300z" />
    <glyph glyph-name="zero" unicode="0" horiz-adv-x="1199" 
d="M600 1399q312 0 447 -234q103 -181 103 -483q0 -301 -103 -482q-62 -107 -163 -164q-123 -70 -282 -70q-552 0 -552 726q0 296 103 473q137 234 447 234zM599 1122q-97 0 -154 -64q-40 -44 -65 -145t-25 -216q0 -258 80 -377q52 -77 163 -77q126 0 181 97q66 115 66 344
q0 208 -68 340q-50 98 -178 98z" />
    <glyph glyph-name="one" unicode="1" horiz-adv-x="704" 
d="M573 0h-303v997l-143 -81l-146 246l361 203h231v-1365z" />
    <glyph glyph-name="two" unicode="2" horiz-adv-x="1032" 
d="M79 0v231l478 525q125 136 125 239q0 59 -39.5 93t-107.5 34q-83 0 -121.5 -40.5t-72.5 -162.5l-282 77q34 152 104 242q55 71 142 111q108 50 230 50q137 0 249 -60q93 -50 145 -144q53 -93 53 -208q0 -196 -151 -362l-315 -345h494v-280h-931z" />
    <glyph glyph-name="three" unicode="3" horiz-adv-x="1022" 
d="M358 580v264h122q164 0 164 138q0 66 -41 103.5t-113 37.5q-62 0 -101.5 -27t-105.5 -113l-248 135q65 107 129 164q130 117 324 117q138 0 253 -63q94 -52 149 -148q53 -92 53 -199q0 -150 -112 -261q141 -128 141 -311q0 -201 -144 -328q-139 -123 -343 -123
q-162 0 -286 84q-77 52 -122 127t-77 204l288 76q31 -113 69 -161q41 -53 130 -53q90 0 139 55q43 48 43 121q0 82 -46.5 121.5t-142.5 39.5h-122z" />
    <glyph glyph-name="four" unicode="4" horiz-adv-x="1074" 
d="M610 1416l249 -152l-459 -719h208v229h301v-229h126v-277h-126v-268h-301v268h-579v239z" />
    <glyph glyph-name="five" unicode="5" horiz-adv-x="1122" 
d="M513 944q15 2 37 2q238 0 387 -163q122 -134 122 -319q0 -218 -163 -366q-146 -132 -358 -132q-155 0 -270.5 70.5t-217.5 227.5l245 169q60 -108 113.5 -149.5t131.5 -41.5q101 0 163 70q54 60 54 146q0 101 -69 163q-59 53 -142 53q-94 0 -159 -76l-10 -10l-233 48
l151 729h701v-280h-453z" />
    <glyph glyph-name="six" unicode="6" horiz-adv-x="1127" 
d="M633 1415l237 -172l-237 -326q160 -23 262 -107q167 -135 167 -352q0 -130 -66 -244q-66 -115 -180 -181q-116 -67 -254 -67q-228 0 -378 165q-126 139 -126 326q0 168 110 320zM560 650q-93 0 -152 -65q-50 -55 -50 -135q0 -97 67 -158q55 -50 135 -50q90 0 149 67
q53 60 53 146q0 82 -52 135q-60 60 -150 60z" />
    <glyph glyph-name="seven" unicode="7" horiz-adv-x="941" 
d="M33 86l548 999h-579v280h951v-208l-656 -1208z" />
    <glyph glyph-name="eight" unicode="8" horiz-adv-x="1075" 
d="M209 729q-55 55 -78 99q-40 75 -40 162q0 175 137 297q124 112 310 112q212 0 342 -143q105 -116 105 -266q0 -76 -27 -136t-91 -125q159 -135 159 -318q0 -194 -144 -322q-139 -123 -344 -123q-145 0 -269 70q-104 59 -163 160q-56 98 -56 215q0 183 159 318zM535 587
q-92 0 -142 -55q-44 -49 -44 -119q0 -80 55 -129q50 -46 134 -46q94 0 146 57q43 48 43 119q0 79 -54 128q-49 45 -138 45zM536 1136q-70 0 -113.5 -42.5t-43.5 -110.5q0 -64 44.5 -105t115.5 -41q70 0 114 41.5t44 106.5q0 67 -44.5 109t-116.5 42z" />
    <glyph glyph-name="nine" unicode="9" horiz-adv-x="1132" 
d="M494 -50l-236 172l236 326q-159 24 -262 107q-167 135 -167 351q0 131 66 245q66 115 180 181q116 67 254 67q228 0 378 -165q126 -138 126 -326q0 -169 -110 -320zM567 1123q-90 0 -149 -67q-53 -60 -53 -145q0 -82 52 -136q58 -60 150 -60q93 0 152 65q50 55 50 136
q0 96 -67 157q-55 50 -135 50z" />
    <glyph glyph-name="colon" unicode=":" horiz-adv-x="544" 
d="M273 305q78 0 130 -57q43 -47 43 -111q0 -74 -56 -123q-49 -45 -117 -45q-73 0 -123.5 49.5t-50.5 121.5q0 70 56 121q49 44 118 44zM272 884q79 0 131 -57q43 -48 43 -111q0 -74 -56 -124q-49 -44 -117 -44q-73 0 -123.5 49.5t-50.5 121.5q0 70 56 120q49 45 117 45z
" />
    <glyph glyph-name="semicolon" unicode=";" horiz-adv-x="566" 
d="M231 288l267 -98l-262 -588l-220 87zM319 884q79 0 131 -57q43 -47 43 -111q0 -74 -56 -124q-50 -44 -117 -44q-73 0 -123.5 49.5t-50.5 121.5q0 70 56 120q49 45 117 45z" />
    <glyph glyph-name="less" unicode="&#x3c;" horiz-adv-x="1211" 
d="M1117 1281v-305l-627 -286l627 -287v-304l-1024 481v220z" />
    <glyph glyph-name="equal" unicode="=" horiz-adv-x="1139" 
d="M1052 954v-265h-965v265h965zM1052 590v-265h-965v265h965z" />
    <glyph glyph-name="greater" unicode="&#x3e;" horiz-adv-x="1211" 
d="M93 98v305l627 287l-627 287v303l1024 -481v-220z" />
    <glyph glyph-name="question" unicode="?" horiz-adv-x="916" 
d="M306 378v122q0 102 27 159.5t108 124.5l81 67q91 77 91 153q0 54 -34.5 84t-96.5 30q-68 0 -112 -31t-111 -127l-223 179q57 93 118 147q127 113 323 113q221 0 339 -132q97 -109 97 -263q0 -97 -31 -163q-45 -91 -147 -185l-92 -84q-25 -23 -32 -38.5t-7 -48.5v-107
h-298zM454 305q78 0 130 -57q43 -47 43 -111q0 -74 -55 -123q-50 -45 -119 -45q-78 0 -129 57q-44 48 -44 114q0 70 56 121q50 44 118 44z" />
    <glyph glyph-name="at" unicode="@" horiz-adv-x="1829" 
d="M1316 1096l-84 -652h3q104 0 172 75q75 81 75 247q0 148 -68 272q-118 217 -431 217q-208 0 -367 -89q-118 -65 -189 -190q-80 -139 -80 -311q0 -242 151 -393q161 -161 487 -161q112 0 204.5 15t259.5 60l74 -201q-72 -22 -81 -25q-211 -62 -468 -62q-284 0 -500 115
q-155 83 -248 251q-101 181 -101 399q0 230 109 420q100 174 265 267q211 118 479 118q232 0 400 -97q148 -85 233 -234q93 -161 93 -366q0 -219 -108 -359q-74 -96 -176.5 -139t-257.5 -43h-264q-87 0 -166.5 32.5t-131.5 90.5q-94 102 -94 270q0 138 67 251
q130 222 452 222h291zM1006 443l56 440h-55q-145 0 -211 -75q-63 -71 -63 -181q0 -184 181 -184h92z" />
    <glyph glyph-name="A" unicode="A" horiz-adv-x="1330" 
d="M922 301h-516l-105 -301h-320l510 1365h347l510 -1365h-321zM825 582l-161 459l-161 -459h322z" />
    <glyph glyph-name="B" unicode="B" horiz-adv-x="1095" 
d="M131 0v1365h340q203 0 315 -65q87 -50 140 -141q52 -89 52 -183q0 -136 -113 -244q175 -123 175 -321q0 -151 -105 -264q-73 -78 -167.5 -112.5t-234.5 -34.5h-402zM425 818h68q97 0 134 20q67 37 67 123q0 77 -46 109t-155 32h-68v-284zM425 270h97q106 0 153 25
q73 41 73 128t-67 125q-51 29 -176 29h-80v-307z" />
    <glyph glyph-name="C" unicode="C" horiz-adv-x="1381" 
d="M1123 932q-67 74 -121 114q-100 71 -223 71q-186 0 -309 -139q-111 -124 -111 -296q0 -197 142 -325q121 -109 280 -109q98 0 177 42.5t171 145.5l216 -201q-100 -106 -188 -161q-169 -108 -373 -108q-203 0 -375 102q-162 95 -257 256q-98 167 -98 358q0 190 97 357
q97 166 262 261q171 99 372 99q160 0 290.5 -62.5t263.5 -203.5z" />
    <glyph glyph-name="D" unicode="D" horiz-adv-x="1273" 
d="M131 1365h336q312 0 507 -152q245 -191 245 -529q0 -341 -245 -532q-40 -31 -72 -49q-191 -103 -435 -103h-336v1365zM434 1084v-803h39q110 0 201 33.5t145 94.5q96 106 96 272q0 239 -182 343q-105 60 -260 60h-39z" />
    <glyph glyph-name="E" unicode="E" horiz-adv-x="1014" 
d="M933 1365v-278h-501v-256h446v-279h-446v-271h520v-281h-821v1365h802z" />
    <glyph glyph-name="F" unicode="F" horiz-adv-x="938" 
d="M890 1365v-279h-456v-254h416v-281h-416v-551h-303v1365h759z" />
    <glyph glyph-name="G" unicode="G" horiz-adv-x="1493" 
d="M756 778h680v-143q0 -217 -88 -369q-79 -136 -209 -210q-158 -90 -347 -90q-210 0 -384 102q-161 95 -256 256q-98 167 -98 358t97 358q97 165 261 260q172 99 378 99q157 0 286.5 -58.5t273.5 -194.5l-216 -201q-72 72 -128 108q-99 64 -219 64q-195 0 -317 -139
q-111 -124 -111 -296q0 -197 141 -324q121 -110 290 -110q128 0 213 65.5t117 187.5h-364v277z" />
    <glyph glyph-name="H" unicode="H" horiz-adv-x="1339" 
d="M434 1365v-533h470v533h303v-1365h-303v551h-470v-551h-303v1365h303z" />
    <glyph glyph-name="I" unicode="I" horiz-adv-x="566" 
d="M434 1365v-1365h-303v1365h303z" />
    <glyph glyph-name="J" unicode="J" horiz-adv-x="883" 
d="M751 1365v-936q0 -99 -14 -163t-48 -125q-46 -80 -124 -124q-90 -51 -204 -51q-109 0 -200 44.5t-187 144.5l180 218q112 -125 193 -125q101 0 101 181v936h303z" />
    <glyph glyph-name="K" unicode="K" horiz-adv-x="1262" 
d="M737 785l523 -785h-358l-372 565l-96 -103v-462h-303v1365h303v-491l459 491h387z" />
    <glyph glyph-name="L" unicode="L" horiz-adv-x="913" 
d="M131 1365h303v-1084h481v-281h-784v1365z" />
    <glyph glyph-name="M" unicode="M" horiz-adv-x="1636" 
d="M131 0v1365h278l409 -713l409 713h277v-1365h-303v756l-275 -485h-217l-275 485v-756h-303z" />
    <glyph glyph-name="N" unicode="N" horiz-adv-x="1450" 
d="M131 0v1365h253l631 -828v828h303v-1365h-253l-631 828v-828h-303z" />
    <glyph glyph-name="O" unicode="O" horiz-adv-x="1563" 
d="M782 1399q195 0 359 -95q172 -99 270 -264q99 -167 99 -358q0 -187 -95 -351q-95 -165 -263 -264q-173 -101 -376 -101q-191 0 -364 101q-168 99 -263 264t-95 362q0 186 99 347q105 171 270 264q168 95 359 95zM779 1117q-182 0 -309 -141q-111 -123 -111 -301
q0 -113 57 -212t159 -158q99 -57 207 -57t207 57q102 59 159 158q57 100 57 218q0 197 -143 327q-119 109 -283 109z" />
    <glyph glyph-name="P" unicode="P" horiz-adv-x="987" 
d="M434 475v-475h-303v1365h337q190 0 299 -62q93 -53 149 -149q61 -104 61 -232q0 -178 -112 -304q-67 -76 -160 -109.5t-237 -33.5h-34zM432 751h52q120 0 160 47q39 46 39 122q0 89 -47 128.5t-152 39.5h-52v-337z" />
    <glyph glyph-name="Q" unicode="Q" horiz-adv-x="1558" 
d="M1087 34q-148 -68 -305 -68q-197 0 -370 101q-168 99 -263 264q-95 164 -95 351q0 191 99 358q98 167 270 264q168 95 359 95t359 -95q172 -97 270 -264q99 -168 99 -358q0 -208 -115 -385q-29 -44 -67 -85l122 -118l-212 -207zM784 328l212 207l121 -117q88 121 88 259
q0 202 -143 331q-120 109 -280 109q-186 0 -312 -140q-111 -125 -111 -295q0 -196 143 -324q57 -50 128 -80t135 -30q31 0 91 10z" />
    <glyph glyph-name="R" unicode="R" horiz-adv-x="1164" 
d="M803 0l-265 478q-7 -1 -14 -1q-38 -2 -57 -2h-33v-475h-303v1365h336q208 0 325 -66q97 -56 155 -156q61 -103 61 -227q0 -174 -114 -296q-29 -31 -66 -57l316 -563h-341zM432 751h52q109 0 160 28q70 40 70 139q0 88 -55.5 129t-174.5 41h-52v-337z" />
    <glyph glyph-name="S" unicode="S" horiz-adv-x="1085" 
d="M1007 1123l-251 -157q-43 68 -74 100q-49 52 -126 52q-71 0 -111 -47q-34 -40 -34 -86q0 -71 136 -122l124 -47q155 -58 238 -137q110 -105 110 -261q0 -196 -149 -329q-138 -123 -336 -123q-161 0 -286 86q-144 100 -198 339l297 79q4 -13 12 -48q43 -174 179 -174
q83 0 134 58q43 48 43 109q0 35 -20 61q-30 40 -152 87l-119 45q-314 120 -314 378q0 180 133 298q131 115 324 115q215 0 355 -157q41 -45 85 -119z" />
    <glyph glyph-name="T" unicode="T" horiz-adv-x="908" 
d="M926 1365v-281h-321v-1084h-303v1084h-321v281h945z" />
    <glyph glyph-name="U" unicode="U" horiz-adv-x="1321" 
d="M434 1365v-835q0 -137 27 -183q24 -43 80.5 -71t118.5 -28t118.5 28t81.5 71q26 46 26 183v835h303v-871q0 -172 -61 -276q-64 -109 -180 -176q-132 -76 -288 -76q-216 0 -371 135q-84 74 -121 165.5t-37 227.5v871h303z" />
    <glyph glyph-name="V" unicode="V" horiz-adv-x="1223" 
d="M301 1365l310 -940l311 940h319l-458 -1365h-345l-457 1365h320z" />
    <glyph glyph-name="W" unicode="W" horiz-adv-x="1797" 
d="M297 1365l238 -807l239 807h248l240 -807l237 807h316l-411 -1365h-266l-240 808l-240 -808h-266l-411 1365h316z" />
    <glyph glyph-name="X" unicode="X" horiz-adv-x="1219" 
d="M782 711l456 -711h-349l-280 443l-282 -443h-346l456 709l-418 656h345l247 -388l247 388h343z" />
    <glyph glyph-name="Y" unicode="Y" horiz-adv-x="1157" 
d="M427 562l-459 803h340l271 -488l271 488h339l-459 -803v-562h-303v562z" />
    <glyph glyph-name="Z" unicode="Z" horiz-adv-x="1056" 
d="M1023 1142l-607 -860h621v-282h-1022v224l617 861h-561v280h952v-223z" />
    <glyph glyph-name="bracketleft" unicode="[" horiz-adv-x="668" 
d="M608 1231h-173v-1331h173v-275h-470v1881h470v-275z" />
    <glyph glyph-name="backslash" unicode="\" horiz-adv-x="1112" 
d="M260 1400l772 -1330l-181 -106l-771 1331z" />
    <glyph glyph-name="bracketright" unicode="]" horiz-adv-x="668" 
d="M60 1231v275h470v-1881h-470v275h173v1331h-173z" />
    <glyph glyph-name="asciicircum" unicode="^" horiz-adv-x="1209" 
d="M349 673h-331l444 769h285l444 -769h-332l-256 433z" />
    <glyph glyph-name="underscore" unicode="_" horiz-adv-x="1096" 
d="M-32 -72h1161v-270h-1161v270z" />
    <glyph glyph-name="grave" unicode="`" horiz-adv-x="975" 
d="M128 1320l269 134l279 -358l-196 -105z" />
    <glyph glyph-name="a" unicode="a" horiz-adv-x="1112" 
d="M1016 0h-291v44q-110 -78 -227 -78q-116 0 -220 60q-108 63 -172 173q-67 116 -67 256q0 225 159 369q130 118 300 118q117 0 227 -78v44h291v-908zM529 680q-85 0 -143 -62q-54 -59 -54 -167q0 -114 69 -174q55 -49 131 -49q86 0 142 61q54 59 54 167q0 117 -68 177
q-53 47 -131 47z" />
    <glyph glyph-name="b" unicode="b" horiz-adv-x="1112" 
d="M97 0v1365h291v-502q109 79 227 79q198 0 335 -153q124 -139 124 -334q0 -226 -159 -371q-130 -118 -300 -118q-117 0 -227 78v-44h-291zM578 680q-83 0 -139 -60q-54 -60 -54 -165q0 -120 68 -180q54 -47 128 -47q88 0 145 62q55 60 55 166q0 139 -96 196
q-48 28 -107 28z" />
    <glyph glyph-name="c" unicode="c" horiz-adv-x="935" 
d="M918 770l-179 -197q-61 62 -103 84.5t-99 22.5q-94 0 -151 -62q-54 -59 -54 -163q0 -118 67 -178q56 -49 139 -49q60 0 105 25t101 89l179 -198q-70 -71 -129 -107q-115 -71 -257 -71q-230 0 -375 163q-123 138 -123 325q0 218 158 362q140 126 339 126q110 0 196 -38.5
t186 -133.5z" />
    <glyph glyph-name="d" unicode="d" horiz-adv-x="1112" 
d="M1016 0h-291v44q-109 -78 -227 -78q-116 0 -220 60q-108 63 -172 173q-67 116 -67 256q0 225 159 369q130 118 300 118q118 0 227 -79v502h291v-1365zM529 680q-84 0 -143 -62q-54 -58 -54 -166q0 -115 69 -175q55 -49 131 -49q86 0 142 61q54 59 54 167q0 117 -68 177
q-53 47 -131 47z" />
    <glyph glyph-name="e" unicode="e" horiz-adv-x="1011" 
d="M949 211q-159 -245 -428 -245q-219 0 -357 155q-125 140 -125 334q0 222 158 366q132 121 313 121q205 0 340 -151q123 -137 123 -357q0 -28 -3 -75h-633q26 -73 68.5 -106t110.5 -33q113 0 172 92zM684 550q-24 74 -64.5 107t-108.5 33q-70 0 -111.5 -33.5t-62.5 -106.5
h347z" />
    <glyph glyph-name="f" unicode="f" horiz-adv-x="564" 
d="M405 649v-649h-291v649h-82v259h82v152q0 179 91 259q73 65 189 65q68 0 155 -19v-259q-53 19 -89 19q-55 0 -55 -71v-146h147v-259h-147z" />
    <glyph glyph-name="g" unicode="g" horiz-adv-x="1112" 
d="M724 44q-112 -78 -227 -78q-197 0 -334 153q-125 139 -125 336q0 225 160 369q130 118 300 118q114 0 226 -78v44h292v-926q0 -234 -152 -370q-140 -124 -348 -124q-140 0 -249.5 58t-220.5 190l198 186q11 -12 29 -35q58 -72 115.5 -104.5t127.5 -32.5q101 0 156 61
q52 58 52 171v62zM528 680q-84 0 -143 -62q-54 -58 -54 -166q0 -115 69 -175q55 -49 131 -49q86 0 142 61q54 59 54 167q0 117 -68 177q-53 47 -131 47z" />
    <glyph glyph-name="h" unicode="h" horiz-adv-x="1046" 
d="M388 871q90 71 200 71q133 0 234 -89q127 -113 127 -362v-491h-291v477q0 110 -23 154q-26 49 -103 49q-88 0 -119 -57q-25 -44 -25 -164v-459h-291v1365h291v-494z" />
    <glyph glyph-name="i" unicode="i" horiz-adv-x="487" 
d="M243 1388q79 0 131 -57q43 -48 43 -111q0 -74 -56 -124q-50 -45 -117 -45q-73 0 -123.5 49.5t-50.5 121.5q0 71 56 121q49 45 117 45zM389 908v-908h-291v908h291z" />
    <glyph glyph-name="j" unicode="j" horiz-adv-x="500" 
d="M402 908v-1085q0 -179 -91 -260q-74 -65 -185 -65q-75 0 -160 30v268q73 -29 110 -29q20 0 27.5 14.5t7.5 52.5v1074h291zM256 1388q79 0 131 -57q43 -48 43 -111q0 -74 -56 -124q-50 -45 -117 -45q-73 0 -123.5 49.5t-50.5 121.5q0 71 56 121q49 45 117 45z" />
    <glyph glyph-name="k" unicode="k" horiz-adv-x="1024" 
d="M640 522l413 -522h-363l-252 328l-50 -49v-279h-291v1365h291v-711l260 254h391z" />
    <glyph glyph-name="l" unicode="l" horiz-adv-x="489" 
d="M390 0h-291v1365h291v-1365z" />
    <glyph glyph-name="m" unicode="m" horiz-adv-x="1548" 
d="M806 852q117 90 256 90q158 0 262 -95q69 -63 98.5 -146.5t29.5 -214.5v-486h-291v471q0 120 -23.5 164.5t-87.5 44.5q-75 0 -104 -53q-25 -46 -25 -173v-454h-291v471q0 118 -24 164q-22 45 -87 45q-77 0 -106 -53q-25 -47 -25 -173v-454h-291v908h289v-37
q53 40 95.5 55.5t98.5 15.5q117 0 226 -90z" />
    <glyph glyph-name="n" unicode="n" horiz-adv-x="1046" 
d="M388 871q90 71 200 71q134 0 234 -89q127 -113 127 -362v-491h-291v477q0 111 -23 154q-26 49 -103 49q-88 0 -119 -57q-25 -44 -25 -163v-460h-291v908h291v-37z" />
    <glyph glyph-name="o" unicode="o" horiz-adv-x="1065" 
d="M539 942q218 0 364 -162q123 -137 123 -325q0 -219 -159 -363q-140 -126 -335 -126q-225 0 -370 162q-123 138 -123 327q0 184 116 317q149 170 384 170zM531 680q-56 0 -103 -28q-96 -58 -96 -198q0 -117 68 -177q56 -49 133 -49q88 0 146 62q54 59 54 166
q0 116 -68 175q-55 49 -134 49z" />
    <glyph glyph-name="p" unicode="p" horiz-adv-x="1112" 
d="M97 908h291v-44q110 78 227 78q116 0 220 -60q108 -62 172 -173q67 -116 67 -256q0 -225 -159 -369q-130 -118 -300 -118q-117 0 -227 78v-522h-291v1386zM581 680q-86 0 -141 -61q-55 -59 -55 -167q0 -117 68 -177q53 -47 130 -47q55 0 102 28q96 59 96 198
q0 117 -69 177q-55 49 -131 49z" />
    <glyph glyph-name="q" unicode="q" horiz-adv-x="1112" 
d="M1016 908v-1386h-291v522q-109 -78 -227 -78q-116 0 -220 60q-109 63 -172 173q-67 115 -67 254q0 226 159 371q130 118 300 118q118 0 227 -78v44h291zM532 680q-87 0 -145 -62q-55 -59 -55 -167q0 -115 68 -174q57 -49 135 -49q84 0 139 60q54 60 54 165q0 119 -68 180
q-53 47 -128 47z" />
    <glyph glyph-name="r" unicode="r" horiz-adv-x="645" 
d="M388 868q76 47 156 47q39 0 92 -9v-257q-55 8 -92 8q-91 0 -123.5 -45.5t-32.5 -171.5v-440h-291v908h291v-40z" />
    <glyph glyph-name="s" unicode="s" horiz-adv-x="807" 
d="M28 239l250 89q58 -108 133 -108q66 0 66 58q0 19 -13.5 31t-56.5 29l-152 62q-79 33 -124 97t-45 145q0 129 98 214q99 86 244 86q218 0 338 -208l-235 -108q-45 66 -105 66q-61 0 -61 -45q0 -16 13 -26.5t52 -26.5l127 -48q211 -82 211 -255q0 -138 -106 -234
q-101 -91 -255 -91q-137 0 -230.5 67.5t-148.5 205.5z" />
    <glyph glyph-name="t" unicode="t" horiz-adv-x="577" 
d="M393 649v-332q0 -38 8 -52.5t27 -14.5q37 0 110 29v-269q-87 -29 -162 -29q-126 0 -201 83q-73 81 -73 241v344h-90v259h90v182l291 113v-295h133v-259h-133z" />
    <glyph glyph-name="u" unicode="u" horiz-adv-x="1046" 
d="M658 36q-90 -70 -200 -70q-134 0 -234 89q-127 113 -127 362v491h291v-477q0 -111 23 -154q26 -49 103 -49q88 0 119 57q25 44 25 163v460h291v-908h-291v36z" />
    <glyph glyph-name="v" unicode="v" horiz-adv-x="967" 
d="M277 908l207 -500l207 500h307l-385 -908h-259l-385 908h308z" />
    <glyph glyph-name="w" unicode="w" horiz-adv-x="1339" 
d="M-31 908h305l145 -437l142 437h217l143 -437l145 437h304l-326 -908h-234l-141 428l-140 -428h-234z" />
    <glyph glyph-name="x" unicode="x" horiz-adv-x="1039" 
d="M696 469l366 -469h-353l-189 246l-189 -246h-353l366 468l-342 440h353l166 -217l167 217h349z" />
    <glyph glyph-name="y" unicode="y" horiz-adv-x="973" 
d="M313 49l-344 859h308l196 -503l224 503h307l-620 -1386h-306z" />
    <glyph glyph-name="z" unicode="z" horiz-adv-x="866" 
d="M829 908v-205l-394 -445h411v-258h-812v204l395 447h-369v257h769z" />
    <glyph glyph-name="braceleft" unicode="{" horiz-adv-x="672" 
d="M613 -100v-273q-106 -3 -129 -3q-153 0 -234 78q-83 80 -83 258v389q0 59 -16 75t-91 33v229l49 12q34 9 46 28t12 65v379q0 178 83 258q81 79 231 79q21 0 132 -4v-273q-94 1 -105 1q-29 1 -36.5 -6t-7.5 -35v-413q0 -71 -14 -118t-49 -94q63 -81 63 -216v-409
q0 -28 8 -34t44 -6h97z" />
    <glyph glyph-name="bar" unicode="|" horiz-adv-x="1097" 
d="M406 1491h284v-1851h-284v1851z" />
    <glyph glyph-name="braceright" unicode="}" horiz-adv-x="672" 
d="M60 -100q37 1 61 1q7 0 36 -1h15q23 0 30 7.5t7 32.5v409q3 141 63 216q-27 36 -38 63q-25 59 -25 149v413q0 28 -7.5 35t-36.5 6q-12 0 -105 -1v273q111 4 132 4q150 0 231 -79q83 -80 83 -258v-379q0 -46 12 -65t46 -28l49 -12v-229q-75 -17 -91 -33t-16 -75v-389
q0 -178 -83 -258q-81 -78 -234 -78q-23 0 -129 3v273z" />
    <glyph glyph-name="asciitilde" unicode="~" horiz-adv-x="1477" 
d="M359 1096l-201 130q75 153 118 205q99 122 249 122q103 0 259 -76q119 -58 170 -58q32 0 50 12q25 17 39 35.5t73 115.5l203 -119q-78 -160 -131 -214q-49 -51 -115 -81.5t-127 -30.5q-59 0 -127.5 22t-197.5 81q-66 31 -109 31q-36 0 -64 -32t-89 -143z" />
    <glyph glyph-name="uni00A0" unicode="&#xa0;" horiz-adv-x="447" 
 />
    <glyph glyph-name="exclamdown" unicode="&#xa1;" horiz-adv-x="651" 
d="M190 611h271l25 -988h-321zM325 1019q79 0 131 -57q43 -48 43 -111q0 -74 -56 -124q-49 -44 -119 -44q-72 0 -122 49.5t-50 120.5t56 122q49 44 117 44z" />
    <glyph glyph-name="cent" unicode="&#xa2;" horiz-adv-x="1123" 
d="M737 0h-298v221q-97 31 -173 100q-158 144 -158 362q0 159 90 284t241 176v222h298v-212q129 -35 250 -155l-180 -197q-60 61 -103 84t-99 23q-94 0 -151 -62q-54 -59 -54 -164q0 -117 67 -177q57 -49 138 -49q60 0 107 26t101 88l179 -197q-120 -125 -255 -162v-211z
" />
    <glyph glyph-name="sterling" unicode="&#xa3;" horiz-adv-x="1172" 
d="M920 821v-264h-347q14 -86 14 -140q0 -66 -37 -142h552v-275h-981v236q23 19 47 38q62 48 87.5 87.5t25.5 86.5q0 37 -13 109h-147v264h92q-7 68 -7 117q0 227 139 348q132 113 318 113q210 0 338 -146q42 -48 92 -128l-244 -153q-44 67 -76 100q-51 51 -119 51
q-148 0 -148 -190q0 -49 12 -112h402z" />
    <glyph glyph-name="currency" unicode="&#xa4;" horiz-adv-x="1590" 
d="M519 1140q145 77 276 77q130 0 276 -77l185 188l178 -172l-190 -193q75 -149 75 -280t-75 -279l189 -191l-173 -177l-188 190q-146 -78 -277 -78t-278 78l-187 -190l-174 177l189 191q-75 149 -75 279q0 131 75 280l-190 193l178 172zM790 954q-105 0 -177 -77
q-65 -71 -65 -197q0 -135 83 -208q69 -61 163 -61q110 0 181 77q66 72 66 197q0 136 -82 209q-68 60 -169 60z" />
    <glyph glyph-name="yen" unicode="&#xa5;" horiz-adv-x="1362" 
d="M475 656l-28 50h-221v209h102l-258 450h340l268 -483h6l268 483h339l-257 -450h101v-209h-221l-28 -50h249v-209h-303v-447h-303v447h-303v209h249z" />
    <glyph glyph-name="brokenbar" unicode="&#xa6;" horiz-adv-x="1097" 
d="M406 1491h284v-696h-284v696zM406 336h284v-696h-284v696z" />
    <glyph glyph-name="section" unicode="&#xa7;" horiz-adv-x="1202" 
d="M1003 130q65 -92 65 -215q0 -189 -134 -310q-127 -113 -341 -113q-334 0 -516 326l258 162q72 -114 117 -155q57 -51 151 -51q85 0 127 48q35 39 35 93q0 43 -32 72q-42 39 -153 81l-121 46q-322 122 -322 385q0 150 93 258q-71 94 -71 222q0 181 136 302
q133 118 335 118q146 0 252.5 -63t199.5 -204l-256 -162q-20 29 -53 67q-43 49 -73.5 65t-80.5 16q-80 0 -122 -50q-36 -43 -36 -93q0 -72 146 -127l127 -48q161 -61 245 -140q112 -107 112 -266q0 -139 -88 -264zM481 592l-7 -9l-13 -13q-27 -29 -27 -71q0 -29 18 -53
q29 -37 132 -76l150 -57l23 -9q34 54 34 91q0 46 -38.5 77t-150.5 73z" />
    <glyph glyph-name="dieresis" unicode="&#xa8;" horiz-adv-x="975" 
d="M681 1376q73 0 121 -53q40 -44 40 -103q0 -65 -47.5 -110.5t-114.5 -45.5t-113.5 46.5t-46.5 112.5q0 65 52 112q46 41 109 41zM295 1376q72 0 121 -53q40 -44 40 -103q0 -69 -52 -115q-46 -41 -109 -41q-68 0 -114.5 46t-46.5 113q0 62 47.5 107.5t113.5 45.5z" />
    <glyph glyph-name="copyright" unicode="&#xa9;" horiz-adv-x="1706" 
d="M1100 821q-64 73 -113 101t-111 28q-114 0 -190 -85q-68 -77 -68 -183q0 -122 87 -200q75 -67 172 -67q64 0 111 27t117 103l167 -155q-8 -7 -24 -23q-76 -78 -140 -113q-107 -58 -229 -58q-223 0 -370 163q-125 139 -125 323q0 129 66 243q66 112 178 177q116 67 252 67
q113 0 198.5 -42t189.5 -150zM863 1466q204 0 381 -105q183 -108 287 -287q105 -179 105 -390t-105 -393q-105 -181 -287 -286q-181 -105 -391 -105t-391 105q-182 104 -287 286t-105 389q0 208 105 394q133 236 398 340q134 52 290 52zM847 1274q-152 0 -289 -79
q-137 -80 -217 -216q-79 -137 -79 -296t79 -296q79 -136 217 -216q137 -79 295 -79t295 79q138 80 217 216q79 138 79 299q0 258 -196 436q-167 152 -401 152z" />
    <glyph glyph-name="ordfeminine" unicode="&#xaa;" horiz-adv-x="710" 
d="M653 831h-200v17q-63 -41 -129 -41q-127 0 -214 97q-74 81 -74 195q0 135 99 225q84 76 190 76q67 0 128 -41v17h200v-545zM348 1222q-50 0 -81 -33.5t-31 -88.5q0 -53 30 -84.5t81 -31.5q49 0 78.5 33t29.5 89q0 52 -29.5 84t-77.5 32z" />
    <glyph glyph-name="guillemotleft" unicode="&#xab;" horiz-adv-x="1093" 
d="M770 456l252 -312l-198 -157l-380 467l379 477l199 -156zM369 455l252 -312l-198 -157l-380 468l379 476l198 -156z" />
    <glyph glyph-name="logicalnot" unicode="&#xac;" horiz-adv-x="1437" 
d="M1333 98h-281v405h-948v268h1229v-673z" />
    <glyph glyph-name="uni00AD" unicode="&#xad;" horiz-adv-x="594" 
d="M43 606h509v-268h-509v268z" />
    <glyph glyph-name="registered" unicode="&#xae;" horiz-adv-x="1706" 
d="M865 1465q201 0 379 -105q183 -108 287 -287q105 -180 105 -390t-105 -392q-105 -181 -287 -286q-181 -105 -391 -105t-391 105q-183 105 -287 286q-105 183 -105 398q0 338 260 574q221 202 535 202zM1222 222h-207l-172 310q-25 -1 -46 -1h-14v-309h-231v921h254
q140 0 219 -45q68 -39 108 -108q42 -71 42 -157q0 -132 -113 -233l196 -348q186 176 186 431q0 158 -79 295q-79 136 -217 216q-137 79 -295 79t-295 -79q-138 -79 -217 -216t-79 -296q0 -158 79 -295t216 -216q138 -79 296 -79q207 0 369 130zM782 744h35q71 0 102 21
t31 69q0 51 -31 73t-102 22h-35v-185z" />
    <glyph glyph-name="macron" unicode="&#xaf;" horiz-adv-x="975" 
d="M143 1330h688v-240h-688v240z" />
    <glyph glyph-name="degree" unicode="&#xb0;" horiz-adv-x="664" 
d="M405 1525q126 0 216 -99q75 -82 75 -196q0 -133 -98 -221q-85 -76 -198 -76q-132 0 -220 98q-76 84 -76 198q0 126 87 209q90 87 214 87zM399 1334q-42 0 -73 -31t-31 -73q0 -44 31 -75t74 -31q44 0 74.5 31t30.5 75q0 43 -31 73.5t-75 30.5z" />
    <glyph glyph-name="plusminus" unicode="&#xb1;" horiz-adv-x="1139" 
d="M435 958v383h270v-383h406v-264h-406v-384h-270v384h-407v264h407zM1111 264v-264h-1083v264h1083z" />
    <glyph glyph-name="uni00B2" unicode="&#xb2;" 
d="M112 831v151l291 305q71 74 71 129q0 61 -76 61q-46 0 -66 -22.5t-41 -97.5l-193 51q22 95 64 151q35 47 98.5 74t137.5 27q143 0 220 -85q61 -67 61 -164q0 -118 -94 -216l-169 -178h280v-186h-584z" />
    <glyph glyph-name="uni00B3" unicode="&#xb3;" 
d="M298 1341h86q86 0 86 68q0 69 -77 69q-37 0 -59.5 -15.5t-64.5 -69.5l-170 89q39 62 78 100q82 79 213 79q142 0 222 -89q62 -69 62 -160q0 -83 -62 -150q44 -46 61.5 -85t17.5 -93q0 -119 -87 -195q-88 -77 -217 -77q-246 0 -306 260l196 49q22 -76 44 -100.5t67 -24.5
q44 0 70.5 24.5t26.5 64.5q0 80 -101 80h-86v176z" />
    <glyph glyph-name="acute" unicode="&#xb4;" horiz-adv-x="975" 
d="M847 1320l-351 -329l-197 105l280 358z" />
    <glyph glyph-name="uni00B5" unicode="&#xb5;" horiz-adv-x="1046" 
d="M388 -478h-291v1386h291v-479q0 -109 23 -152q26 -49 103 -49q88 0 119 57q25 44 25 163v460h291v-908h-291v36q-42 -40 -74 -55t-76 -15q-63 0 -120 33v-477z" />
    <glyph glyph-name="paragraph" unicode="&#xb6;" horiz-adv-x="1320" 
d="M786 -478h-253v877q-93 16 -148 39t-111 72q-170 145 -170 370q0 219 158 361q137 124 328 124h660v-244h-126v-1599h-253v1599h-85v-1599z" />
    <glyph glyph-name="periodcentered" unicode="&#xb7;" horiz-adv-x="544" 
d="M272 852q79 0 131 -57q43 -48 43 -111q0 -74 -56 -124q-50 -45 -119 -45q-77 0 -129 57q-43 48 -43 114q0 71 56 121q49 45 117 45z" />
    <glyph glyph-name="cedilla" unicode="&#xb8;" horiz-adv-x="975" 
d="M751 -137l-290 -343l-211 98l239 350z" />
    <glyph glyph-name="uni00B9" unicode="&#xb9;" 
d="M532 831h-206v565l-78 -42l-100 162l230 124h154v-809z" />
    <glyph glyph-name="ordmasculine" unicode="&#xba;" horiz-adv-x="695" 
d="M353 1399q138 0 231 -101q75 -82 75 -195q0 -130 -98 -217q-88 -79 -213 -79q-145 0 -237 101q-75 83 -75 197q0 127 98 215q88 79 219 79zM348 1222q-50 0 -80.5 -32.5t-30.5 -86.5t30.5 -86.5t80.5 -32.5t80 33t30 88q0 53 -30.5 85t-79.5 32z" />
    <glyph glyph-name="guillemotright" unicode="&#xbb;" horiz-adv-x="1093" 
d="M724 455l-251 319l198 156l379 -476l-379 -468l-199 157zM323 456l-251 319l198 156l379 -477l-380 -467l-198 157z" />
    <glyph glyph-name="onequarter" unicode="&#xbc;" horiz-adv-x="1707" 
d="M1424 743l-270 -405h90v131h205v-131h75v-184h-75v-154h-205v154h-348v153l357 536zM1083 1399l164 -94l-776 -1340l-163 94zM472 556h-206v564l-78 -42l-100 162l230 124h154v-808z" />
    <glyph glyph-name="onehalf" unicode="&#xbd;" horiz-adv-x="1707" 
d="M1080 1399l164 -94l-776 -1340l-163 94zM469 556h-206v564l-78 -42l-100 162l230 124h154v-808zM997 0v150l291 306q71 74 71 129q0 61 -76 61q-46 0 -66 -22.5t-41 -97.5l-193 51q22 95 64 151q35 47 98.5 74t137.5 27q143 0 220 -85q61 -68 61 -164q0 -118 -94 -216
l-169 -178h280v-186h-584z" />
    <glyph glyph-name="threequarters" unicode="&#xbe;" horiz-adv-x="1707" 
d="M1499 743l-269 -405h89v131h205v-131h75v-184h-75v-154h-205v154h-348v153l357 536zM1203 1399l164 -94l-776 -1340l-163 94zM293 1065h86q86 0 86 67q0 69 -77 69q-38 0 -59 -14.5t-65 -69.5l-170 89q39 61 78 99q82 79 213 79q142 0 222 -89q62 -68 62 -159
q0 -84 -62 -150q44 -46 61.5 -85t17.5 -93q0 -119 -87 -195q-88 -77 -217 -77q-246 0 -306 260l196 49q22 -76 44 -100.5t67 -24.5q44 0 70.5 24t26.5 65q0 80 -101 80h-86v176z" />
    <glyph glyph-name="questiondown" unicode="&#xbf;" horiz-adv-x="916" 
d="M645 611v-122q0 -102 -27.5 -159.5t-108.5 -124.5l-81 -68q-92 -76 -92 -152q0 -54 35 -84t97 -30q68 0 112 31t111 126l223 -178q-57 -93 -117 -148q-127 -113 -324 -113q-221 0 -340 132q-97 109 -97 263q0 98 32 163q44 91 147 186l91 84q25 23 32 38.5t7 48.5v107
h300zM496 1019q73 0 123.5 -49.5t50.5 -121.5q0 -71 -56 -121q-49 -44 -118 -44q-78 0 -130 57q-43 47 -43 111q0 73 56 123q49 45 117 45z" />
    <glyph glyph-name="Agrave" unicode="&#xc0;" horiz-adv-x="1330" 
d="M922 301h-516l-105 -301h-320l510 1365h347l510 -1365h-321zM825 582l-161 459l-161 -459h322zM299 1748l269 134l280 -358l-197 -104z" />
    <glyph glyph-name="Aacute" unicode="&#xc1;" horiz-adv-x="1330" 
d="M1024 1748l-351 -328l-197 104l280 358zM922 301h-516l-105 -301h-320l510 1365h347l510 -1365h-321zM825 582l-161 459l-161 -459h322z" />
    <glyph glyph-name="Acircumflex" unicode="&#xc2;" horiz-adv-x="1330" 
d="M922 301h-516l-105 -301h-320l510 1365h347l510 -1365h-321zM825 582l-161 459l-161 -459h322zM488 1421l-222 102l312 318h173l312 -318l-221 -102l-177 159z" />
    <glyph glyph-name="Atilde" unicode="&#xc3;" horiz-adv-x="1330" 
d="M922 301h-516l-105 -301h-320l510 1365h347l510 -1365h-321zM825 582l-161 459l-161 -459h322zM770 1805l242 -52q-9 -116 -43 -172q-26 -43 -76 -68.5t-109 -25.5q-81 0 -166 41q-23 12 -38 12q-10 0 -14.5 -12t-11.5 -58l-236 52q11 113 49 173q26 41 74 67t99 26
q84 0 175 -47q20 -11 33 -11q10 0 14 13t8 62z" />
    <glyph glyph-name="Adieresis" unicode="&#xc4;" horiz-adv-x="1330" 
d="M922 301h-516l-105 -301h-320l510 1365h347l510 -1365h-321zM825 582l-161 459l-161 -459h322zM858 1793q73 0 121 -53q40 -44 40 -103q0 -69 -52 -115q-46 -41 -109 -41q-68 0 -114.5 46t-46.5 112q0 63 47.5 108.5t113.5 45.5zM472 1793q73 0 121 -53q40 -44 40 -103
q0 -69 -52 -115q-46 -41 -109 -41q-68 0 -114.5 46t-46.5 112q0 63 47.5 108.5t113.5 45.5z" />
    <glyph glyph-name="Aring" unicode="&#xc5;" horiz-adv-x="1330" 
d="M664 1863q111 0 186 -82q62 -69 62 -162q0 -108 -81 -180q-70 -64 -166 -64q-103 0 -175 71q-73 72 -73 177q0 102 81 177q69 63 166 63zM664 1725q-44 0 -74.5 -31.5t-30.5 -75.5q0 -43 31 -74t74 -31q44 0 75 31t31 75t-31 75t-75 31zM922 301h-516l-105 -301h-320
l510 1365h347l510 -1365h-321zM825 582l-161 459l-161 -459h322z" />
    <glyph glyph-name="AE" unicode="&#xc6;" horiz-adv-x="1743" 
d="M860 301h-383l-156 -301h-340l723 1365h958v-278h-501v-256h445v-279h-445v-271h520v-281h-821v301zM860 582v440h-7l-229 -440h236z" />
    <glyph glyph-name="Ccedilla" unicode="&#xc7;" horiz-adv-x="1381" 
d="M1123 932q-67 74 -121 114q-100 71 -223 71q-186 0 -309 -139q-111 -124 -111 -296q0 -197 142 -325q121 -109 280 -109q98 0 177 42.5t171 145.5l216 -201q-100 -106 -188 -161q-169 -108 -373 -108q-203 0 -375 102q-162 95 -257 256q-98 167 -98 358q0 190 97 357
q97 166 262 261q171 99 372 99q160 0 290.5 -62.5t263.5 -203.5zM953 -137l-291 -343l-211 98l240 350z" />
    <glyph glyph-name="Egrave" unicode="&#xc8;" horiz-adv-x="1014" 
d="M933 1365v-278h-501v-256h446v-279h-446v-271h520v-281h-821v1365h802zM193 1748l269 134l280 -358l-197 -104z" />
    <glyph glyph-name="Eacute" unicode="&#xc9;" horiz-adv-x="1014" 
d="M933 1365v-278h-501v-256h446v-279h-446v-271h520v-281h-821v1365h802zM891 1748l-352 -328l-197 104l280 358z" />
    <glyph glyph-name="Ecircumflex" unicode="&#xca;" horiz-adv-x="1014" 
d="M933 1365v-278h-501v-256h446v-279h-446v-271h520v-281h-821v1365h802zM365 1421l-221 102l312 318h172l312 -318l-221 -102l-177 159z" />
    <glyph glyph-name="Edieresis" unicode="&#xcb;" horiz-adv-x="1014" 
d="M933 1365v-278h-501v-256h446v-279h-446v-271h520v-281h-821v1365h802zM735 1793q73 0 121 -53q40 -44 40 -103q0 -65 -47 -110.5t-115 -45.5q-67 0 -113.5 46t-46.5 113q0 62 47.5 107.5t113.5 45.5zM349 1793q73 0 121 -53q40 -44 40 -103q0 -69 -52 -115
q-46 -41 -109 -41q-68 0 -114.5 46t-46.5 112q0 63 47.5 108.5t113.5 45.5z" />
    <glyph glyph-name="Igrave" unicode="&#xcc;" horiz-adv-x="566" 
d="M434 1365v-1365h-303v1365h303zM-100 1748l269 134l279 -358l-196 -104z" />
    <glyph glyph-name="Iacute" unicode="&#xcd;" horiz-adv-x="566" 
d="M434 1365v-1365h-303v1365h303zM650 1748l-351 -328l-197 104l280 358z" />
    <glyph glyph-name="Icircumflex" unicode="&#xce;" horiz-adv-x="566" 
d="M435 1365v-1365h-303v1365h303zM106 1421l-221 102l312 318h173l311 -318l-221 -102l-177 159z" />
    <glyph glyph-name="Idieresis" unicode="&#xcf;" horiz-adv-x="566" 
d="M435 1365v-1365h-303v1365h303zM106 1793q73 0 121 -53q40 -44 40 -103q0 -69 -52 -115q-46 -41 -109 -41q-68 0 -114.5 46t-46.5 112q0 63 47.5 108.5t113.5 45.5zM461 1793q73 0 121 -53q40 -44 40 -103q0 -69 -52 -115q-46 -41 -110 -41q-67 0 -113.5 46t-46.5 113
q0 62 47.5 107.5t113.5 45.5z" />
    <glyph glyph-name="Eth" unicode="&#xd0;" horiz-adv-x="1298" 
d="M157 869v496h336q312 0 507 -152q245 -191 245 -530q0 -341 -245 -531q-40 -31 -72 -49q-191 -103 -435 -103h-336v592h-124v277h124zM460 869h292v-277h-292v-311h40q108 0 199.5 33.5t146.5 93.5q95 106 95 273q0 239 -182 342q-106 61 -259 61h-40v-215z" />
    <glyph glyph-name="Ntilde" unicode="&#xd1;" horiz-adv-x="1450" 
d="M131 0v1365h253l631 -828v828h303v-1365h-253l-631 828v-828h-303zM844 1805l242 -52q-9 -116 -43 -172q-26 -43 -76 -68.5t-108 -25.5q-82 0 -166 41q-24 12 -38 12q-10 0 -15 -12t-12 -58l-236 52q11 113 49 173q27 42 75 67.5t99 25.5q83 0 174 -47q21 -11 33 -11
q11 0 14.5 13t7.5 62z" />
    <glyph glyph-name="Ograve" unicode="&#xd2;" horiz-adv-x="1563" 
d="M419 1748l269 134l280 -358l-197 -104zM782 1399q195 0 359 -95q172 -99 270 -264q99 -167 99 -358q0 -187 -95 -351q-95 -165 -263 -264q-173 -101 -376 -101q-191 0 -364 101q-168 99 -263 264t-95 362q0 186 99 347q105 171 270 264q168 95 359 95zM779 1117
q-182 0 -309 -141q-111 -123 -111 -301q0 -113 57 -212t159 -158q99 -57 207 -57t207 57q102 59 159 158q57 100 57 218q0 197 -143 327q-119 109 -283 109z" />
    <glyph glyph-name="Oacute" unicode="&#xd3;" horiz-adv-x="1563" 
d="M782 1399q195 0 359 -95q172 -99 270 -264q99 -167 99 -358q0 -187 -95 -351q-95 -165 -263 -264q-173 -101 -376 -101q-191 0 -364 101q-168 99 -263 264t-95 362q0 186 99 347q105 171 270 264q168 95 359 95zM779 1117q-182 0 -309 -141q-111 -123 -111 -301
q0 -113 57 -212t159 -158q99 -57 207 -57t207 57q102 59 159 158q57 100 57 218q0 197 -143 327q-119 109 -283 109zM1146 1748l-352 -328l-196 104l279 358z" />
    <glyph glyph-name="Ocircumflex" unicode="&#xd4;" horiz-adv-x="1563" 
d="M782 1399q195 0 359 -95q172 -99 270 -264q99 -167 99 -358q0 -187 -95 -351q-95 -165 -263 -264q-173 -101 -376 -101q-191 0 -364 101q-168 99 -263 264t-95 362q0 186 99 347q105 171 270 264q168 95 359 95zM779 1117q-182 0 -309 -141q-111 -123 -111 -301
q0 -113 57 -212t159 -158q99 -57 207 -57t207 57q102 59 159 158q57 100 57 218q0 197 -143 327q-119 109 -283 109zM605 1421l-221 102l312 318h172l312 -318l-221 -102l-177 159z" />
    <glyph glyph-name="Otilde" unicode="&#xd5;" horiz-adv-x="1563" 
d="M782 1399q195 0 359 -95q172 -99 270 -264q99 -167 99 -358q0 -187 -95 -351q-95 -165 -263 -264q-173 -101 -376 -101q-191 0 -364 101q-168 99 -263 264t-95 362q0 186 99 347q105 171 270 264q168 95 359 95zM779 1117q-182 0 -309 -141q-111 -123 -111 -301
q0 -113 57 -212t159 -158q99 -57 207 -57t207 57q102 59 159 158q57 100 57 218q0 197 -143 327q-119 109 -283 109zM887 1805l242 -52q-9 -115 -43 -172q-26 -43 -76 -68.5t-108 -25.5q-81 0 -166 41q-24 12 -38 12q-10 0 -14.5 -11t-12.5 -59l-236 52q11 113 49 173
q27 42 74.5 67.5t99.5 25.5q83 0 174 -47q21 -11 33 -11q11 0 14.5 13.5t7.5 61.5z" />
    <glyph glyph-name="Odieresis" unicode="&#xd6;" horiz-adv-x="1563" 
d="M782 1399q195 0 359 -95q172 -99 270 -264q99 -167 99 -358q0 -187 -95 -351q-95 -165 -263 -264q-173 -101 -376 -101q-191 0 -364 101q-168 99 -263 264t-95 362q0 186 99 347q105 171 270 264q168 95 359 95zM779 1117q-182 0 -309 -141q-111 -123 -111 -301
q0 -113 57 -212t159 -158q99 -57 207 -57t207 57q102 59 159 158q57 100 57 218q0 197 -143 327q-119 109 -283 109zM975 1793q73 0 121 -53q40 -44 40 -103q0 -65 -47.5 -110.5t-114.5 -45.5t-113.5 46t-46.5 113q0 62 47.5 107.5t113.5 45.5zM589 1793q73 0 121 -53
q40 -44 40 -103q0 -69 -52 -115q-46 -41 -109 -41q-68 0 -114.5 46t-46.5 112q0 63 47.5 108.5t113.5 45.5z" />
    <glyph glyph-name="multiply" unicode="&#xd7;" horiz-adv-x="1139" 
d="M381 639l-289 289l188 188l289 -289l289 289l188 -188l-289 -289l289 -289l-188 -188l-289 289l-289 -289l-188 188z" />
    <glyph glyph-name="Oslash" unicode="&#xd8;" horiz-adv-x="1578" 
d="M1500 1212l-119 -116q136 -187 136 -413q0 -187 -95 -352t-263 -264q-173 -101 -370 -101q-115 0 -228 37t-201 103l-117 -113l-165 160l119 115q-136 191 -136 412q0 188 95 353q99 173 274 271q168 95 362 95q223 0 426 -140l116 113zM1162 885l-590 -573
q103 -64 217 -64q108 0 206 57q103 59 160 158t57 218q0 108 -50 204zM415 480l592 574q-101 63 -218 63q-187 0 -312 -140q-111 -125 -111 -296q0 -109 49 -201z" />
    <glyph glyph-name="Ugrave" unicode="&#xd9;" horiz-adv-x="1321" 
d="M434 1365v-835q0 -137 27 -183q24 -43 80.5 -71t118.5 -28t118.5 28t81.5 71q26 46 26 183v835h303v-871q0 -172 -61 -276q-64 -109 -180 -176q-132 -76 -288 -76q-216 0 -371 135q-84 74 -121 165.5t-37 227.5v871h303zM296 1748l269 134l280 -358l-197 -104z" />
    <glyph glyph-name="Uacute" unicode="&#xda;" horiz-adv-x="1321" 
d="M434 1365v-835q0 -137 27 -183q24 -43 80.5 -71t118.5 -28t118.5 28t81.5 71q26 46 26 183v835h303v-871q0 -172 -61 -276q-64 -109 -180 -176q-132 -76 -288 -76q-216 0 -371 135q-84 74 -121 165.5t-37 227.5v871h303zM1024 1748l-352 -328l-197 104l280 358z" />
    <glyph glyph-name="Ucircumflex" unicode="&#xdb;" horiz-adv-x="1321" 
d="M434 1365v-835q0 -137 27 -183q24 -43 80.5 -71t118.5 -28t118.5 28t81.5 71q26 46 26 183v835h303v-871q0 -172 -61 -276q-64 -109 -180 -176q-132 -76 -288 -76q-216 0 -371 135q-84 74 -121 165.5t-37 227.5v871h303zM483 1421l-221 102l312 318h172l312 -318
l-221 -102l-177 159z" />
    <glyph glyph-name="Udieresis" unicode="&#xdc;" horiz-adv-x="1321" 
d="M434 1365v-835q0 -137 27 -183q24 -43 80.5 -71t118.5 -28t118.5 28t81.5 71q26 46 26 183v835h303v-871q0 -172 -61 -276q-64 -109 -180 -176q-132 -76 -288 -76q-216 0 -371 135q-84 74 -121 165.5t-37 227.5v871h303zM853 1793q73 0 121 -53q40 -44 40 -103
q0 -69 -52 -115q-46 -41 -109 -41q-68 0 -114.5 46t-46.5 112q0 63 47.5 108.5t113.5 45.5zM467 1793q73 0 121 -53q40 -44 40 -103q0 -65 -47 -110.5t-115 -45.5q-67 0 -113.5 46t-46.5 113q0 62 47.5 107.5t113.5 45.5z" />
    <glyph glyph-name="Yacute" unicode="&#xdd;" horiz-adv-x="1157" 
d="M427 562l-459 803h340l271 -488l271 488h339l-459 -803v-562h-303v562zM942 1748l-351 -328l-197 104l280 358z" />
    <glyph glyph-name="Thorn" unicode="&#xde;" horiz-adv-x="987" 
d="M434 1199h34q190 0 299 -61q93 -53 149 -149q61 -105 61 -233q0 -178 -112 -304q-67 -76 -160 -109t-237 -33h-34v-310h-303v1365h303v-166zM432 922v-337h52q120 0 160 47q39 46 39 122q0 89 -47 128.5t-152 39.5h-52z" />
    <glyph glyph-name="germandbls" unicode="&#xdf;" horiz-adv-x="1094" 
d="M447 0v264h104q100 0 149 59q43 50 43 116q0 158 -197 158h-59v260h59q56 0 77 27q30 37 30 106q0 151 -133 151q-62 0 -97 -40t-35 -111v-990h-291v990q0 237 198 352q98 57 216 57q126 0 231 -57q92 -50 144 -142q52 -93 52 -206q0 -118 -78 -224q174 -127 174 -337
q0 -189 -137 -314q-130 -119 -352 -119h-98z" />
    <glyph glyph-name="agrave" unicode="&#xe0;" horiz-adv-x="1112" 
d="M1016 0h-291v44q-110 -78 -227 -78q-116 0 -220 60q-108 63 -172 173q-67 116 -67 256q0 225 159 369q130 118 300 118q117 0 227 -78v44h291v-908zM529 680q-85 0 -143 -62q-54 -59 -54 -167q0 -114 69 -174q55 -49 131 -49q86 0 142 61q54 59 54 167q0 117 -68 177
q-53 47 -131 47zM167 1321l267 133l278 -357l-195 -104z" />
    <glyph glyph-name="aacute" unicode="&#xe1;" horiz-adv-x="1112" 
d="M903 1321l-351 -329l-197 105l280 358zM1016 0h-291v44q-110 -78 -227 -78q-116 0 -220 60q-108 63 -172 173q-67 116 -67 256q0 225 159 369q130 118 300 118q117 0 227 -78v44h291v-908zM529 680q-85 0 -143 -62q-54 -59 -54 -167q0 -114 69 -174q55 -49 131 -49
q86 0 142 61q54 59 54 167q0 117 -68 177q-53 47 -131 47z" />
    <glyph glyph-name="acircumflex" unicode="&#xe2;" horiz-adv-x="1112" 
d="M1016 0h-291v44q-110 -78 -227 -78q-116 0 -220 60q-108 63 -172 173q-67 116 -67 256q0 225 159 369q130 118 300 118q117 0 227 -78v44h291v-908zM529 680q-85 0 -143 -62q-54 -59 -54 -167q0 -114 69 -174q55 -49 131 -49q86 0 142 61q54 59 54 167q0 117 -68 177
q-53 47 -131 47zM705 995l-177 167l-177 -167l-220 101l311 317h172l311 -317z" />
    <glyph glyph-name="atilde" unicode="&#xe3;" horiz-adv-x="1112" 
d="M1016 0h-291v44q-110 -78 -227 -78q-116 0 -220 60q-108 63 -172 173q-67 116 -67 256q0 225 159 369q130 118 300 118q117 0 227 -78v44h291v-908zM529 680q-85 0 -143 -62q-54 -59 -54 -167q0 -114 69 -174q55 -49 131 -49q86 0 142 61q54 59 54 167q0 117 -68 177
q-53 47 -131 47zM633 1377l242 -52q-9 -116 -43 -172q-26 -43 -76 -68.5t-109 -25.5q-81 0 -165 41q-24 12 -39 12q-9 0 -14 -12t-12 -57l-236 51q11 113 49 173q26 41 74 67t100 26q83 0 174 -47q21 -11 33 -11q11 0 14.5 13.5t7.5 61.5z" />
    <glyph glyph-name="adieresis" unicode="&#xe4;" horiz-adv-x="1112" 
d="M1016 0h-291v44q-110 -78 -227 -78q-116 0 -220 60q-108 63 -172 173q-67 116 -67 256q0 225 159 369q130 118 300 118q117 0 227 -78v44h291v-908zM529 680q-85 0 -143 -62q-54 -59 -54 -167q0 -114 69 -174q55 -49 131 -49q86 0 142 61q54 59 54 167q0 117 -68 177
q-53 47 -131 47zM738 1376q72 0 121 -53q40 -44 40 -103q0 -69 -52 -115q-46 -41 -109 -41q-68 0 -114.5 46t-46.5 113q0 62 47.5 107.5t113.5 45.5zM352 1376q67 0 114 -45.5t47 -110.5q0 -69 -52 -115q-46 -41 -109 -41q-67 0 -114 46t-47 112t52 113q46 41 109 41z" />
    <glyph glyph-name="aring" unicode="&#xe5;" horiz-adv-x="1112" 
d="M551 1454q111 0 186 -82q62 -69 62 -162q0 -108 -81 -180q-70 -64 -168 -64q-110 0 -183 82q-63 70 -63 166q0 101 81 176q69 64 166 64zM551 1316q-44 0 -74.5 -31.5t-30.5 -76.5q0 -42 31.5 -73t73.5 -31q44 0 75 31t31 75t-31 75t-75 31zM1016 0h-291v44
q-110 -78 -227 -78q-116 0 -220 60q-108 63 -172 173q-67 116 -67 256q0 225 159 369q130 118 300 118q117 0 227 -78v44h291v-908zM529 680q-85 0 -143 -62q-54 -59 -54 -167q0 -114 69 -174q55 -49 131 -49q86 0 142 61q54 59 54 167q0 117 -68 177q-53 47 -131 47z" />
    <glyph glyph-name="ae" unicode="&#xe6;" horiz-adv-x="1610" 
d="M809 832q130 111 296 111q208 0 343 -151q123 -138 123 -355q0 -26 -2 -78h-633q26 -73 68.5 -106t110.5 -33q111 0 171 92l262 -101q-159 -245 -432 -245q-173 0 -301 106q-118 -106 -331 -106q-171 0 -287 67q-159 90 -159 254q0 150 133 228q109 64 285 64h168
q-39 112 -151 112q-127 0 -273 -91l-152 189q118 83 217.5 118.5t219.5 35.5q210 0 324 -111zM1283 550q-20 64 -49 94q-46 47 -125 47q-136 0 -173 -141h347zM638 387h-156q-157 0 -157 -84q0 -35 26 -55q40 -33 129 -33q158 0 158 101v71z" />
    <glyph glyph-name="ccedilla" unicode="&#xe7;" horiz-adv-x="935" 
d="M703 -137l-291 -343l-211 98l240 350zM918 770l-179 -197q-59 61 -102.5 84t-99.5 23q-94 0 -151 -62q-54 -59 -54 -164q0 -117 67 -177q56 -49 138 -49q60 0 107 26t100 88l179 -198q-170 -178 -387 -178q-229 0 -374 163q-123 138 -123 325q0 218 158 361
q140 127 338 127q111 0 201.5 -40.5t181.5 -131.5z" />
    <glyph glyph-name="egrave" unicode="&#xe8;" horiz-adv-x="1011" 
d="M154 1320l268 134l280 -358l-197 -105zM949 211q-159 -245 -428 -245q-219 0 -357 155q-125 140 -125 334q0 222 158 366q132 121 313 121q205 0 340 -151q123 -137 123 -357q0 -28 -3 -75h-633q26 -73 68.5 -106t110.5 -33q113 0 172 92zM684 550q-24 74 -64.5 107
t-108.5 33q-70 0 -111.5 -33.5t-62.5 -106.5h347z" />
    <glyph glyph-name="eacute" unicode="&#xe9;" horiz-adv-x="1011" 
d="M858 1320l-352 -329l-196 105l280 358zM949 211q-159 -245 -428 -245q-219 0 -357 155q-125 140 -125 334q0 222 158 366q132 121 313 121q205 0 340 -151q123 -137 123 -357q0 -28 -3 -75h-633q26 -73 68.5 -106t110.5 -33q113 0 172 92zM684 550q-24 74 -64.5 107
t-108.5 33q-70 0 -111.5 -33.5t-62.5 -106.5h347z" />
    <glyph glyph-name="ecircumflex" unicode="&#xea;" horiz-adv-x="1011" 
d="M949 211q-159 -245 -428 -245q-219 0 -357 155q-125 140 -125 334q0 222 158 366q132 121 313 121q205 0 340 -151q123 -137 123 -357q0 -28 -3 -75h-633q26 -73 68.5 -106t110.5 -33q113 0 172 92zM684 550q-24 74 -64.5 107t-108.5 33q-70 0 -111.5 -33.5t-62.5 -106.5
h347zM682 995l-177 167l-177 -167l-220 101l311 317h172l311 -317z" />
    <glyph glyph-name="edieresis" unicode="&#xeb;" horiz-adv-x="1011" 
d="M949 211q-159 -245 -428 -245q-219 0 -357 155q-125 140 -125 334q0 222 158 366q132 121 313 121q205 0 340 -151q123 -137 123 -357q0 -28 -3 -75h-633q26 -73 68.5 -106t110.5 -33q113 0 172 92zM684 550q-24 74 -64.5 107t-108.5 33q-70 0 -111.5 -33.5t-62.5 -106.5
h347zM699 1376q72 0 121 -53q40 -44 40 -103q0 -69 -52 -115q-46 -41 -109 -41q-67 0 -114 46t-47 112t52 113q46 41 109 41zM313 1376q73 0 121 -53q40 -44 40 -103q0 -69 -52 -115q-46 -41 -109 -41q-67 0 -114 46t-47 112q0 63 47.5 108.5t113.5 45.5z" />
    <glyph glyph-name="igrave" unicode="&#xec;" horiz-adv-x="487" 
d="M-131 1320l269 134l279 -358l-196 -105zM389 908v-908h-291v908h291z" />
    <glyph glyph-name="iacute" unicode="&#xed;" horiz-adv-x="487" 
d="M618 1320l-351 -329l-197 105l280 358zM389 908v-908h-291v908h291z" />
    <glyph glyph-name="icircumflex" unicode="&#xee;" horiz-adv-x="487" 
d="M389 908v-908h-291v908h291zM421 995l-177 167l-177 -167l-220 101l311 317h172l310 -317z" />
    <glyph glyph-name="idieresis" unicode="&#xef;" horiz-adv-x="487" 
d="M389 908v-908h-291v908h291zM420 1376q72 0 121 -53q40 -44 40 -103q0 -69 -52 -115q-46 -41 -109 -41q-67 0 -114 46t-47 112t52 113q46 41 109 41zM65 1376q72 0 121 -53q40 -44 40 -103q0 -69 -52 -115q-46 -41 -109 -41q-68 0 -114.5 46t-46.5 113q0 62 47.5 107.5
t113.5 45.5z" />
    <glyph glyph-name="eth" unicode="&#xf0;" horiz-adv-x="1068" 
d="M760 1247q110 -135 165 -258q104 -231 104 -474q0 -287 -166 -428q-142 -121 -331 -121q-225 0 -370 162q-123 138 -123 326q0 219 159 362q140 126 329 126q69 0 142 -20l-3 6q-92 131 -151 194l-199 -101l-191 171l143 72q-78 29 -180 59l141 206q179 -47 328 -121
l212 105l179 -170zM531 680q-56 0 -103 -28q-96 -58 -96 -198q0 -117 68 -177q56 -49 133 -49q88 0 146 62q54 59 54 166q0 116 -68 175q-55 49 -134 49z" />
    <glyph glyph-name="ntilde" unicode="&#xf1;" horiz-adv-x="1046" 
d="M388 871q90 71 200 71q134 0 234 -89q127 -113 127 -362v-491h-291v477q0 111 -23 154q-26 49 -103 49q-88 0 -119 -57q-25 -44 -25 -163v-460h-291v908h291v-37zM635 1377l242 -52q-9 -116 -43 -172q-26 -43 -76 -68.5t-109 -25.5q-81 0 -165 41q-24 12 -39 12
q-9 0 -14 -12t-12 -57l-236 51q11 113 49 173q27 41 74.5 67t99.5 26q83 0 174 -47q21 -11 33 -11q11 0 14.5 13.5t7.5 61.5z" />
    <glyph glyph-name="ograve" unicode="&#xf2;" horiz-adv-x="1065" 
d="M172 1321l266 133l279 -357l-195 -104zM541 942q216 0 362 -162q123 -137 123 -325q0 -219 -159 -363q-140 -126 -334 -126q-226 0 -371 162q-123 138 -123 330q0 212 159 358q138 126 343 126zM529 680q-85 0 -143 -62q-54 -59 -54 -167q0 -114 68 -174q56 -49 133 -49
q88 0 146 62q54 59 54 166q0 116 -68 175q-55 49 -136 49z" />
    <glyph glyph-name="oacute" unicode="&#xf3;" horiz-adv-x="1065" 
d="M894 1321l-351 -328l-195 104l279 357zM541 942q216 0 362 -162q123 -137 123 -325q0 -219 -159 -363q-140 -126 -334 -126q-226 0 -371 162q-123 138 -123 330q0 212 159 358q138 126 343 126zM529 680q-85 0 -143 -62q-54 -59 -54 -167q0 -114 68 -174q56 -49 133 -49
q88 0 146 62q54 59 54 166q0 116 -68 175q-55 49 -136 49z" />
    <glyph glyph-name="ocircumflex" unicode="&#xf4;" horiz-adv-x="1065" 
d="M710 995l-177 167l-178 -167l-219 101l311 317h172l310 -317zM541 942q216 0 362 -162q123 -137 123 -325q0 -219 -159 -363q-140 -126 -334 -126q-226 0 -371 162q-123 138 -123 330q0 212 159 358q138 126 343 126zM529 680q-85 0 -143 -62q-54 -59 -54 -167
q0 -114 68 -174q56 -49 133 -49q88 0 146 62q54 59 54 166q0 116 -68 175q-55 49 -136 49z" />
    <glyph glyph-name="otilde" unicode="&#xf5;" horiz-adv-x="1065" 
d="M638 1377l242 -52q-9 -116 -43 -172q-26 -43 -76 -68.5t-109 -25.5q-82 0 -166 41q-23 12 -38 12q-10 0 -14.5 -12t-11.5 -57l-236 51q11 113 49 173q26 41 74 67t99 26q84 0 175 -47q20 -11 33 -11q10 0 14 13.5t8 61.5zM541 942q216 0 362 -162q123 -137 123 -325
q0 -219 -159 -363q-140 -126 -334 -126q-226 0 -371 162q-123 138 -123 330q0 212 159 358q138 126 343 126zM529 680q-85 0 -143 -62q-54 -59 -54 -167q0 -114 68 -174q56 -49 133 -49q88 0 146 62q54 59 54 166q0 116 -68 175q-55 49 -136 49z" />
    <glyph glyph-name="odieresis" unicode="&#xf6;" horiz-adv-x="1065" 
d="M541 942q216 0 362 -162q123 -137 123 -325q0 -219 -159 -363q-140 -126 -334 -126q-226 0 -371 162q-123 138 -123 330q0 212 159 358q138 126 343 126zM529 680q-85 0 -143 -62q-54 -59 -54 -167q0 -114 68 -174q56 -49 133 -49q88 0 146 62q54 59 54 166
q0 116 -68 175q-55 49 -136 49zM725 1376q73 0 121 -53q40 -44 40 -103q0 -69 -52 -115q-46 -41 -109 -41q-67 0 -114 46t-47 112q0 63 47.5 108.5t113.5 45.5zM339 1376q72 0 121 -53q40 -44 40 -103q0 -69 -52 -115q-46 -41 -109 -41q-68 0 -114.5 46t-46.5 112
q0 63 47.5 108.5t113.5 45.5z" />
    <glyph glyph-name="divide" unicode="&#xf7;" horiz-adv-x="1139" 
d="M1076 771v-265h-1014v265h1014zM572 1186q76 0 129 -59q46 -51 46 -118q0 -79 -59 -132q-51 -46 -119 -46q-78 0 -131 59q-46 51 -46 118q0 74 52 126t128 52zM572 447q75 0 129 -59q46 -50 46 -118q0 -80 -59 -132q-51 -46 -119 -46q-78 0 -131 59q-46 51 -46 120
q0 76 59 130q50 46 121 46z" />
    <glyph glyph-name="oslash" unicode="&#xf8;" horiz-adv-x="1092" 
d="M124 198q-72 118 -72 255q0 220 159 363q140 126 335 126q162 0 285 -88l65 61l143 -138l-71 -66q71 -122 71 -256q0 -219 -159 -363q-140 -126 -337 -126q-151 0 -283 88l-65 -61l-143 138zM348 405l280 261q-43 17 -84 17q-88 0 -146 -62q-55 -60 -55 -167q0 -29 5 -49
zM743 503l-279 -260q39 -18 81 -18q90 0 148 64q56 60 56 171q0 24 -6 43z" />
    <glyph glyph-name="ugrave" unicode="&#xf9;" horiz-adv-x="1046" 
d="M164 1320l269 134l280 -358l-197 -105zM658 36q-90 -70 -200 -70q-134 0 -234 89q-127 113 -127 362v491h291v-477q0 -111 23 -154q26 -49 103 -49q88 0 119 57q25 44 25 163v460h291v-908h-291v36z" />
    <glyph glyph-name="uacute" unicode="&#xfa;" horiz-adv-x="1046" 
d="M876 1320l-352 -329l-197 105l280 358zM658 36q-90 -70 -200 -70q-134 0 -234 89q-127 113 -127 362v491h291v-477q0 -111 23 -154q26 -49 103 -49q88 0 119 57q25 44 25 163v460h291v-908h-291v36z" />
    <glyph glyph-name="ucircumflex" unicode="&#xfb;" horiz-adv-x="1046" 
d="M658 36q-90 -70 -200 -70q-134 0 -234 89q-127 113 -127 362v491h291v-477q0 -111 23 -154q26 -49 103 -49q88 0 119 57q25 44 25 163v460h291v-908h-291v36zM700 995l-177 167l-177 -167l-220 101l311 317h172l311 -317z" />
    <glyph glyph-name="udieresis" unicode="&#xfc;" horiz-adv-x="1046" 
d="M658 36q-90 -70 -200 -70q-134 0 -234 89q-127 113 -127 362v491h291v-477q0 -111 23 -154q26 -49 103 -49q88 0 119 57q25 44 25 163v460h291v-908h-291v36zM716 1376q73 0 121 -53q40 -44 40 -103q0 -69 -52 -115q-46 -41 -109 -41q-67 0 -114 46t-47 112
q0 63 47.5 108.5t113.5 45.5zM330 1376q72 0 121 -53q40 -44 40 -103q0 -69 -52 -115q-46 -41 -109 -41q-68 0 -114.5 46t-46.5 113q0 65 52 112q46 41 109 41z" />
    <glyph glyph-name="yacute" unicode="&#xfd;" horiz-adv-x="973" 
d="M313 49l-344 859h308l196 -503l224 503h307l-620 -1386h-306zM844 1320l-352 -329l-196 105l280 358z" />
    <glyph glyph-name="thorn" unicode="&#xfe;" horiz-adv-x="1115" 
d="M99 1365h291v-502q109 79 227 79q198 0 334 -153q125 -140 125 -336q0 -225 -159 -369q-130 -118 -300 -118q-117 0 -227 78v-522h-291v1843zM583 680q-86 0 -141 -61q-55 -59 -55 -167q0 -117 68 -177q53 -47 130 -47q55 0 102 28q96 59 96 198q0 117 -69 177
q-55 49 -131 49z" />
    <glyph glyph-name="ydieresis" unicode="&#xff;" horiz-adv-x="973" 
d="M313 49l-344 859h308l196 -503l224 503h307l-620 -1386h-306zM680 1376q72 0 121 -53q40 -44 40 -103q0 -69 -52 -115q-46 -41 -109 -41q-68 0 -114.5 46t-46.5 113q0 65 52 112q46 41 109 41zM294 1376q72 0 121 -53q40 -44 40 -103q0 -69 -52 -115q-46 -41 -109 -41
q-67 0 -114 46t-47 112t52 113q46 41 109 41z" />
    <glyph glyph-name="Amacron" unicode="&#x100;" horiz-adv-x="1330" 
d="M922 301h-516l-105 -301h-320l510 1365h347l510 -1365h-321zM825 582l-161 459l-161 -459h322zM321 1757h688v-240h-688v240z" />
    <glyph glyph-name="amacron" unicode="&#x101;" horiz-adv-x="1112" 
d="M1016 0h-291v44q-110 -78 -227 -78q-116 0 -220 60q-108 63 -172 173q-67 116 -67 256q0 225 159 369q130 118 300 118q117 0 227 -78v44h291v-908zM529 680q-85 0 -143 -62q-54 -59 -54 -167q0 -114 69 -174q55 -49 131 -49q86 0 142 61q54 59 54 167q0 117 -68 177
q-53 47 -131 47zM208 1330h688v-240h-688v240z" />
    <glyph glyph-name="Abreve" unicode="&#x102;" horiz-adv-x="1330" 
d="M922 301h-516l-105 -301h-320l510 1365h347l510 -1365h-321zM825 582l-161 459l-161 -459h322zM327 1799l251 19q4 -102 20 -123q20 -28 61 -28q47 0 66 35q14 25 26 115l252 -19q-12 -100 -17.5 -123.5t-23.5 -58.5q-41 -81 -114 -130q-81 -53 -188 -53q-155 0 -253 105
q-70 76 -77 169q-2 22 -3 92z" />
    <glyph glyph-name="abreve" unicode="&#x103;" horiz-adv-x="1112" 
d="M1016 0h-291v44q-110 -78 -227 -78q-116 0 -220 60q-108 63 -172 173q-67 116 -67 256q0 225 159 369q130 118 300 118q117 0 227 -78v44h291v-908zM529 680q-85 0 -143 -62q-54 -59 -54 -167q0 -114 69 -174q55 -49 131 -49q86 0 142 61q54 59 54 167q0 117 -68 177
q-53 47 -131 47zM196 1370l251 19q4 -107 21 -130q20 -27 60 -27q49 0 72 47q6 13 20 110l252 -19q-12 -100 -17.5 -123.5t-23.5 -58.5q-41 -82 -114 -130q-81 -53 -188 -53q-155 0 -252 105q-71 76 -78 168q-2 21 -3 92z" />
    <glyph glyph-name="Aogonek" unicode="&#x104;" horiz-adv-x="1330" 
d="M1348 0q-58 -75 -58 -109q0 -14 16 -14q27 0 74 24l87 -205q-143 -50 -212 -50q-132 0 -202 77q-51 57 -51 133q0 64 55 144h-30l-105 301h-516l-105 -301h-320l510 1365h347zM825 582l-161 459l-161 -459h322z" />
    <glyph glyph-name="aogonek" unicode="&#x105;" horiz-adv-x="1112" 
d="M1016 0l-1 -2q-57 -73 -57 -107q0 -14 16 -14q27 0 74 24l87 -205q-143 -50 -212 -50q-132 0 -202 77q-51 57 -51 133q0 65 55 144v44q-110 -78 -227 -78q-116 0 -220 60q-108 63 -172 173q-67 116 -67 256q0 225 159 369q130 118 300 118q117 0 227 -78v44h291v-908z
M530 680q-55 0 -102 -28q-96 -58 -96 -197q0 -118 69 -178q55 -49 131 -49q86 0 142 61q54 59 54 167q0 117 -68 177q-53 47 -130 47z" />
    <glyph glyph-name="Cacute" unicode="&#x106;" horiz-adv-x="1381" 
d="M1123 932q-67 74 -121 114q-100 71 -223 71q-186 0 -309 -139q-111 -124 -111 -296q0 -197 142 -325q121 -109 280 -109q98 0 177 42.5t171 145.5l216 -201q-100 -106 -188 -161q-169 -108 -373 -108q-203 0 -375 102q-162 95 -257 256q-98 167 -98 358q0 190 97 357
q97 166 262 261q171 99 372 99q160 0 290.5 -62.5t263.5 -203.5zM1141 1748l-351 -328l-197 104l280 358z" />
    <glyph glyph-name="cacute" unicode="&#x107;" horiz-adv-x="935" 
d="M867 1320l-351 -329l-197 105l280 358zM918 770l-179 -197q-59 61 -102.5 84t-99.5 23q-94 0 -151 -62q-54 -59 -54 -164q0 -117 67 -177q56 -49 138 -49q60 0 107 26t100 88l179 -198q-170 -178 -387 -178q-229 0 -374 163q-123 138 -123 325q0 218 158 361
q140 127 338 127q111 0 201.5 -40.5t181.5 -131.5z" />
    <glyph glyph-name="Ccircumflex" unicode="&#x108;" horiz-adv-x="1381" 
d="M1123 932q-67 74 -121 114q-100 71 -223 71q-186 0 -309 -139q-111 -124 -111 -296q0 -197 142 -325q121 -109 280 -109q98 0 177 42.5t171 145.5l216 -201q-100 -106 -188 -161q-169 -108 -373 -108q-203 0 -375 102q-162 95 -257 256q-98 167 -98 358q0 190 97 357
q97 166 262 261q171 99 372 99q160 0 290.5 -62.5t263.5 -203.5zM583 1421l-221 102l312 318h172l312 -318l-221 -102l-177 159z" />
    <glyph glyph-name="ccircumflex" unicode="&#x109;" horiz-adv-x="935" 
d="M918 770l-179 -197q-61 62 -103 84.5t-99 22.5q-94 0 -151 -62q-54 -59 -54 -163q0 -118 67 -178q56 -49 139 -49q60 0 105 25t101 89l179 -198q-70 -71 -129 -107q-115 -71 -257 -71q-230 0 -375 163q-123 138 -123 325q0 218 158 362q140 126 339 126q110 0 196 -38.5
t186 -133.5zM686 995l-177 167l-177 -167l-220 101l311 317h172l311 -317z" />
    <glyph glyph-name="Cdotaccent" unicode="&#x10a;" horiz-adv-x="1381" 
d="M1123 932q-67 74 -121 114q-100 71 -223 71q-186 0 -309 -139q-111 -124 -111 -296q0 -197 142 -325q121 -109 280 -109q98 0 177 42.5t171 145.5l216 -201q-100 -106 -188 -161q-169 -108 -373 -108q-203 0 -375 102q-162 95 -257 256q-98 167 -98 358q0 190 97 357
q97 166 262 261q171 99 372 99q160 0 290.5 -62.5t263.5 -203.5zM777 1805q79 0 131 -57q43 -47 43 -111q0 -74 -56 -124q-50 -44 -119 -44q-77 0 -129 57q-43 48 -43 114q0 70 56 120q49 45 117 45z" />
    <glyph glyph-name="cdotaccent" unicode="&#x10b;" horiz-adv-x="935" 
d="M918 770l-179 -197q-59 61 -102.5 84t-99.5 23q-94 0 -151 -62q-54 -59 -54 -164q0 -117 67 -177q56 -49 138 -49q60 0 107 26t100 88l179 -198q-170 -178 -387 -178q-229 0 -374 163q-123 138 -123 325q0 218 158 361q140 127 338 127q111 0 201.5 -40.5t181.5 -131.5z
M515 1389q79 0 131 -57q43 -48 43 -112q0 -74 -56 -123q-50 -45 -119 -45q-77 0 -129 57q-43 48 -43 114q0 71 56 121q49 45 117 45z" />
    <glyph glyph-name="Ccaron" unicode="&#x10c;" horiz-adv-x="1381" 
d="M1123 932q-67 74 -121 114q-100 71 -223 71q-186 0 -309 -139q-111 -124 -111 -296q0 -197 142 -325q121 -109 280 -109q98 0 177 42.5t171 145.5l216 -201q-100 -106 -188 -161q-169 -108 -373 -108q-203 0 -375 102q-162 95 -257 256q-98 167 -98 358q0 190 97 357
q97 166 262 261q171 99 372 99q160 0 290.5 -62.5t263.5 -203.5zM583 1848l177 -159l177 159l221 -102l-312 -318h-172l-312 318z" />
    <glyph glyph-name="ccaron" unicode="&#x10d;" horiz-adv-x="932" 
d="M918 770l-179 -197q-59 61 -102.5 84t-99.5 23q-94 0 -151 -62q-54 -59 -54 -164q0 -117 67 -177q56 -49 138 -49q60 0 107 26t100 88l179 -198q-170 -178 -387 -178q-229 0 -374 163q-123 138 -123 325q0 218 158 361q140 127 338 127q111 0 201.5 -40.5t181.5 -131.5z
M686 1437l220 -101l-311 -317h-172l-311 317l220 101l177 -167z" />
    <glyph glyph-name="Dcaron" unicode="&#x10e;" horiz-adv-x="1273" 
d="M131 1365h336q312 0 507 -152q245 -191 245 -529q0 -341 -245 -532q-40 -31 -72 -49q-191 -103 -435 -103h-336v1365zM434 1084v-803h39q110 0 201 33.5t145 94.5q96 106 96 272q0 239 -182 343q-105 60 -260 60h-39zM420 1848l177 -159l177 159l221 -102l-311 -318h-173
l-312 318z" />
    <glyph glyph-name="dcaron" unicode="&#x10f;" horiz-adv-x="1426" 
d="M1016 0h-291v44q-109 -78 -227 -78q-116 0 -220 60q-108 63 -172 173q-67 116 -67 256q0 225 159 369q130 118 300 118q118 0 227 -79v502h291v-1365zM529 680q-84 0 -143 -62q-54 -58 -54 -166q0 -115 69 -175q55 -49 131 -49q86 0 142 61q54 59 54 167q0 117 -68 177
q-53 47 -131 47zM1198 1451l272 -76l-186 -401l-218 63z" />
    <glyph glyph-name="Dcroat" unicode="&#x110;" horiz-adv-x="1298" 
d="M157 869v496h336q312 0 507 -152q245 -191 245 -530q0 -341 -245 -531q-40 -31 -72 -49q-191 -103 -435 -103h-336v592h-124v277h124zM460 869h292v-277h-292v-311h40q108 0 199.5 33.5t146.5 93.5q95 106 95 273q0 239 -182 342q-106 61 -259 61h-40v-215z" />
    <glyph glyph-name="dcroat" unicode="&#x111;" horiz-adv-x="1121" 
d="M725 1006h-219v251h219v108h291v-108h110v-251h-110v-1006h-291v44q-109 -78 -227 -78q-116 0 -220 60q-109 63 -172 173q-67 116 -67 255q0 225 159 369q130 118 300 118q118 0 227 -78v143zM529 680q-84 0 -143 -62q-54 -58 -54 -166q0 -115 69 -175q55 -49 131 -49
q86 0 142 61q54 59 54 167q0 117 -68 177q-53 47 -131 47z" />
    <glyph glyph-name="Emacron" unicode="&#x112;" horiz-adv-x="1014" 
d="M933 1365v-278h-501v-256h446v-279h-446v-271h520v-281h-821v1365h802zM198 1757h688v-240h-688v240z" />
    <glyph glyph-name="emacron" unicode="&#x113;" horiz-adv-x="1011" 
d="M949 211q-159 -245 -428 -245q-219 0 -357 155q-125 140 -125 334q0 222 158 366q132 121 313 121q205 0 340 -151q123 -137 123 -357q0 -28 -3 -75h-633q26 -73 68.5 -106t110.5 -33q113 0 172 92zM684 550q-24 74 -64.5 107t-108.5 33q-70 0 -111.5 -33.5t-62.5 -106.5
h347zM161 1330h689v-240h-689v240z" />
    <glyph glyph-name="Ebreve" unicode="&#x114;" horiz-adv-x="1013" 
d="M933 1365v-278h-501v-256h446v-279h-446v-271h520v-281h-821v1365h802zM203 1799l252 19q4 -102 20 -123q20 -28 61 -28q47 0 66 35q13 25 26 115l252 -19q-13 -100 -18 -123.5t-23 -58.5q-41 -81 -114 -130q-81 -53 -188 -53q-155 0 -253 105q-70 76 -77 169
q-2 22 -4 92z" />
    <glyph glyph-name="ebreve" unicode="&#x115;" horiz-adv-x="1011" 
d="M949 211q-159 -245 -428 -245q-219 0 -357 155q-125 140 -125 334q0 222 158 366q132 121 313 121q205 0 340 -151q123 -137 123 -357q0 -28 -3 -75h-633q26 -73 68.5 -106t110.5 -33q113 0 172 92zM684 550q-24 74 -64.5 107t-108.5 33q-70 0 -111.5 -33.5t-62.5 -106.5
h347zM168 1370l251 19q4 -107 21 -130q20 -27 60 -27q50 0 72 47q7 13 21 110l251 -19q-12 -100 -17.5 -123.5t-23.5 -58.5q-41 -82 -114 -130q-81 -53 -188 -53q-155 0 -252 105q-71 76 -78 168q-1 21 -3 92z" />
    <glyph glyph-name="Edotaccent" unicode="&#x116;" horiz-adv-x="1014" 
d="M933 1365v-278h-501v-256h446v-279h-446v-271h520v-281h-821v1365h802zM541 1805q79 0 131 -57q43 -47 43 -111q0 -74 -56 -124q-50 -44 -117 -44q-73 0 -123.5 49.5t-50.5 121.5q0 70 56 120q49 45 117 45z" />
    <glyph glyph-name="edotaccent" unicode="&#x117;" horiz-adv-x="1011" 
d="M949 211q-159 -245 -428 -245q-219 0 -357 155q-125 140 -125 334q0 222 158 366q132 121 313 121q205 0 340 -151q123 -137 123 -357q0 -28 -3 -75h-633q26 -73 68.5 -106t110.5 -33q113 0 172 92zM684 550q-24 74 -64.5 107t-108.5 33q-70 0 -111.5 -33.5t-62.5 -106.5
h347zM504 1389q79 0 131 -57q43 -48 43 -111q0 -74 -56 -124q-50 -45 -119 -45q-77 0 -129 57q-43 48 -43 114q0 70 56 121q49 45 117 45z" />
    <glyph glyph-name="Eogonek" unicode="&#x118;" horiz-adv-x="1014" 
d="M952 0q-2 -2 -4 -6q-54 -68 -54 -103q0 -14 15 -14q28 0 75 24l87 -205q-143 -50 -212 -50q-131 0 -202 77q-51 57 -51 133q0 64 55 144h-530v1365h802v-278h-501v-256h446v-279h-446v-271h520v-281z" />
    <glyph glyph-name="eogonek" unicode="&#x119;" horiz-adv-x="1011" 
d="M648 -17q-45 -62 -45 -93q0 -14 15 -14q28 0 75 25l87 -205q-93 -33 -130.5 -42t-81.5 -9q-132 0 -202 78q-51 57 -51 131q0 65 48 136q-95 32 -167 98q-157 144 -157 366q0 223 158 367q132 121 313 121q205 0 340 -151q123 -137 123 -357q0 -28 -3 -75h-633
q26 -73 68.5 -106t110.5 -33q113 0 172 92l261 -101q-120 -186 -301 -228zM684 550q-24 74 -64.5 107t-108.5 33q-70 0 -111.5 -33.5t-62.5 -106.5h347z" />
    <glyph glyph-name="Ecaron" unicode="&#x11a;" horiz-adv-x="1014" 
d="M933 1365v-278h-501v-256h446v-279h-446v-271h520v-281h-821v1365h802zM365 1848l177 -159l177 159l221 -102l-311 -318h-173l-312 318z" />
    <glyph glyph-name="ecaron" unicode="&#x11b;" horiz-adv-x="1011" 
d="M949 211q-159 -245 -428 -245q-219 0 -357 155q-125 140 -125 334q0 222 158 366q132 121 313 121q205 0 340 -151q123 -137 123 -357q0 -28 -3 -75h-633q26 -73 68.5 -106t110.5 -33q113 0 172 92zM684 550q-24 74 -64.5 107t-108.5 33q-70 0 -111.5 -33.5t-62.5 -106.5
h347zM682 1437l220 -101l-311 -317h-172l-311 317l220 101l177 -167z" />
    <glyph glyph-name="Gcircumflex" unicode="&#x11c;" horiz-adv-x="1493" 
d="M756 778h680v-143q0 -217 -88 -369q-79 -136 -209 -210q-158 -90 -347 -90q-210 0 -384 102q-161 95 -256 256q-98 167 -98 358t97 358q97 165 261 260q172 99 378 99q157 0 286.5 -58.5t273.5 -194.5l-216 -201q-72 72 -128 108q-99 64 -219 64q-195 0 -317 -139
q-111 -124 -111 -296q0 -197 141 -324q121 -110 290 -110q128 0 213 65.5t117 187.5h-364v277zM581 1421l-221 102l312 318h173l311 -318l-221 -102l-177 159z" />
    <glyph glyph-name="gcircumflex" unicode="&#x11d;" horiz-adv-x="1112" 
d="M724 44q-112 -78 -227 -78q-197 0 -334 153q-125 139 -125 336q0 225 160 369q130 118 300 118q114 0 226 -78v44h292v-926q0 -234 -152 -370q-140 -124 -348 -124q-140 0 -249.5 58t-220.5 190l198 186q11 -12 29 -35q58 -72 115.5 -104.5t127.5 -32.5q101 0 156 61
q52 58 52 171v62zM528 680q-84 0 -143 -62q-54 -58 -54 -166q0 -115 69 -175q55 -49 131 -49q86 0 142 61q54 59 54 167q0 117 -68 177q-53 47 -131 47zM705 995l-178 167l-177 -167l-219 101l311 317h172l310 -317z" />
    <glyph glyph-name="Gbreve" unicode="&#x11e;" horiz-adv-x="1493" 
d="M756 778h680v-143q0 -217 -88 -369q-79 -136 -209 -210q-158 -90 -347 -90q-210 0 -384 102q-161 95 -256 256q-98 167 -98 358t97 358q97 165 261 260q172 99 378 99q157 0 286.5 -58.5t273.5 -194.5l-216 -201q-72 72 -128 108q-99 64 -219 64q-195 0 -317 -139
q-111 -124 -111 -296q0 -197 141 -324q121 -110 290 -110q128 0 213 65.5t117 187.5h-364v277zM460 1799l251 19q5 -103 20 -123q21 -28 62 -28q46 0 65 35q14 24 27 115l251 -19q-11 -96 -17 -121.5t-23 -60.5q-41 -81 -115 -130q-81 -53 -188 -53q-155 0 -252 105
q-71 76 -78 169q-1 21 -3 92z" />
    <glyph glyph-name="gbreve" unicode="&#x11f;" horiz-adv-x="1112" 
d="M724 44q-112 -78 -227 -78q-197 0 -334 153q-125 139 -125 336q0 225 160 369q130 118 300 118q114 0 226 -78v44h292v-926q0 -234 -152 -370q-140 -124 -348 -124q-140 0 -249.5 58t-220.5 190l198 186q11 -12 29 -35q58 -72 115.5 -104.5t127.5 -32.5q101 0 156 61
q52 58 52 171v62zM528 680q-84 0 -143 -62q-54 -58 -54 -166q0 -115 69 -175q55 -49 131 -49q86 0 142 61q54 59 54 167q0 117 -68 177q-53 47 -131 47zM196 1370l251 19q4 -107 21 -130q20 -27 60 -27q49 0 72 47q6 13 21 110l251 -19q-12 -100 -17.5 -123.5t-23.5 -58.5
q-41 -82 -114 -130q-81 -53 -188 -53q-155 0 -252 105q-71 76 -78 168q-2 21 -3 92z" />
    <glyph glyph-name="Gdotaccent" unicode="&#x120;" horiz-adv-x="1493" 
d="M756 778h680v-143q0 -217 -88 -369q-79 -136 -209 -210q-158 -90 -347 -90q-210 0 -384 102q-161 95 -256 256q-98 167 -98 358t97 358q97 165 261 260q172 99 378 99q157 0 286.5 -58.5t273.5 -194.5l-216 -201q-72 72 -128 108q-99 64 -219 64q-195 0 -317 -139
q-111 -124 -111 -296q0 -197 141 -324q121 -110 290 -110q128 0 213 65.5t117 187.5h-364v277zM792 1805q79 0 131 -57q43 -47 43 -111q0 -74 -56 -124q-50 -44 -117 -44q-73 0 -123.5 49.5t-50.5 121.5q0 70 56 120q49 45 117 45z" />
    <glyph glyph-name="gdotaccent" unicode="&#x121;" horiz-adv-x="1112" 
d="M724 44q-112 -78 -227 -78q-197 0 -334 153q-125 139 -125 336q0 225 160 369q130 118 300 118q114 0 226 -78v44h292v-926q0 -234 -152 -370q-140 -124 -348 -124q-140 0 -249.5 58t-220.5 190l198 186q11 -12 29 -35q58 -72 115.5 -104.5t127.5 -32.5q101 0 156 61
q52 58 52 171v62zM528 680q-84 0 -143 -62q-54 -58 -54 -166q0 -115 69 -175q55 -49 131 -49q86 0 142 61q54 59 54 167q0 117 -68 177q-53 47 -131 47zM528 1389q79 0 131 -57q43 -48 43 -111q0 -74 -56 -124q-50 -45 -119 -45q-77 0 -129 57q-43 48 -43 114q0 70 56 121
q49 45 117 45z" />
    <glyph glyph-name="Gcommaaccent" unicode="&#x122;" horiz-adv-x="1493" 
d="M756 778h680v-143q0 -217 -88 -369q-79 -136 -209 -210q-158 -90 -347 -90q-210 0 -384 102q-161 95 -256 256q-98 167 -98 358t97 358q97 165 261 260q172 99 378 99q157 0 286.5 -58.5t273.5 -194.5l-216 -201q-72 72 -128 108q-99 64 -219 64q-195 0 -317 -139
q-111 -124 -111 -296q0 -197 141 -324q121 -110 290 -110q128 0 213 65.5t117 187.5h-364v277zM676 -33l272 -77l-186 -401l-218 64z" />
    <glyph glyph-name="gcommaaccent" unicode="&#x123;" horiz-adv-x="1112" 
d="M724 44q-112 -78 -227 -78q-197 0 -334 153q-125 139 -125 336q0 225 160 369q130 118 300 118q114 0 226 -78v44h292v-926q0 -234 -152 -370q-140 -124 -348 -124q-140 0 -249.5 58t-220.5 190l198 186q11 -12 29 -35q58 -72 115.5 -104.5t127.5 -32.5q101 0 156 61
q52 58 52 171v62zM528 680q-84 0 -143 -62q-54 -58 -54 -166q0 -115 69 -175q55 -49 131 -49q86 0 142 61q54 59 54 167q0 117 -68 177q-53 47 -131 47zM650 972l-272 77l186 401l218 -64z" />
    <glyph glyph-name="Hcircumflex" unicode="&#x124;" horiz-adv-x="1339" 
d="M434 1365v-533h470v533h303v-1365h-303v551h-470v-551h-303v1365h303zM492 1421l-221 102l312 318h172l312 -318l-221 -102l-177 159z" />
    <glyph glyph-name="hcircumflex" unicode="&#x125;" horiz-adv-x="1046" 
d="M388 871q90 71 200 71q133 0 234 -89q127 -113 127 -362v-491h-291v477q0 110 -23 154q-26 49 -103 49q-88 0 -119 -57q-25 -44 -25 -164v-459h-291v1365h291v-494zM348 1421l-221 102l312 318h173l312 -318l-221 -102l-178 159z" />
    <glyph glyph-name="Hbar" unicode="&#x126;" horiz-adv-x="1328" 
d="M899 1258v107h303v-107h112v-251h-112v-1007h-303v551h-469v-551h-303v1007h-112v251h112v107h303v-107h469zM899 1007h-469v-175h469v175z" />
    <glyph glyph-name="hbar" unicode="&#x127;" horiz-adv-x="1033" 
d="M84 1006h-110v251h110v108h291v-108h221v-251h-221v-135q89 70 200 70q135 0 235 -89q127 -112 127 -361v-491h-291v477q0 110 -24 154q-26 49 -102 49q-88 0 -120 -57q-25 -43 -25 -164v-459h-291v1006z" />
    <glyph glyph-name="Itilde" unicode="&#x128;" horiz-adv-x="566" 
d="M435 1365v-1365h-303v1365h303zM388 1805l242 -52q-9 -116 -43 -172q-25 -43 -75 -68.5t-109 -25.5q-81 0 -166 41q-24 12 -38 12q-10 0 -14.5 -12t-12.5 -58l-236 52q11 113 49 172q27 42 75 68t99 26q84 0 174 -47q21 -11 33 -11q11 0 15 13t7 62z" />
    <glyph glyph-name="itilde" unicode="&#x129;" horiz-adv-x="487" 
d="M388 908v-908h-291v908h291zM348 1377l242 -52q-9 -116 -43 -172q-25 -43 -75.5 -68.5t-108.5 -25.5q-82 0 -166 41q-24 12 -38 12q-10 0 -14.5 -12t-12.5 -57l-236 51q11 113 49 173q27 41 75 67t99 26q83 0 174 -47q21 -11 33 -11q11 0 15 13.5t7 61.5z" />
    <glyph glyph-name="Imacron" unicode="&#x12a;" horiz-adv-x="566" 
d="M435 1365v-1365h-303v1365h303zM-61 1757h688v-240h-688v240z" />
    <glyph glyph-name="imacron" unicode="&#x12b;" horiz-adv-x="487" 
d="M388 908v-908h-291v908h291zM-101 1330h688v-240h-688v240z" />
    <glyph glyph-name="Ibreve" unicode="&#x12c;" horiz-adv-x="566" 
d="M435 1365v-1365h-303v1365h303zM-55 1799l251 19q5 -102 20 -123q21 -28 62 -28q46 0 65 35q14 24 27 115l251 -19q-12 -100 -17 -123.5t-23 -58.5q-42 -81 -115 -130q-81 -53 -188 -53q-155 0 -252 105q-71 76 -78 169q-1 21 -3 92z" />
    <glyph glyph-name="ibreve" unicode="&#x12d;" horiz-adv-x="487" 
d="M388 908v-908h-291v908h291zM-95 1370l251 19q5 -107 21 -130q20 -27 60 -27q50 0 73 47q6 13 20 110l251 -19q-12 -100 -17.5 -123.5t-22.5 -58.5q-42 -82 -115 -130q-81 -53 -188 -53q-155 0 -252 105q-71 75 -78 168q-1 21 -3 92z" />
    <glyph glyph-name="Iogonek" unicode="&#x12e;" horiz-adv-x="566" 
d="M434 0q-58 -75 -58 -110q0 -14 16 -14q28 0 74 25l87 -205q-92 -33 -130 -42t-82 -9q-132 0 -202 78q-51 57 -51 132q0 65 55 145h-12v1365h303v-1365z" />
    <glyph glyph-name="iogonek" unicode="&#x12f;" horiz-adv-x="487" 
d="M389 0l-1 -2q-57 -73 -57 -107q0 -14 16 -14q27 0 74 24l87 -205q-144 -50 -212 -50q-132 0 -202 77q-51 57 -51 132q0 68 55 145v908h291v-908zM243 1388q79 0 131 -57q43 -48 43 -112q0 -73 -56 -123q-50 -45 -117 -45q-73 0 -123.5 49.5t-50.5 121.5q0 71 56 121
q49 45 117 45z" />
    <glyph glyph-name="Idotaccent" unicode="&#x130;" horiz-adv-x="566" 
d="M435 1365v-1365h-303v1365h303zM283 1805q79 0 131 -57q43 -48 43 -111q0 -74 -56 -124q-50 -44 -117 -44q-73 0 -123.5 49.5t-50.5 121.5q0 70 56 120q49 45 117 45z" />
    <glyph glyph-name="dotlessi" unicode="&#x131;" horiz-adv-x="487" 
d="M389 908v-908h-291v908h291z" />
    <glyph glyph-name="IJ" unicode="&#x132;" horiz-adv-x="1428" 
d="M434 1365v-1365h-303v1365h303zM1296 1365v-939q0 -100 -13 -162.5t-47 -122.5q-44 -78 -122 -122q-87 -51 -198 -51q-103 0 -191 43t-186 142l167 196q114 -126 203 -126q47 0 75 32q39 44 39 171v939h273z" />
    <glyph glyph-name="ij" unicode="&#x133;" horiz-adv-x="980" 
d="M243 1388q79 0 131 -57q43 -48 43 -111q0 -74 -56 -124q-50 -45 -117 -45q-73 0 -123.5 49.5t-50.5 121.5q0 71 56 121q49 45 117 45zM389 908v-908h-291v908h291zM882 908v-1085q0 -179 -91 -260q-74 -65 -185 -65q-75 0 -160 30v268q73 -29 110 -29q20 0 27.5 14.5
t7.5 52.5v1074h291zM736 1388q79 0 131 -57q43 -48 43 -111q0 -74 -56 -124q-50 -45 -117 -45q-73 0 -123.5 49.5t-50.5 121.5q0 71 56 121q49 45 117 45z" />
    <glyph glyph-name="Jcircumflex" unicode="&#x134;" horiz-adv-x="883" 
d="M751 1365v-936q0 -99 -14 -163t-48 -125q-46 -80 -124 -124q-90 -51 -204 -51q-109 0 -200 44.5t-187 144.5l180 218q112 -125 193 -125q101 0 101 181v936h303zM353 1421l-221 102l312 318h172l312 -318l-221 -102l-177 159z" />
    <glyph glyph-name="jcircumflex" unicode="&#x135;" horiz-adv-x="500" 
d="M401 908v-1085q0 -179 -91 -260q-73 -65 -185 -65q-74 0 -159 30v268q73 -29 109 -29q20 0 27.5 14.5t7.5 52.5v1074h291zM406 995l-177 167l-177 -167l-220 101l311 317h172l310 -317z" />
    <glyph glyph-name="Kcommaaccent" unicode="&#x136;" horiz-adv-x="1262" 
d="M737 785l523 -785h-358l-372 565l-96 -103v-462h-303v1365h303v-491l459 491h387zM581 -33l272 -77l-186 -401l-218 64z" />
    <glyph glyph-name="kcommaaccent" unicode="&#x137;" horiz-adv-x="1024" 
d="M640 522l413 -522h-363l-252 328l-50 -49v-279h-291v1365h291v-711l260 254h391zM440 -33l271 -77l-185 -401l-218 64z" />
    <glyph glyph-name="kgreenlandic" unicode="&#x138;" horiz-adv-x="1024" 
d="M640 522l413 -522h-363l-252 328l-50 -49v-279h-291v908h291v-254l260 254h391z" />
    <glyph glyph-name="Lacute" unicode="&#x139;" horiz-adv-x="909" 
d="M132 1365h303v-1084h481v-281h-784v1365zM663 1748l-351 -328l-197 104l280 358z" />
    <glyph glyph-name="lacute" unicode="&#x13a;" horiz-adv-x="489" 
d="M619 1753l-351 -328l-197 104l280 358zM390 0h-291v1365h291v-1365z" />
    <glyph glyph-name="Lcommaaccent" unicode="&#x13b;" horiz-adv-x="913" 
d="M131 1365h303v-1084h481v-281h-784v1365zM460 -33l272 -77l-186 -401l-218 64z" />
    <glyph glyph-name="lcommaaccent" unicode="&#x13c;" horiz-adv-x="489" 
d="M390 0h-291v1365h291v-1365zM146 -33l272 -77l-186 -401l-218 64z" />
    <glyph glyph-name="Lcaron" unicode="&#x13d;" horiz-adv-x="913" 
d="M131 1365h303v-1084h481v-281h-784v1365zM645 1443l272 -76l-186 -401l-217 63z" />
    <glyph glyph-name="lcaron" unicode="&#x13e;" horiz-adv-x="800" 
d="M390 0h-291v1365h291v-1365zM572 1451l272 -76l-186 -401l-218 63z" />
    <glyph glyph-name="Ldot" unicode="&#x13f;" horiz-adv-x="913" 
d="M131 1365h303v-1084h481v-281h-784v1365zM720 852q79 0 131 -57q43 -48 43 -111q0 -74 -56 -124q-50 -45 -119 -45q-77 0 -129 57q-43 48 -43 114q0 70 56 121q49 45 117 45z" />
    <glyph glyph-name="ldot" unicode="&#x140;" horiz-adv-x="821" 
d="M654 852q79 0 131 -57q43 -48 43 -111q0 -74 -56 -124q-50 -45 -119 -45q-77 0 -129 57q-43 48 -43 114q0 70 56 121q49 45 117 45zM390 0h-291v1365h291v-1365z" />
    <glyph glyph-name="Lslash" unicode="&#x141;" horiz-adv-x="941" 
d="M463 944l212 129v-288l-212 -129v-375h481v-281h-784v474l-134 -81v288l134 81v603h303v-421z" />
    <glyph glyph-name="lslash" unicode="&#x142;" horiz-adv-x="573" 
d="M141 485l-122 -76v291l122 76v589h291v-409l123 77v-291l-123 -76v-666h-291v485z" />
    <glyph glyph-name="Nacute" unicode="&#x143;" horiz-adv-x="1450" 
d="M131 0v1365h253l631 -828v828h303v-1365h-253l-631 828v-828h-303zM1138 1748l-352 -328l-197 104l280 358z" />
    <glyph glyph-name="nacute" unicode="&#x144;" horiz-adv-x="1046" 
d="M910 1320l-352 -329l-197 105l280 358zM388 871q90 71 200 71q134 0 234 -89q127 -113 127 -362v-491h-291v477q0 111 -23 154q-26 49 -103 49q-88 0 -119 -57q-25 -44 -25 -163v-460h-291v908h291v-37z" />
    <glyph glyph-name="Ncommaaccent" unicode="&#x145;" horiz-adv-x="1450" 
d="M131 0v1365h253l631 -828v828h303v-1365h-253l-631 828v-828h-303zM656 -33l271 -77l-185 -401l-218 64z" />
    <glyph glyph-name="ncommaaccent" unicode="&#x146;" horiz-adv-x="1046" 
d="M388 871q90 71 200 71q134 0 234 -89q127 -113 127 -362v-491h-291v477q0 111 -23 154q-26 49 -103 49q-88 0 -119 -57q-25 -44 -25 -163v-460h-291v908h291v-37zM454 -33l272 -77l-186 -401l-218 64z" />
    <glyph glyph-name="Ncaron" unicode="&#x147;" horiz-adv-x="1450" 
d="M131 0v1365h253l631 -828v828h303v-1365h-253l-631 828v-828h-303zM582 1848l177 -159l177 159l221 -102l-312 -318h-172l-312 318z" />
    <glyph glyph-name="ncaron" unicode="&#x148;" horiz-adv-x="1046" 
d="M388 871q90 71 200 71q134 0 234 -89q127 -113 127 -362v-491h-291v477q0 111 -23 154q-26 49 -103 49q-88 0 -119 -57q-25 -44 -25 -163v-460h-291v908h291v-37zM710 1437l220 -101l-311 -317h-172l-310 317l219 101l177 -167z" />
    <glyph glyph-name="napostrophe" unicode="&#x149;" horiz-adv-x="1258" 
d="M180 1420l260 -87l-259 -541l-213 79zM600 871q90 71 200 71q134 0 234 -89q127 -113 127 -362v-491h-291v477q0 111 -23 154q-26 49 -103 49q-39 0 -72 -15.5t-47 -41.5q-25 -44 -25 -163v-460h-291v908h291v-37z" />
    <glyph glyph-name="Eng" unicode="&#x14a;" horiz-adv-x="1450" 
d="M1318 1365v-1365q-3 -115 -47 -195q-29 -55 -88 -87q-63 -34 -141 -34q-75 0 -160 30v268q73 -29 109 -29q20 0 28 14.5t8 52.5v30l-593 778v-828h-303v1365h253l631 -828v828h303z" />
    <glyph glyph-name="eng" unicode="&#x14b;" horiz-adv-x="1046" 
d="M388 871q91 71 200 71q155 0 260 -115q52 -56 72.5 -120t27.5 -186q10 -175 10 -339q0 -152 -11.5 -234.5t-40.5 -138.5q-30 -57 -89 -89q-66 -36 -144 -36q-74 0 -159 30v268q73 -29 109 -29q19 0 27 14.5t8 51.5v351v107q0 111 -23 154q-26 49 -102 49q-88 0 -120 -57
q-25 -44 -25 -163v-460h-291v908h291v-37z" />
    <glyph glyph-name="Omacron" unicode="&#x14c;" horiz-adv-x="1563" 
d="M782 1399q195 0 359 -95q172 -99 270 -264q99 -167 99 -358q0 -187 -95 -351q-95 -165 -263 -264q-173 -101 -376 -101q-191 0 -364 101q-168 99 -263 264t-95 362q0 186 99 347q105 171 270 264q168 95 359 95zM779 1117q-182 0 -309 -141q-111 -123 -111 -301
q0 -113 57 -212t159 -158q99 -57 207 -57t207 57q102 59 159 158q57 100 57 218q0 197 -143 327q-119 109 -283 109zM438 1757h688v-240h-688v240z" />
    <glyph glyph-name="omacron" unicode="&#x14d;" horiz-adv-x="1065" 
d="M539 942q218 0 364 -162q123 -137 123 -325q0 -219 -159 -363q-140 -126 -335 -126q-225 0 -370 162q-123 138 -123 327q0 184 116 317q149 170 384 170zM531 680q-56 0 -103 -28q-96 -58 -96 -198q0 -117 68 -177q56 -49 133 -49q88 0 146 62q54 59 54 166
q0 116 -68 175q-55 49 -134 49zM189 1330h688v-240h-688v240z" />
    <glyph glyph-name="Obreve" unicode="&#x14e;" horiz-adv-x="1563" 
d="M782 1399q195 0 359 -95q172 -99 270 -264q99 -167 99 -358q0 -187 -95 -351q-95 -165 -263 -264q-173 -101 -376 -101q-191 0 -364 101q-168 99 -263 264t-95 362q0 186 99 347q105 171 270 264q168 95 359 95zM779 1117q-182 0 -309 -141q-111 -123 -111 -301
q0 -113 57 -212t159 -158q99 -57 207 -57t207 57q102 59 159 158q57 100 57 218q0 197 -143 327q-119 109 -283 109zM444 1799l251 19q5 -102 20 -123q21 -28 62 -28q46 0 65 35q14 24 27 115l251 -19q-12 -100 -17.5 -123.5t-23.5 -58.5q-41 -81 -114 -130
q-81 -53 -188 -53q-155 0 -252 105q-71 76 -78 169q-1 21 -3 92z" />
    <glyph glyph-name="obreve" unicode="&#x14f;" horiz-adv-x="1065" 
d="M539 942q218 0 364 -162q123 -137 123 -325q0 -219 -159 -363q-140 -126 -335 -126q-225 0 -370 162q-123 138 -123 327q0 184 116 317q149 170 384 170zM531 680q-56 0 -103 -28q-96 -58 -96 -198q0 -117 68 -177q56 -49 133 -49q88 0 146 62q54 59 54 166
q0 116 -68 175q-55 49 -134 49zM195 1370l251 19q4 -107 21 -130q20 -27 60 -27q49 0 72 47q6 13 20 110l252 -19q-13 -100 -18 -123.5t-23 -58.5q-41 -82 -114 -130q-81 -53 -188 -53q-155 0 -253 105q-70 76 -77 168q-2 21 -3 92z" />
    <glyph glyph-name="Ohungarumlaut" unicode="&#x150;" horiz-adv-x="1563" 
d="M986 1760l84 118l235 -127l-350 -327l-147 85l133 187l-293 -273l-166 99l278 356zM782 1399q195 0 359 -95q172 -99 270 -264q99 -167 99 -358q0 -187 -95 -351q-95 -165 -263 -264q-173 -101 -376 -101q-191 0 -364 101q-168 99 -263 264t-95 362q0 186 99 347
q105 171 270 264q168 95 359 95zM779 1117q-182 0 -309 -141q-111 -123 -111 -301q0 -113 57 -212t159 -158q99 -57 207 -57t207 57q102 59 159 158q57 100 57 218q0 197 -143 327q-119 109 -283 109z" />
    <glyph glyph-name="ohungarumlaut" unicode="&#x151;" horiz-adv-x="1098" 
d="M740 1327l84 118l235 -126l-350 -327l-147 84l133 188l-293 -273l-165 99l278 355zM541 942q216 0 362 -162q123 -137 123 -325q0 -219 -159 -363q-140 -126 -334 -126q-226 0 -371 162q-123 138 -123 330q0 212 159 358q138 126 343 126zM529 680q-85 0 -143 -62
q-54 -59 -54 -167q0 -114 68 -174q56 -49 133 -49q88 0 146 62q54 59 54 166q0 116 -68 175q-55 49 -136 49z" />
    <glyph glyph-name="OE" unicode="&#x152;" horiz-adv-x="2087" 
d="M2026 0h-821v104q-195 -138 -414 -138q-205 0 -379 101q-167 98 -263 264q-95 164 -95 351q0 190 99 358t270 264q169 95 367 95q114 0 211 -32t204 -105v103h802v-278h-501v-256h446v-279h-446v-271h520v-281zM779 1117q-182 0 -309 -140q-111 -124 -111 -301
q0 -92 39 -176.5t109 -145.5q122 -106 275 -106q108 0 207 57q102 59 159 158q57 101 57 219q0 196 -143 327q-119 108 -283 108z" />
    <glyph glyph-name="oe" unicode="&#x153;" horiz-adv-x="1705" 
d="M877 806q135 136 325 136q207 0 342 -151q123 -138 123 -354q0 -26 -3 -78h-633q26 -73 68.5 -106t110.5 -33q113 0 172 92l261 -101q-158 -245 -431 -245q-196 0 -335 136q-144 -136 -341 -136q-229 0 -374 162q-123 138 -123 327q0 218 159 361q139 126 337 126
q199 0 342 -136zM1379 550q-25 74 -65.5 107t-108.5 33q-70 0 -111.5 -33.5t-61.5 -106.5h347zM529 680q-85 0 -143 -62q-54 -59 -54 -167q0 -114 68 -174q56 -49 133 -49q88 0 146 62q54 59 54 166q0 116 -68 175q-55 49 -136 49z" />
    <glyph glyph-name="Racute" unicode="&#x154;" horiz-adv-x="1164" 
d="M803 0l-265 478q-7 -1 -14 -1q-38 -2 -57 -2h-33v-475h-303v1365h336q208 0 325 -66q97 -56 155 -156q61 -103 61 -227q0 -174 -114 -296q-29 -31 -66 -57l316 -563h-341zM432 751h52q109 0 160 28q70 40 70 139q0 88 -55.5 129t-174.5 41h-52v-337zM907 1748l-352 -328
l-197 104l280 358z" />
    <glyph glyph-name="racute" unicode="&#x155;" horiz-adv-x="645" 
d="M676 1320l-352 -329l-197 105l280 358zM388 868q76 47 156 47q39 0 92 -9v-257q-55 8 -92 8q-91 0 -123.5 -45.5t-32.5 -171.5v-440h-291v908h291v-40z" />
    <glyph glyph-name="Rcommaaccent" unicode="&#x156;" horiz-adv-x="1164" 
d="M803 0l-265 478q-7 -1 -14 -1q-38 -2 -57 -2h-33v-475h-303v1365h336q208 0 325 -66q97 -56 155 -156q61 -103 61 -227q0 -174 -114 -296q-29 -31 -66 -57l316 -563h-341zM432 751h52q109 0 160 28q70 40 70 139q0 88 -55.5 129t-174.5 41h-52v-337zM520 -33l272 -77
l-186 -401l-218 64z" />
    <glyph glyph-name="rcommaaccent" unicode="&#x157;" horiz-adv-x="645" 
d="M388 868q76 47 156 47q39 0 92 -9v-257q-55 8 -92 8q-91 0 -123.5 -45.5t-32.5 -171.5v-440h-291v908h291v-40zM129 -33l272 -77l-186 -401l-218 64z" />
    <glyph glyph-name="Rcaron" unicode="&#x158;" horiz-adv-x="1164" 
d="M803 0l-265 478q-7 -1 -14 -1q-38 -2 -57 -2h-33v-475h-303v1365h336q208 0 325 -66q97 -56 155 -156q61 -103 61 -227q0 -174 -114 -296q-29 -31 -66 -57l316 -563h-341zM432 751h52q109 0 160 28q70 40 70 139q0 88 -55.5 129t-174.5 41h-52v-337zM362 1848l177 -159
l177 159l221 -102l-311 -318h-173l-312 318z" />
    <glyph glyph-name="rcaron" unicode="&#x159;" horiz-adv-x="643" 
d="M388 868q76 47 156 47q38 0 92 -9v-257q-56 8 -92 8q-91 0 -123.5 -45.5t-32.5 -171.5v-440h-291v908h291v-40zM545 1437l219 -101l-310 -317h-172l-311 317l220 101l177 -167z" />
    <glyph glyph-name="Sacute" unicode="&#x15a;" horiz-adv-x="1085" 
d="M1007 1123l-251 -157q-43 68 -74 100q-49 52 -126 52q-71 0 -111 -47q-34 -40 -34 -86q0 -71 136 -122l124 -47q155 -58 238 -137q110 -105 110 -261q0 -196 -149 -329q-138 -123 -336 -123q-161 0 -286 86q-144 100 -198 339l297 79q4 -13 12 -48q43 -174 179 -174
q83 0 134 58q43 48 43 109q0 35 -20 61q-30 40 -152 87l-119 45q-314 120 -314 378q0 180 133 298q131 115 324 115q215 0 355 -157q41 -45 85 -119zM945 1748l-352 -328l-196 104l279 358z" />
    <glyph glyph-name="sacute" unicode="&#x15b;" horiz-adv-x="807" 
d="M774 1320l-352 -329l-197 105l280 358zM28 239l250 89q58 -108 133 -108q66 0 66 58q0 19 -13.5 31t-56.5 29l-152 62q-79 33 -124 97t-45 145q0 129 98 214q99 86 244 86q218 0 338 -208l-235 -108q-45 66 -105 66q-61 0 -61 -45q0 -16 13 -26.5t52 -26.5l127 -48
q211 -82 211 -255q0 -138 -106 -234q-101 -91 -255 -91q-137 0 -230.5 67.5t-148.5 205.5z" />
    <glyph glyph-name="Scircumflex" unicode="&#x15c;" horiz-adv-x="1085" 
d="M1007 1123l-251 -157q-43 68 -74 100q-49 52 -126 52q-71 0 -111 -47q-34 -40 -34 -86q0 -71 136 -122l124 -47q155 -58 238 -137q110 -105 110 -261q0 -196 -149 -329q-138 -123 -336 -123q-161 0 -286 86q-144 100 -198 339l297 79q4 -13 12 -48q43 -174 179 -174
q83 0 134 58q43 48 43 109q0 35 -20 61q-30 40 -152 87l-119 45q-314 120 -314 378q0 180 133 298q131 115 324 115q215 0 355 -157q41 -45 85 -119zM359 1421l-221 102l312 318h172l312 -318l-221 -102l-177 159z" />
    <glyph glyph-name="scircumflex" unicode="&#x15d;" horiz-adv-x="814" 
d="M30 239l250 89q58 -108 133 -108q66 0 66 58q0 19 -14 31t-56 29l-152 62q-80 33 -124.5 97t-44.5 145q0 129 98 214q99 86 244 86q217 0 337 -208l-234 -108q-45 66 -105 66q-61 0 -61 -45q0 -16 13 -27t52 -26l127 -48q211 -82 211 -255q0 -138 -106 -234
q-101 -91 -255 -91q-137 0 -231 67.5t-148 205.5zM590 995l-177 167l-177 -167l-220 101l311 317h172l310 -317z" />
    <glyph glyph-name="Scedilla" unicode="&#x15e;" horiz-adv-x="1085" 
d="M530 -34l258 -102l-291 -344l-211 98l238 348q-179 3 -308 110q-117 98 -166 315l297 79q4 -13 12 -48q42 -174 179 -174q83 0 134 58q43 48 43 109q0 35 -20 61q-30 40 -152 87l-119 45q-314 120 -314 378q0 180 133 298q131 115 324 115q215 0 355 -157q41 -45 85 -119
l-251 -157q-43 68 -74 100q-49 52 -126 52q-71 0 -111 -47q-34 -40 -34 -86q0 -71 136 -122l124 -47q155 -59 238 -137q110 -105 110 -261q0 -191 -141 -321.5t-348 -130.5z" />
    <glyph glyph-name="scedilla" unicode="&#x15f;" horiz-adv-x="807" 
d="M28 239l250 89q58 -108 133 -108q66 0 66 58q0 19 -13.5 31t-56.5 29l-152 62q-79 33 -124 97t-45 145q0 129 98 214q99 86 244 86q218 0 338 -208l-235 -108q-45 66 -105 66q-61 0 -61 -45q0 -16 13 -26.5t52 -26.5l127 -48q211 -82 211 -255q0 -138 -106 -234
q-101 -91 -255 -91q-137 0 -230.5 67.5t-148.5 205.5zM646 -137l-290 -343l-211 98l239 350z" />
    <glyph glyph-name="Scaron" unicode="&#x160;" horiz-adv-x="1085" 
d="M1007 1123l-251 -157q-43 68 -74 100q-49 52 -126 52q-71 0 -111 -47q-34 -40 -34 -86q0 -71 136 -122l124 -47q155 -58 238 -137q110 -105 110 -261q0 -196 -149 -329q-138 -123 -336 -123q-161 0 -286 86q-144 100 -198 339l297 79q4 -13 12 -48q43 -174 179 -174
q83 0 134 58q43 48 43 109q0 35 -20 61q-30 40 -152 87l-119 45q-314 120 -314 378q0 180 133 298q131 115 324 115q215 0 355 -157q41 -45 85 -119zM359 1848l177 -159l177 159l221 -102l-312 -318h-172l-312 318z" />
    <glyph glyph-name="scaron" unicode="&#x161;" horiz-adv-x="814" 
d="M30 239l250 89q58 -108 133 -108q66 0 66 58q0 19 -14 31t-56 29l-152 62q-80 33 -124.5 97t-44.5 145q0 129 98 214q99 86 244 86q217 0 337 -208l-234 -108q-45 66 -105 66q-61 0 -61 -45q0 -16 13 -27t52 -26l127 -48q211 -82 211 -255q0 -138 -106 -234
q-101 -91 -255 -91q-137 0 -231 67.5t-148 205.5zM590 1437l219 -101l-310 -317h-172l-311 317l220 101l177 -167z" />
    <glyph glyph-name="Tcommaaccent" unicode="&#x162;" horiz-adv-x="908" 
d="M926 1365v-281h-321v-1084h-303v1084h-321v281h945zM374 -33l272 -77l-186 -401l-218 64z" />
    <glyph glyph-name="tcommaaccent" unicode="&#x163;" horiz-adv-x="577" 
d="M393 649v-332q0 -38 8 -52.5t27 -14.5q37 0 110 29v-269q-87 -29 -162 -29q-126 0 -201 83q-73 81 -73 241v344h-90v259h90v182l291 113v-295h133v-259h-133zM206 -33l272 -77l-186 -401l-218 64z" />
    <glyph glyph-name="Tcaron" unicode="&#x164;" horiz-adv-x="908" 
d="M926 1365v-281h-321v-1084h-303v1084h-321v281h945zM277 1848l177 -159l177 159l221 -102l-312 -318h-173l-312 318z" />
    <glyph glyph-name="tcaron" unicode="&#x165;" horiz-adv-x="804" 
d="M393 649v-332q0 -38 8 -52.5t27 -14.5q37 0 110 29v-269q-87 -29 -162 -29q-126 0 -201 83q-73 81 -73 241v344h-90v259h90v182l291 113v-295h133v-259h-133zM575 1451l272 -76l-186 -401l-217 63z" />
    <glyph glyph-name="Tbar" unicode="&#x166;" horiz-adv-x="908" 
d="M302 647h-198v261h198v176h-321v281h945v-281h-321v-176h198v-261h-198v-647h-303v647z" />
    <glyph glyph-name="tbar" unicode="&#x167;" horiz-adv-x="577" 
d="M102 908v182l291 113v-295h133v-214h-133v-64h133v-214h-133v-100q0 -38 7.5 -52.5t27.5 -14.5q38 0 110 29v-268q-87 -29 -162 -29q-127 0 -201 83q-73 81 -73 241v111h-90v214h90v64h-90v214h90z" />
    <glyph glyph-name="Utilde" unicode="&#x168;" horiz-adv-x="1321" 
d="M434 1365v-835q0 -137 27 -183q24 -43 80.5 -71t118.5 -28t118.5 28t81.5 71q26 46 26 183v835h303v-871q0 -172 -61 -276q-64 -109 -180 -176q-132 -76 -288 -76q-216 0 -371 135q-84 74 -121 165.5t-37 227.5v871h303zM765 1805l242 -52q-8 -115 -43 -172
q-26 -43 -76 -68.5t-108 -25.5q-81 0 -166 41q-24 12 -38 12q-10 0 -14.5 -11t-12.5 -59l-236 52q11 113 49 173q27 42 75 67.5t99 25.5q83 0 174 -47q21 -11 33 -11q11 0 15 13.5t7 61.5z" />
    <glyph glyph-name="utilde" unicode="&#x169;" horiz-adv-x="1046" 
d="M658 36q-90 -70 -200 -70q-134 0 -234 89q-127 113 -127 362v491h291v-477q0 -111 23 -154q26 -49 103 -49q88 0 119 57q25 44 25 163v460h291v-908h-291v36zM628 1377l242 -52q-9 -116 -43 -172q-25 -43 -75 -68.5t-109 -25.5q-82 0 -166 41q-24 12 -38 12
q-10 0 -14.5 -12t-12.5 -57l-236 51q11 113 49 173q27 41 75 67t99 26q84 0 175 -47q20 -11 33 -11q10 0 14 13.5t7 61.5z" />
    <glyph glyph-name="Umacron" unicode="&#x16a;" horiz-adv-x="1321" 
d="M434 1365v-835q0 -137 27 -183q24 -43 80.5 -71t118.5 -28t118.5 28t81.5 71q26 46 26 183v835h303v-871q0 -172 -61 -276q-64 -109 -180 -176q-132 -76 -288 -76q-216 0 -371 135q-84 74 -121 165.5t-37 227.5v871h303zM316 1757h688v-240h-688v240z" />
    <glyph glyph-name="umacron" unicode="&#x16b;" horiz-adv-x="1046" 
d="M658 36q-90 -70 -200 -70q-134 0 -234 89q-127 113 -127 362v491h291v-477q0 -111 23 -154q26 -49 103 -49q88 0 119 57q25 44 25 163v460h291v-908h-291v36zM179 1330h688v-240h-688v240z" />
    <glyph glyph-name="Ubreve" unicode="&#x16c;" horiz-adv-x="1321" 
d="M434 1365v-835q0 -137 27 -183q24 -43 80.5 -71t118.5 -28t118.5 28t81.5 71q26 46 26 183v835h303v-871q0 -172 -61 -276q-64 -109 -180 -176q-132 -76 -288 -76q-216 0 -371 135q-84 74 -121 165.5t-37 227.5v871h303zM322 1799l251 19q5 -102 20 -123q21 -28 62 -28
q46 0 65 35q14 24 27 115l251 -19q-12 -100 -17 -123.5t-23 -58.5q-42 -81 -115 -130q-81 -53 -188 -53q-155 0 -252 105q-71 76 -78 169q-1 21 -3 92z" />
    <glyph glyph-name="ubreve" unicode="&#x16d;" horiz-adv-x="1046" 
d="M658 36q-90 -70 -200 -70q-134 0 -234 89q-127 113 -127 362v491h291v-477q0 -111 23 -154q26 -49 103 -49q88 0 119 57q25 44 25 163v460h291v-908h-291v36zM188 1370l251 19q5 -108 21 -130q20 -27 60 -27q50 0 72 47q6 12 21 110l251 -19q-12 -100 -17.5 -123.5
t-23.5 -58.5q-41 -82 -114 -130q-81 -53 -188 -53q-155 0 -252 105q-71 76 -78 168q-2 22 -3 92z" />
    <glyph glyph-name="Uring" unicode="&#x16e;" horiz-adv-x="1321" 
d="M659 1881q112 0 187 -82q62 -68 62 -161q0 -108 -81 -181q-71 -63 -166 -63q-104 0 -176 71q-73 72 -73 176q0 102 82 177q69 63 165 63zM659 1743q-44 0 -74.5 -31t-30.5 -76q0 -42 31.5 -73t74.5 -31q44 0 75 31t31 74q0 45 -31 75.5t-76 30.5zM434 1365v-835
q0 -137 27 -183q24 -43 80.5 -71t118.5 -28t118.5 28t81.5 71q26 46 26 183v835h303v-871q0 -172 -61 -276q-64 -109 -180 -176q-132 -76 -288 -76q-216 0 -371 135q-84 74 -121 165.5t-37 227.5v871h303z" />
    <glyph glyph-name="uring" unicode="&#x16f;" horiz-adv-x="1046" 
d="M658 36q-90 -70 -200 -70q-134 0 -234 89q-127 113 -127 362v491h291v-477q0 -111 23 -154q26 -49 103 -49q88 0 119 57q25 44 25 163v460h291v-908h-291v36zM522 1454q112 0 187 -82q62 -69 62 -162q0 -108 -81 -180q-71 -64 -169 -64q-109 0 -183 82q-63 70 -63 166
q0 102 82 176q69 64 165 64zM522 1316q-44 0 -74.5 -31.5t-30.5 -76.5q0 -42 31.5 -73t74.5 -31q44 0 75 31t31 75t-31 75t-76 31z" />
    <glyph glyph-name="Uhungarumlaut" unicode="&#x170;" horiz-adv-x="1330" 
d="M857 1760l84 118l235 -127l-350 -327l-147 85l133 187l-292 -273l-166 99l278 356zM434 1365v-835q0 -137 27 -183q24 -43 80.5 -71t118.5 -28t118.5 28t81.5 71q26 46 26 183v835h303v-871q0 -172 -61 -276q-64 -109 -180 -176q-132 -76 -288 -76q-216 0 -371 135
q-84 74 -121 165.5t-37 227.5v871h303z" />
    <glyph glyph-name="uhungarumlaut" unicode="&#x171;" horiz-adv-x="1046" 
d="M695 1327l84 118l236 -126l-351 -327l-147 84l133 188l-292 -273l-166 99l278 355zM658 36q-90 -70 -200 -70q-134 0 -234 89q-127 113 -127 362v491h291v-477q0 -111 23 -154q26 -49 103 -49q88 0 119 57q25 44 25 163v460h291v-908h-291v36z" />
    <glyph glyph-name="Uogonek" unicode="&#x172;" horiz-adv-x="1321" 
d="M803 -17q-45 -63 -45 -93q0 -14 16 -14q27 0 73 25l88 -205q-93 -33 -130.5 -42t-81.5 -9q-132 0 -202 78q-51 57 -51 132q0 59 45 130q-122 29 -216 107q-87 72 -124 157q-44 103 -44 245v871h303v-835q0 -137 27 -184q24 -42 80.5 -70t118.5 -28q61 0 118 28t82 71
q26 46 26 183v835h303v-871q10 -396 -386 -511z" />
    <glyph glyph-name="uogonek" unicode="&#x173;" horiz-adv-x="1046" 
d="M949 0q-58 -75 -58 -109q0 -14 16 -14q27 0 74 24l87 -205q-143 -50 -212 -50q-132 0 -202 77q-51 57 -51 133q0 63 55 144v36q-90 -70 -200 -70q-134 0 -234 89q-127 113 -127 362v491h291v-477q0 -111 23 -154q26 -49 103 -49q88 0 119 57q25 44 25 163v460h291v-908z
" />
    <glyph glyph-name="Wcircumflex" unicode="&#x174;" horiz-adv-x="1797" 
d="M297 1365l238 -807l239 807h248l240 -807l237 807h316l-411 -1365h-266l-240 808l-240 -808h-266l-411 1365h316zM721 1421l-221 102l312 318h172l312 -318l-221 -102l-177 159z" />
    <glyph glyph-name="wcircumflex" unicode="&#x175;" horiz-adv-x="1339" 
d="M-31 908h305l145 -437l142 437h217l143 -437l145 437h304l-326 -908h-234l-141 428l-140 -428h-234zM847 995l-177 167l-178 -167l-219 101l311 317h172l310 -317z" />
    <glyph glyph-name="Ycircumflex" unicode="&#x176;" horiz-adv-x="1157" 
d="M427 562l-459 803h340l271 -488l271 488h339l-459 -803v-562h-303v562zM402 1421l-221 102l312 318h172l312 -318l-221 -102l-177 159z" />
    <glyph glyph-name="ycircumflex" unicode="&#x177;" horiz-adv-x="973" 
d="M313 49l-344 859h308l196 -503l224 503h307l-620 -1386h-306zM665 995l-178 167l-177 -167l-219 101l311 317h171l311 -317z" />
    <glyph glyph-name="Ydieresis" unicode="&#x178;" horiz-adv-x="1157" 
d="M427 562l-459 803h340l271 -488l271 488h339l-459 -803v-562h-303v562zM772 1793q73 0 121 -53q40 -44 40 -103q0 -65 -47 -110.5t-115 -45.5q-67 0 -113.5 46t-46.5 113q0 62 47.5 107.5t113.5 45.5zM386 1793q73 0 121 -53q40 -44 40 -103q0 -69 -52 -115
q-46 -41 -109 -41q-68 0 -114.5 46t-46.5 112q0 63 47.5 108.5t113.5 45.5z" />
    <glyph glyph-name="Zacute" unicode="&#x179;" horiz-adv-x="1056" 
d="M1023 1142l-607 -860h621v-282h-1022v224l617 861h-561v280h952v-223zM889 1748l-351 -328l-197 104l280 358z" />
    <glyph glyph-name="zacute" unicode="&#x17a;" horiz-adv-x="866" 
d="M788 1320l-351 -329l-197 105l280 358zM829 908v-205l-394 -445h411v-258h-812v204l395 447h-369v257h769z" />
    <glyph glyph-name="Zdotaccent" unicode="&#x17b;" horiz-adv-x="1056" 
d="M1023 1142l-607 -860h621v-282h-1022v224l617 861h-561v280h952v-223zM559 1805q79 0 131 -57q43 -47 43 -111q0 -74 -56 -124q-50 -44 -119 -44q-77 0 -129 57q-43 48 -43 114q0 70 56 120q49 45 117 45z" />
    <glyph glyph-name="zdotaccent" unicode="&#x17c;" horiz-adv-x="866" 
d="M829 908v-205l-394 -445h411v-258h-812v204l395 447h-369v257h769zM439 1389q79 0 131 -57q43 -48 43 -112q0 -74 -56 -123q-50 -45 -119 -45q-77 0 -129 57q-43 48 -43 114q0 71 56 121q49 45 117 45z" />
    <glyph glyph-name="Zcaron" unicode="&#x17d;" horiz-adv-x="1056" 
d="M1023 1142l-607 -860h621v-282h-1022v224l617 861h-561v280h952v-223zM383 1848l177 -159l177 159l221 -102l-312 -318h-173l-312 318z" />
    <glyph glyph-name="zcaron" unicode="&#x17e;" horiz-adv-x="866" 
d="M826 908v-205l-394 -445h411v-258h-812v204l395 447h-369v257h769zM614 1437l220 -101l-311 -317h-172l-311 317l220 101l177 -167z" />
    <glyph glyph-name="longs" unicode="&#x17f;" horiz-adv-x="529" 
d="M403 0h-291v649h-82v259h82v152q0 179 91 259q73 65 189 65q68 0 155 -19v-259q-53 19 -89 19q-55 0 -55 -71v-1054z" />
    <glyph glyph-name="florin" unicode="&#x192;" horiz-adv-x="1020" 
d="M-15 -378l55 262q18 -4 39 -12q38 -15 65 -15q42 0 59 82l148 710h-85l54 259h86l34 164q38 181 144 258q84 61 182 61q70 0 184 -35l-55 -261q-78 27 -103 27q-42 0 -60 -82l-27 -132h152l-54 -259h-153l-155 -742q-38 -180 -143 -258q-84 -61 -183 -61q-72 0 -184 34z
" />
    <glyph glyph-name="Ohorn" unicode="&#x1a0;" horiz-adv-x="1596" 
d="M1186 1484l225 113q59 -43 82 -65q90 -90 90 -221q0 -173 -164 -285q91 -165 91 -345q0 -186 -95 -350q-96 -165 -263 -264q-173 -101 -370 -101t-370 101q-168 99 -263 264q-95 164 -95 351q0 191 99 358q98 167 270 264q168 95 360 95q265 0 471 -174q71 34 71 86
q0 39 -25 70t-114 103zM779 1117q-182 0 -309 -141q-111 -123 -111 -301q0 -113 57 -212t159 -158q99 -57 207 -57t207 57q102 59 159 158q57 100 57 218q0 197 -143 327q-119 109 -283 109z" />
    <glyph glyph-name="ohorn" unicode="&#x1a1;" horiz-adv-x="1172" 
d="M887 796q25 25 25 57q0 40 -24.5 70.5t-114.5 103.5l225 113q60 -43 82 -65q90 -90 90 -222q0 -168 -158 -280q14 -56 14 -116q0 -221 -159 -365q-139 -126 -334 -126q-226 0 -371 162q-123 138 -123 326q0 219 159 362q139 126 336 126q208 0 353 -146zM531 680
q-56 0 -103 -28q-96 -58 -96 -198q0 -117 68 -177q56 -49 133 -49q88 0 146 62q54 59 54 166q0 116 -68 175q-55 49 -134 49z" />
    <glyph glyph-name="Uhorn" unicode="&#x1af;" horiz-adv-x="1465" 
d="M1189 1240q43 32 43 71t-25 70t-114 103l225 113q60 -43 82 -65q90 -90 90 -223q0 -118 -73.5 -203t-227.5 -147v-465q0 -172 -61 -276q-64 -109 -180 -176q-132 -76 -288 -76q-216 0 -371 135q-84 74 -121 165.5t-37 227.5v871h303v-835q0 -137 27 -183q24 -43 80.5 -71
t118.5 -28t118.5 28t81.5 71q26 46 26 183v835h303v-125z" />
    <glyph glyph-name="uhorn" unicode="&#x1b0;" horiz-adv-x="1261" 
d="M949 777q52 31 52 77q0 40 -25 70.5t-114 102.5l225 113q59 -43 82 -65q90 -90 90 -223q0 -115 -77 -205.5t-221 -142.5l-12 -5v-499h-291v36q-90 -70 -200 -70q-134 0 -234 89q-127 113 -127 362v491h291v-477q0 -111 23 -154q26 -49 103 -49q88 0 119 57q25 44 25 163
v460h291v-131z" />
    <glyph glyph-name="uni01C4" unicode="&#x1c4;" horiz-adv-x="2329" 
d="M131 1365h336q312 0 507 -152q245 -191 245 -529q0 -341 -245 -532q-40 -31 -72 -49q-191 -103 -435 -103h-336v1365zM434 1084v-803h39q110 0 201 33.5t145 94.5q96 106 96 272q0 239 -182 343q-105 60 -260 60h-39zM2295 1142l-607 -860h621v-282h-1021v224l616 861
h-561v280h952v-223zM1655 1848l177 -159l177 159l221 -102l-311 -318h-173l-312 318z" />
    <glyph glyph-name="uni01C5" unicode="&#x1c5;" horiz-adv-x="2139" 
d="M131 1365h336q312 0 507 -152q245 -191 245 -529q0 -341 -245 -532q-40 -31 -72 -49q-191 -103 -435 -103h-336v1365zM434 1084v-803h39q110 0 201 33.5t145 94.5q96 106 96 272q0 239 -182 343q-105 60 -260 60h-39zM2098 908v-205l-394 -445h411v-258h-812v204l395 447
h-369v257h769zM1886 1437l220 -101l-311 -317h-172l-311 317l220 101l177 -167z" />
    <glyph glyph-name="uni01C6" unicode="&#x1c6;" horiz-adv-x="1978" 
d="M1016 0h-291v44q-109 -78 -227 -78q-116 0 -220 60q-108 63 -172 173q-67 116 -67 256q0 225 159 369q130 118 300 118q118 0 227 -79v502h291v-1365zM529 680q-84 0 -143 -62q-54 -58 -54 -166q0 -115 69 -175q55 -49 131 -49q86 0 142 61q54 59 54 167q0 117 -68 177
q-53 47 -131 47zM1938 908v-205l-394 -445h412v-258h-812v204l395 447h-369v257h768zM1727 1437l219 -101l-310 -317h-172l-311 317l219 101l178 -167z" />
    <glyph glyph-name="uni01C7" unicode="&#x1c7;" horiz-adv-x="1830" 
d="M131 1365h303v-1084h481v-281h-784v1365zM1698 1365v-936q0 -99 -14 -163t-48 -125q-46 -80 -124 -124q-90 -51 -204 -51q-109 0 -199 44t-188 145l180 218q112 -125 193 -125q101 0 101 181v936h303z" />
    <glyph glyph-name="uni01C8" unicode="&#x1c8;" horiz-adv-x="1413" 
d="M131 1365h303v-1084h481v-281h-784v1365zM1314 908v-1085q0 -179 -91 -260q-74 -65 -185 -65q-74 0 -160 30v268q74 -29 110 -29q20 0 27.5 14.5t7.5 52.5v1074h291zM1168 1388q79 0 131 -57q43 -48 43 -111q0 -74 -56 -124q-50 -45 -117 -45q-73 0 -123.5 49.5
t-50.5 121.5q0 71 56 121q49 45 117 45z" />
    <glyph glyph-name="uni01C9" unicode="&#x1c9;" horiz-adv-x="989" 
d="M390 0h-291v1365h291v-1365zM891 908v-1085q0 -179 -91 -260q-74 -65 -185 -65q-74 0 -160 30v268q74 -29 110 -29q20 0 27.5 14.5t7.5 52.5v1074h291zM745 1388q79 0 131 -57q43 -47 43 -111q0 -75 -56 -124q-50 -45 -117 -45q-73 0 -123.5 49.5t-50.5 121.5
q0 70 56 121q49 45 117 45z" />
    <glyph glyph-name="uni01CA" unicode="&#x1ca;" horiz-adv-x="2334" 
d="M131 0v1365h253l631 -828v828h303v-1365h-253l-631 828v-828h-303zM2202 1365v-936q0 -99 -14 -163t-48 -125q-46 -80 -124 -124q-90 -51 -204 -51q-109 0 -199 44t-188 145l180 218q112 -125 193 -125q101 0 101 181v936h303z" />
    <glyph glyph-name="uni01CB" unicode="&#x1cb;" horiz-adv-x="1950" 
d="M131 0v1365h253l631 -828v828h303v-1365h-253l-631 828v-828h-303zM1852 908v-1085q0 -179 -91 -260q-74 -65 -185 -65q-75 0 -160 30v268q73 -29 110 -29q20 0 27.5 15t7.5 52v1074h291zM1706 1388q79 0 131 -57q43 -47 43 -111q0 -75 -56 -124q-50 -45 -117 -45
q-73 0 -123.5 49.5t-50.5 121.5q0 71 56 121q49 45 117 45z" />
    <glyph glyph-name="uni01CC" unicode="&#x1cc;" horiz-adv-x="1546" 
d="M388 871q90 71 200 71q134 0 234 -89q127 -113 127 -362v-491h-291v477q0 111 -23 154q-26 49 -103 49q-88 0 -119 -57q-25 -44 -25 -163v-460h-291v908h291v-37zM1448 908v-1085q0 -179 -91 -260q-74 -65 -185 -65q-75 0 -160 30v268q73 -29 110 -29q20 0 27.5 14.5
t7.5 52.5v1074h291zM1302 1388q79 0 131 -57q43 -47 43 -111q0 -75 -56 -124q-50 -45 -117 -45q-73 0 -123.5 49.5t-50.5 121.5q0 71 56 121q49 45 117 45z" />
    <glyph glyph-name="uni01CD" unicode="&#x1cd;" horiz-adv-x="1330" 
d="M922 301h-516l-105 -301h-320l510 1365h347l510 -1365h-321zM825 582l-161 459l-161 -459h322zM488 1848l177 -159l177 159l221 -102l-312 -318h-173l-312 318z" />
    <glyph glyph-name="uni01CE" unicode="&#x1ce;" horiz-adv-x="1112" 
d="M1016 0h-291v44q-110 -78 -227 -78q-116 0 -220 60q-108 63 -172 173q-67 116 -67 256q0 225 159 369q130 118 300 118q117 0 227 -78v44h291v-908zM529 680q-85 0 -143 -62q-54 -59 -54 -167q0 -114 69 -174q55 -49 131 -49q86 0 142 61q54 59 54 167q0 117 -68 177
q-53 47 -131 47zM705 1437l220 -101l-311 -317h-172l-311 317l220 101l177 -167z" />
    <glyph glyph-name="uni01CF" unicode="&#x1cf;" horiz-adv-x="566" 
d="M435 1365v-1365h-303v1365h303zM106 1848l177 -159l177 159l222 -102l-312 -318h-173l-312 318z" />
    <glyph glyph-name="uni01D0" unicode="&#x1d0;" horiz-adv-x="487" 
d="M389 908v-908h-291v908h291zM421 1437l220 -101l-311 -317h-172l-311 317l220 101l177 -167z" />
    <glyph glyph-name="uni01D1" unicode="&#x1d1;" horiz-adv-x="1563" 
d="M782 1399q195 0 359 -95q172 -99 270 -264q99 -167 99 -358q0 -187 -95 -351q-95 -165 -263 -264q-173 -101 -376 -101q-191 0 -364 101q-168 99 -263 264t-95 362q0 186 99 347q105 171 270 264q168 95 359 95zM779 1117q-182 0 -309 -141q-111 -123 -111 -301
q0 -113 57 -212t159 -158q99 -57 207 -57t207 57q102 59 159 158q57 100 57 218q0 197 -143 327q-119 109 -283 109zM605 1848l177 -159l177 159l221 -102l-312 -318h-172l-312 318z" />
    <glyph glyph-name="uni01D2" unicode="&#x1d2;" horiz-adv-x="1065" 
d="M539 942q218 0 364 -162q123 -137 123 -325q0 -219 -159 -363q-140 -126 -335 -126q-225 0 -370 162q-123 138 -123 327q0 184 116 317q149 170 384 170zM531 680q-56 0 -103 -28q-96 -58 -96 -198q0 -117 68 -177q56 -49 133 -49q88 0 146 62q54 59 54 166
q0 116 -68 175q-55 49 -134 49zM710 1437l219 -101l-310 -317h-172l-311 317l219 101l178 -167z" />
    <glyph glyph-name="uni01D3" unicode="&#x1d3;" horiz-adv-x="1321" 
d="M434 1365v-835q0 -137 27 -183q24 -43 80.5 -71t118.5 -28t118.5 28t81.5 71q26 46 26 183v835h303v-871q0 -172 -61 -276q-64 -109 -180 -176q-132 -76 -288 -76q-216 0 -371 135q-84 74 -121 165.5t-37 227.5v871h303zM483 1848l177 -159l177 159l221 -102l-311 -318
h-173l-312 318z" />
    <glyph glyph-name="uni01D4" unicode="&#x1d4;" horiz-adv-x="1046" 
d="M658 36q-90 -70 -200 -70q-134 0 -234 89q-127 113 -127 362v491h291v-477q0 -111 23 -154q26 -49 103 -49q88 0 119 57q25 44 25 163v460h291v-908h-291v36zM700 1437l220 -101l-311 -317h-172l-311 317l220 101l177 -167z" />
    <glyph glyph-name="Gcaron" unicode="&#x1e6;" horiz-adv-x="1493" 
d="M756 778h680v-143q0 -217 -88 -369q-79 -136 -209 -210q-158 -90 -347 -90q-210 0 -384 102q-161 95 -256 256q-98 167 -98 358t97 358q97 165 261 260q172 99 378 99q157 0 286.5 -58.5t273.5 -194.5l-216 -201q-72 72 -128 108q-99 64 -219 64q-195 0 -317 -139
q-111 -124 -111 -296q0 -197 141 -324q121 -110 290 -110q128 0 213 65.5t117 187.5h-364v277zM615 1848l177 -159l177 159l222 -102l-312 -318h-173l-312 318z" />
    <glyph glyph-name="gcaron" unicode="&#x1e7;" horiz-adv-x="1112" 
d="M724 44q-112 -78 -227 -78q-197 0 -334 153q-125 139 -125 336q0 225 160 369q130 118 300 118q114 0 226 -78v44h292v-926q0 -234 -152 -370q-140 -124 -348 -124q-140 0 -249.5 58t-220.5 190l198 186q11 -12 29 -35q58 -72 115.5 -104.5t127.5 -32.5q101 0 156 61
q52 58 52 171v62zM528 680q-84 0 -143 -62q-54 -58 -54 -166q0 -115 69 -175q55 -49 131 -49q86 0 142 61q54 59 54 167q0 117 -68 177q-53 47 -131 47zM705 1437l220 -101l-311 -317h-172l-311 317l220 101l177 -167z" />
    <glyph glyph-name="uni01F4" unicode="&#x1f4;" horiz-adv-x="1493" 
d="M756 778h680v-143q0 -217 -88 -369q-79 -136 -209 -210q-158 -90 -347 -90q-210 0 -384 102q-161 95 -256 256q-98 167 -98 358t97 358q97 165 261 260q172 99 378 99q157 0 286.5 -58.5t273.5 -194.5l-216 -201q-72 72 -128 108q-99 64 -219 64q-195 0 -317 -139
q-111 -124 -111 -296q0 -197 141 -324q121 -110 290 -110q128 0 213 65.5t117 187.5h-364v277zM1170 1748l-352 -328l-196 104l279 358z" />
    <glyph glyph-name="uni01F5" unicode="&#x1f5;" horiz-adv-x="1112" 
d="M724 44q-112 -78 -227 -78q-197 0 -334 153q-125 139 -125 336q0 225 160 369q130 118 300 118q114 0 226 -78v44h292v-926q0 -234 -152 -370q-140 -124 -348 -124q-140 0 -249.5 58t-220.5 190l198 186q11 -12 29 -35q58 -72 115.5 -104.5t127.5 -32.5q101 0 156 61
q52 58 52 171v62zM528 680q-84 0 -143 -62q-54 -58 -54 -166q0 -115 69 -175q55 -49 131 -49q86 0 142 61q54 59 54 167q0 117 -68 177q-53 47 -131 47zM891 1320l-352 -329l-197 105l280 358z" />
    <glyph glyph-name="Aringacute" unicode="&#x1fa;" horiz-adv-x="1330" 
d="M705 1877q51 -8 92 -32q115 -67 115 -191q0 -97 -75 -163q-72 -64 -172 -64q-116 0 -190 81q-58 64 -58 145q0 97 80 167l-105 52l280 334l268 -125zM664 1752q-44 0 -74.5 -29t-30.5 -71q0 -39 31.5 -68t73.5 -29q44 0 75 29t31 70t-31 69.5t-75 28.5zM922 301h-516
l-105 -301h-320l510 1365h347l510 -1365h-321zM825 582l-161 459l-161 -459h322z" />
    <glyph glyph-name="aringacute" unicode="&#x1fb;" horiz-adv-x="1112" 
d="M543 1451q77 -2 139 -46q102 -73 102 -197q0 -108 -81 -181q-70 -63 -166 -63q-112 0 -185 82q-63 70 -63 162q0 80 50 146t128 88l-155 82l280 358l268 -134zM536 1313q-44 0 -74.5 -31t-30.5 -76q0 -42 31 -73t74 -31q44 0 75 31t31 75t-31 74.5t-75 30.5zM1016 0h-291
v44q-110 -78 -227 -78q-116 0 -220 60q-108 63 -172 173q-67 116 -67 256q0 225 159 369q130 118 300 118q117 0 227 -78v44h291v-908zM529 680q-85 0 -143 -62q-54 -59 -54 -167q0 -114 69 -174q55 -49 131 -49q86 0 142 61q54 59 54 167q0 117 -68 177q-53 47 -131 47z
" />
    <glyph glyph-name="AEacute" unicode="&#x1fc;" horiz-adv-x="1742" 
d="M860 301h-383l-156 -301h-340l723 1365h958v-278h-501v-256h445v-279h-445v-271h520v-281h-821v301zM860 582v440h-7l-229 -440h236zM1441 1748l-352 -328l-197 104l280 358z" />
    <glyph glyph-name="aeacute" unicode="&#x1fd;" horiz-adv-x="1610" 
d="M809 832q130 111 296 111q208 0 343 -151q123 -138 123 -355q0 -26 -2 -78h-633q26 -73 68.5 -106t110.5 -33q111 0 171 92l262 -101q-159 -245 -432 -245q-173 0 -301 106q-118 -106 -331 -106q-171 0 -287 67q-159 90 -159 254q0 150 133 228q109 64 285 64h168
q-39 112 -151 112q-127 0 -273 -91l-152 189q118 83 217.5 118.5t219.5 35.5q210 0 324 -111zM1283 550q-20 64 -49 94q-46 47 -125 47q-136 0 -173 -141h347zM638 387h-156q-157 0 -157 -84q0 -35 26 -55q40 -33 129 -33q158 0 158 101v71zM1157 1320l-352 -329l-197 105
l280 358z" />
    <glyph glyph-name="Oslashacute" unicode="&#x1fe;" horiz-adv-x="1578" 
d="M1500 1212l-119 -116q136 -187 136 -413q0 -187 -95 -352t-263 -264q-173 -101 -370 -101q-115 0 -228 37t-201 103l-117 -113l-165 160l119 115q-136 191 -136 412q0 188 95 353q99 173 274 271q168 95 362 95q223 0 426 -140l116 113zM1162 885l-590 -573
q103 -64 217 -64q108 0 206 57q103 59 160 158t57 218q0 108 -50 204zM415 480l592 574q-101 63 -218 63q-187 0 -312 -140q-111 -125 -111 -296q0 -109 49 -201zM1162 1748l-352 -328l-197 104l280 358z" />
    <glyph glyph-name="oslashacute" unicode="&#x1ff;" horiz-adv-x="1092" 
d="M124 198q-72 118 -72 255q0 220 159 363q140 126 335 126q162 0 285 -88l65 61l143 -138l-71 -66q71 -122 71 -256q0 -219 -159 -363q-140 -126 -337 -126q-151 0 -283 88l-65 -61l-143 138zM348 405l280 261q-43 17 -84 17q-88 0 -146 -62q-55 -60 -55 -167q0 -29 5 -49
zM743 503l-279 -260q39 -18 81 -18q90 0 148 64q56 60 56 171q0 24 -6 43zM905 1320l-351 -329l-197 105l280 358z" />
    <glyph glyph-name="uni0200" unicode="&#x200;" horiz-adv-x="1330" 
d="M477 1762l221 116l278 -356l-171 -99l-258 241l108 -153l-151 -87l-350 327l241 127zM922 301h-516l-105 -301h-320l510 1365h347l510 -1365h-321zM825 582l-161 459l-161 -459h322z" />
    <glyph glyph-name="uni0201" unicode="&#x201;" horiz-adv-x="1112" 
d="M330 1329l221 116l278 -355l-172 -99l-258 241l108 -153l-151 -87l-350 327l241 126zM1016 0h-291v44q-110 -78 -227 -78q-116 0 -220 60q-108 63 -172 173q-67 116 -67 256q0 225 159 369q130 118 300 118q117 0 227 -78v44h291v-908zM529 680q-85 0 -143 -62
q-54 -59 -54 -167q0 -114 69 -174q55 -49 131 -49q86 0 142 61q54 60 54 167q0 117 -68 177q-53 47 -131 47z" />
    <glyph glyph-name="Scommaaccent" unicode="&#x218;" horiz-adv-x="1085" 
d="M1007 1123l-251 -157q-43 68 -74 100q-49 52 -126 52q-71 0 -111 -47q-34 -40 -34 -86q0 -71 136 -122l124 -47q155 -58 238 -137q110 -105 110 -261q0 -196 -149 -329q-138 -123 -336 -123q-161 0 -286 86q-144 100 -198 339l297 79q4 -13 12 -48q43 -174 179 -174
q83 0 134 58q43 48 43 109q0 35 -20 61q-30 40 -152 87l-119 45q-314 120 -314 378q0 180 133 298q131 115 324 115q215 0 355 -157q41 -45 85 -119zM784 -137l-291 -343l-211 98l240 350z" />
    <glyph glyph-name="scommaaccent" unicode="&#x219;" horiz-adv-x="807" 
d="M343 -33l272 -77l-186 -401l-218 64zM28 239l250 89q58 -108 133 -108q66 0 66 58q0 19 -13.5 31t-56.5 29l-152 62q-79 33 -124 97t-45 145q0 129 98 214q99 86 244 86q218 0 338 -208l-235 -108q-45 66 -105 66q-61 0 -61 -45q0 -16 13 -26.5t52 -26.5l127 -48
q211 -82 211 -255q0 -138 -106 -234q-101 -91 -255 -91q-137 0 -230.5 67.5t-148.5 205.5z" />
    <glyph glyph-name="uni021A" unicode="&#x21a;" horiz-adv-x="908" 
d="M926 1365v-281h-321v-1084h-303v1084h-321v281h945zM374 -33l272 -77l-186 -401l-218 64z" />
    <glyph glyph-name="uni021B" unicode="&#x21b;" horiz-adv-x="577" 
d="M393 649v-332q0 -38 8 -52.5t27 -14.5q37 0 110 29v-269q-87 -29 -162 -29q-126 0 -201 83q-73 81 -73 241v344h-90v259h90v182l291 113v-295h133v-259h-133zM206 -33l272 -77l-186 -401l-218 64z" />
    <glyph glyph-name="uni0226" unicode="&#x226;" horiz-adv-x="1330" 
d="M922 301h-516l-105 -301h-320l510 1365h347l510 -1365h-321zM825 582l-161 459l-161 -459h322zM664 1805q79 0 131 -57q43 -47 43 -111q0 -74 -56 -124q-50 -44 -119 -44q-77 0 -129 57q-43 48 -43 114q0 70 56 120q49 45 117 45z" />
    <glyph glyph-name="uni0227" unicode="&#x227;" horiz-adv-x="1112" 
d="M1016 0h-291v44q-110 -78 -227 -78q-116 0 -220 60q-108 63 -172 173q-67 116 -67 256q0 225 159 369q130 118 300 118q117 0 227 -78v44h291v-908zM529 680q-85 0 -143 -62q-54 -59 -54 -167q0 -114 69 -174q55 -49 131 -49q86 0 142 61q54 59 54 167q0 117 -68 177
q-53 47 -131 47zM527 1389q79 0 131 -57q43 -48 43 -112q0 -73 -56 -123q-50 -45 -119 -45q-77 0 -129 57q-43 48 -43 114q0 71 56 121q49 45 117 45z" />
    <glyph glyph-name="uni0237" unicode="&#x237;" horiz-adv-x="500" 
d="M402 908v-1085q0 -179 -91 -260q-74 -65 -185 -65q-75 0 -160 30v268q73 -29 110 -29q20 0 27.5 14.5t7.5 52.5v1074h291z" />
    <glyph glyph-name="uni02BB" unicode="&#x2bb;" horiz-adv-x="571" 
d="M322 888l-259 87l259 541l213 -79z" />
    <glyph glyph-name="afii57929" unicode="&#x2bc;" horiz-adv-x="650" 
d="M299 1522l267 -98l-262 -588l-220 87z" />
    <glyph glyph-name="circumflex" unicode="&#x2c6;" horiz-adv-x="975" 
d="M665 995l-177 167l-177 -167l-220 101l311 317h172l310 -317z" />
    <glyph glyph-name="caron" unicode="&#x2c7;" horiz-adv-x="975" 
d="M665 1437l219 -101l-310 -317h-172l-311 317l220 101l177 -167z" />
    <glyph glyph-name="uni02C9" unicode="&#x2c9;" horiz-adv-x="975" 
d="M143 1330h688v-240h-688v240z" />
    <glyph glyph-name="breve" unicode="&#x2d8;" horiz-adv-x="975" 
d="M149 1370l251 19q5 -107 21 -129q20 -28 60 -28q50 0 73 47q6 13 20 110l251 -19q-12 -100 -17.5 -123.5t-22.5 -58.5q-42 -82 -115 -130q-81 -53 -188 -53q-155 0 -252 104q-71 76 -78 169q-1 22 -3 92z" />
    <glyph glyph-name="dotaccent" unicode="&#x2d9;" horiz-adv-x="975" 
d="M487 1389q79 0 131 -57q43 -48 43 -111q0 -74 -56 -124q-50 -45 -117 -45q-73 0 -123.5 49.5t-50.5 121.5q0 71 56 121q49 45 117 45z" />
    <glyph glyph-name="ring" unicode="&#x2da;" horiz-adv-x="975" 
d="M487 1454q112 0 187 -82q62 -69 62 -162q0 -108 -81 -181q-71 -63 -169 -63q-109 0 -183 82q-63 70 -63 166q0 102 82 177q69 63 165 63zM487 1316q-43 0 -74 -31.5t-31 -75.5q0 -43 31.5 -74t74.5 -31q44 0 75 31t31 75t-31 75t-76 31z" />
    <glyph glyph-name="ogonek" unicode="&#x2db;" horiz-adv-x="975" 
d="M939 0q-58 -74 -58 -110q0 -13 16 -13q27 0 74 24l87 -205q-143 -50 -212 -50q-132 0 -202 77q-51 57 -51 132q0 65 55 145h291z" />
    <glyph glyph-name="tilde" unicode="&#x2dc;" horiz-adv-x="975" 
d="M592 1377l242 -52q-9 -116 -43 -172q-25 -43 -75.5 -68.5t-108.5 -25.5q-82 0 -166 41q-24 12 -38 12q-10 0 -14.5 -12t-12.5 -57l-236 51q11 113 49 173q27 41 75 67t99 26q83 0 174 -47q21 -11 33 -11q11 0 15 13.5t7 61.5z" />
    <glyph glyph-name="hungarumlaut" unicode="&#x2dd;" horiz-adv-x="975" 
d="M664 1327l84 118l236 -126l-351 -327l-147 84l133 188l-292 -273l-166 99l278 355z" />
    <glyph glyph-name="hookabovecomb" unicode="&#x309;" horiz-adv-x="975" 
d="M682 1446h-261q3 86 9 109.5t32 54.5q14 18 14 24q0 10 -19 10l-75 -23l-87 205q98 34 133 42t81 8q140 0 206 -73q45 -51 45 -115t-42 -124l-33 -49q-3 -4 -3 -19q0 -2 -1 -14v-16q0 -2 1 -20z" />
    <glyph glyph-name="dotbelowcomb" unicode="&#x323;" horiz-adv-x="975" 
d="M488 -68q78 0 130 -57q43 -48 43 -111q0 -74 -56 -124q-50 -45 -117 -45q-73 0 -123.5 49.5t-50.5 121.5q0 71 56 121q49 45 118 45z" />
    <glyph glyph-name="uni037E" unicode="&#x37e;" horiz-adv-x="566" 
d="M231 288l267 -98l-262 -588l-220 87zM319 884q79 0 131 -57q43 -47 43 -111q0 -74 -56 -124q-50 -44 -117 -44q-73 0 -123.5 49.5t-50.5 121.5q0 70 56 120q49 45 117 45z" />
    <glyph glyph-name="anoteleia" unicode="&#x387;" horiz-adv-x="544" 
d="M272 852q79 0 131 -57q43 -48 43 -111q0 -74 -56 -124q-50 -45 -119 -45q-77 0 -129 57q-43 48 -43 114q0 71 56 121q49 45 117 45z" />
    <glyph glyph-name="uni1E1E" unicode="&#x1e1e;" horiz-adv-x="937" 
d="M890 1365v-279h-456v-254h416v-281h-416v-551h-303v1365h759zM510 1805q79 0 131 -57q43 -47 43 -111q0 -74 -56 -124q-50 -44 -117 -44q-73 0 -123.5 49.5t-50.5 121.5q0 70 56 120q49 45 117 45z" />
    <glyph glyph-name="uni1E1F" unicode="&#x1e1f;" horiz-adv-x="564" 
d="M405 649v-649h-291v649h-82v259h82v152q0 179 91 259q73 65 189 65q68 0 155 -19v-259q-53 19 -89 19q-55 0 -55 -71v-146h147v-259h-147zM343 1793q79 0 131 -57q43 -48 43 -112q0 -73 -56 -123q-50 -45 -117 -45q-73 0 -123.5 49.5t-50.5 121.5q0 70 56 121
q49 45 117 45z" />
    <glyph glyph-name="Wgrave" unicode="&#x1e80;" horiz-adv-x="1797" 
d="M297 1365l238 -807l239 807h248l240 -807l237 807h316l-411 -1365h-266l-240 808l-240 -808h-266l-411 1365h316zM534 1748l269 134l280 -358l-197 -104z" />
    <glyph glyph-name="wgrave" unicode="&#x1e81;" horiz-adv-x="1339" 
d="M-31 908h305l145 -437l142 437h217l143 -437l145 437h304l-326 -908h-234l-141 428l-140 -428h-234zM306 1320l268 134l280 -358l-197 -105z" />
    <glyph glyph-name="Wacute" unicode="&#x1e82;" horiz-adv-x="1797" 
d="M297 1365l238 -807l239 807h248l240 -807l237 807h316l-411 -1365h-266l-240 808l-240 -808h-266l-411 1365h316zM1271 1748l-352 -328l-196 104l279 358z" />
    <glyph glyph-name="wacute" unicode="&#x1e83;" horiz-adv-x="1341" 
d="M-31 908h305l145 -437l142 437h217l143 -437l145 437h304l-326 -908h-234l-141 428l-140 -428h-234zM961 1320l-352 -329l-197 105l280 358z" />
    <glyph glyph-name="Wdieresis" unicode="&#x1e84;" horiz-adv-x="1797" 
d="M297 1365l238 -807l239 807h248l240 -807l237 807h316l-411 -1365h-266l-240 808l-240 -808h-266l-411 1365h316zM1091 1793q73 0 121 -53q40 -44 40 -103q0 -69 -52 -115q-46 -41 -109 -41q-68 0 -114.5 46t-46.5 112q0 63 47.5 108.5t113.5 45.5zM705 1793
q73 0 121 -53q40 -44 40 -103q0 -65 -47 -110.5t-115 -45.5q-67 0 -113.5 46t-46.5 113q0 62 47.5 107.5t113.5 45.5z" />
    <glyph glyph-name="wdieresis" unicode="&#x1e85;" horiz-adv-x="1339" 
d="M-31 908h305l145 -437l142 437h217l143 -437l145 437h304l-326 -908h-234l-141 428l-140 -428h-234zM863 1376q72 0 121 -53q40 -44 40 -103q0 -69 -52 -115q-46 -41 -110 -41q-67 0 -113.5 46.5t-46.5 112.5q0 65 52 112q46 41 109 41zM477 1376q73 0 121 -53
q40 -44 40 -103q0 -69 -52 -115q-46 -41 -109 -41q-67 0 -114 46t-47 112q0 63 47.5 108.5t113.5 45.5z" />
    <glyph glyph-name="uni1EA0" unicode="&#x1ea0;" horiz-adv-x="1330" 
d="M922 301h-516l-105 -301h-320l510 1365h347l510 -1365h-321zM825 582l-161 459l-161 -459h322zM665 -68q78 0 130 -57q43 -47 43 -111q0 -75 -56 -124q-50 -45 -117 -45q-73 0 -123.5 49.5t-50.5 121.5q0 71 56 121q49 45 118 45z" />
    <glyph glyph-name="uni1EA1" unicode="&#x1ea1;" horiz-adv-x="1113" 
d="M1016 0h-291v44q-109 -78 -228 -78q-115 0 -219 60q-108 63 -172 173q-67 116 -67 255q0 226 159 370q130 118 299 118q119 0 228 -78v44h291v-908zM529 680q-85 0 -143 -62q-54 -59 -54 -166q0 -115 69 -175q55 -49 131 -49q86 0 142 61q54 59 54 167q0 117 -68 177
q-53 47 -131 47zM551 -68q79 0 131 -57q43 -48 43 -111q0 -74 -56 -124q-50 -45 -117 -45q-73 0 -123.5 49.5t-50.5 121.5q0 70 56 121q49 45 117 45z" />
    <glyph glyph-name="uni1EA2" unicode="&#x1ea2;" horiz-adv-x="1330" 
d="M809 1446h-261q3 86 9 109.5t32 54.5q15 18 15 24q0 10 -19 10l-75 -23l-88 205q98 34 133 42t81 8q141 0 207 -73q45 -50 45 -115q0 -62 -42 -124l-34 -49q-2 -3 -2 -19q0 -1 -1 -14v-36zM922 301h-516l-105 -301h-320l510 1365h347l510 -1365h-321zM825 582l-161 459
l-161 -459h322z" />
    <glyph glyph-name="uni1EA3" unicode="&#x1ea3;" horiz-adv-x="1113" 
d="M1016 0h-291v44q-109 -78 -228 -78q-115 0 -219 60q-108 63 -172 173q-67 116 -67 255q0 226 159 370q130 118 299 118q119 0 228 -78v44h291v-908zM529 680q-85 0 -143 -62q-54 -59 -54 -166q0 -115 69 -175q55 -49 131 -49q86 0 142 61q54 59 54 167q0 117 -68 177
q-53 47 -131 47zM682 1022h-261q3 84 9 109t32 55q14 17 14 24q0 10 -19 10q-1 0 -75 -23l-87 205q94 33 131 41.5t83 8.5q140 0 206 -73q45 -50 45 -116q0 -62 -42 -123l-33 -49q-3 -4 -3 -19q0 -2 -1 -14v-18q0 -7 1 -18z" />
    <glyph glyph-name="uni1EA4" unicode="&#x1ea4;" horiz-adv-x="1330" 
d="M979 1609l84 -86l-221 -102l-177 165l-177 -165l-222 102l312 318h173l59 -61l160 206l268 -134zM922 301h-516l-105 -301h-320l510 1365h347l510 -1365h-321zM825 582l-161 459l-161 -459h322z" />
    <glyph glyph-name="uni1EA5" unicode="&#x1ea5;" horiz-adv-x="1112" 
d="M672 1341l241 309l269 -134l-352 -329l-14 8l109 -111l-220 -102l-177 168l-177 -168l-220 102l311 317h172zM1016 0h-291v44q-110 -78 -227 -78q-116 0 -220 60q-108 63 -172 173q-67 116 -67 256q0 225 159 369q130 118 300 118q117 0 227 -78v44h291v-908zM529 680
q-85 0 -143 -62q-54 -59 -54 -167q0 -114 69 -174q55 -49 131 -49q86 0 142 61q54 59 54 167q0 117 -68 177q-53 47 -131 47z" />
    <glyph glyph-name="uni1EA6" unicode="&#x1ea6;" horiz-adv-x="1330" 
d="M922 301h-516l-105 -301h-320l510 1365h347l510 -1365h-321zM825 582l-161 459l-161 -459h322zM712 1904l269 134l279 -359l-196 -104zM796 1421l-177 159l-177 -159l-221 102l312 318h173l311 -318z" />
    <glyph glyph-name="uni1EA7" unicode="&#x1ea7;" horiz-adv-x="1112" 
d="M568 1401l311 -317l-220 -102l-177 168l-177 -168l-219 102l310 317h172zM1016 0h-291v44q-110 -78 -227 -78q-116 0 -220 60q-108 63 -172 173q-67 116 -67 256q0 225 159 369q130 118 300 118q117 0 227 -78v44h291v-908zM529 680q-85 0 -143 -62q-54 -59 -54 -167
q0 -114 69 -174q55 -49 131 -49q86 0 142 61q54 59 54 167q0 117 -68 177q-53 47 -131 47zM523 1500l269 134l280 -358l-197 -104z" />
    <glyph glyph-name="uni1EA8" unicode="&#x1ea8;" horiz-adv-x="1330" 
d="M985 1603l78 -79l-221 -103l-177 160l-177 -160l-222 103l312 317h173l144 -146l5 14q1 2 2 7q4 21 23 54l1 1q13 17 13 21q0 9 -19 9q-18 0 -52 -15q-12 -5 -22 -9l-87 205q93 33 130.5 42t84.5 9q139 0 205 -73q45 -51 45 -116q0 -63 -42 -124l-33 -48q-3 -4 -3 -19
q0 -1 -1 -14v-17v-19h-160zM922 301h-516l-105 -301h-320l510 1365h347l510 -1365h-321zM825 582l-161 459l-161 -459h322z" />
    <glyph glyph-name="uni1EA9" unicode="&#x1ea9;" horiz-adv-x="1112" 
d="M711 1302q3 6 12 29q7 23 29 50q8 9 8 14q0 10 -19 10l-75 -23l-87 205q94 33 131 41.5t83 8.5q140 0 206 -73q45 -50 45 -116q0 -62 -42 -123l-33 -49q-3 -4 -3 -19q0 -2 -1 -14v-18v-18h-161l121 -123l-220 -102l-177 168l-177 -168l-220 102l311 317h172zM1016 0h-291
v44q-110 -78 -227 -78q-116 0 -220 60q-108 63 -172 173q-67 116 -67 256q0 225 159 369q130 118 300 118q117 0 227 -78v44h291v-908zM529 680q-85 0 -143 -62q-54 -59 -54 -167q0 -114 69 -174q55 -49 131 -49q86 0 142 61q54 59 54 167q0 117 -68 177q-53 47 -131 47z
" />
    <glyph glyph-name="uni1EAA" unicode="&#x1eaa;" horiz-adv-x="1330" 
d="M922 301h-516l-105 -301h-320l510 1365h347l510 -1365h-321zM825 582l-161 459l-161 -459h322zM487 1409l-221 95l312 297h173l311 -297l-221 -95l-177 150zM770 2125l242 -49q-9 -105 -40 -156q-26 -41 -77 -66t-111 -25q-82 0 -166 39q-23 11 -38 11t-26 -65l-236 48
q11 102 45 155q27 41 75.5 66.5t100.5 25.5q85 0 176 -44q21 -11 33 -11q17 0 22 71z" />
    <glyph glyph-name="uni1EAB" unicode="&#x1eab;" horiz-adv-x="1112" 
d="M1016 0h-291v44q-110 -78 -227 -78q-116 0 -220 60q-108 63 -172 173q-67 116 -67 256q0 225 159 369q130 118 300 118q117 0 227 -78v44h291v-908zM529 680q-85 0 -143 -62q-54 -59 -54 -167q0 -114 69 -174q55 -49 131 -49q86 0 142 61q54 59 54 167q0 117 -68 177
q-53 47 -131 47zM350 1004l-221 96l312 296h173l312 -296l-222 -96l-177 150zM633 1726l242 -48q-9 -105 -40 -156q-26 -42 -76.5 -67t-110.5 -25q-84 0 -166 40q-24 11 -38 11q-10 0 -14.5 -11t-12.5 -55l-236 48q11 103 45 156q27 41 75.5 66.5t101.5 25.5q84 0 175 -45
q22 -11 33 -11t15 13.5t7 57.5z" />
    <glyph glyph-name="uni1EAC" unicode="&#x1eac;" horiz-adv-x="1330" 
d="M922 301h-516l-105 -301h-320l510 1365h347l510 -1365h-321zM825 582l-161 459l-161 -459h322zM665 -68q78 0 130 -57q43 -47 43 -111q0 -75 -56 -124q-50 -45 -117 -45q-73 0 -123.5 49.5t-50.5 121.5q0 71 56 121q49 45 118 45zM488 1421l-222 102l312 318h173
l312 -318l-221 -102l-177 159z" />
    <glyph glyph-name="uni1EAD" unicode="&#x1ead;" horiz-adv-x="1113" 
d="M1016 0h-291v44q-109 -78 -228 -78q-115 0 -219 60q-108 63 -172 173q-67 116 -67 255q0 226 159 370q130 118 299 118q119 0 228 -78v44h291v-908zM529 680q-85 0 -143 -62q-54 -59 -54 -166q0 -115 69 -175q55 -49 131 -49q86 0 142 61q54 59 54 167q0 117 -68 177
q-53 47 -131 47zM543 -68q79 0 131 -57q43 -48 43 -111q0 -74 -56 -124q-50 -45 -117 -45q-73 0 -123.5 49.5t-50.5 121.5q0 70 56 121q49 45 117 45zM705 995l-177 167l-178 -167l-219 101l311 317h172l310 -317z" />
    <glyph glyph-name="uni1EAE" unicode="&#x1eae;" horiz-adv-x="1330" 
d="M327 1764l251 18q2 -26 4 -57q4 -84 78 -84q47 0 66 34q13 23 26 106l251 -17q-12 -92 -17 -113t-21 -52q-39 -75 -111 -121q-83 -54 -194 -54q-160 0 -258 103q-65 70 -72 152q-1 20 -3 85zM1012 2055l-352 -306l-196 97l279 333zM922 301h-516l-105 -301h-320l510 1365
h347l510 -1365h-321zM825 582l-161 459l-161 -459h322z" />
    <glyph glyph-name="uni1EAF" unicode="&#x1eaf;" horiz-adv-x="1113" 
d="M1016 0h-291v44q-109 -78 -228 -78q-115 0 -219 60q-108 63 -172 173q-67 116 -67 255q0 226 159 370q130 118 299 118q119 0 228 -78v44h291v-908zM529 680q-85 0 -143 -62q-54 -59 -54 -166q0 -115 69 -175q55 -49 131 -49q86 0 142 61q54 59 54 167q0 117 -68 177
q-53 47 -131 47zM191 1347l251 18q5 -94 19 -114q21 -27 63 -27q47 0 66 34q13 23 26 106l251 -17q-12 -92 -17 -113t-21 -52q-39 -75 -111 -121q-83 -54 -194 -54q-161 0 -258 103q-65 70 -72 152q-1 20 -3 85zM880 1648l-352 -307l-197 97l280 334z" />
    <glyph glyph-name="uni1EB0" unicode="&#x1eb0;" horiz-adv-x="1330" 
d="M327 1764l251 18q5 -94 19 -114q21 -27 62 -27q61 0 79 65l14 75l251 -17q-12 -92 -17 -113t-21 -52q-39 -75 -111 -121q-83 -54 -194 -54q-160 0 -258 103q-65 70 -72 152q-1 20 -3 85zM305 2055l269 124l280 -333l-197 -97zM922 301h-516l-105 -301h-320l510 1365h347
l510 -1365h-321zM825 582l-161 459l-161 -459h322z" />
    <glyph glyph-name="uni1EB1" unicode="&#x1eb1;" horiz-adv-x="1113" 
d="M191 1347l251 18q5 -94 19 -114q21 -27 63 -27q47 0 66 34q13 23 26 106l251 -17q-12 -92 -17 -113t-21 -52q-39 -75 -111 -121q-83 -54 -194 -54q-161 0 -258 103q-65 70 -72 152q-1 20 -3 85zM167 1648l269 124l280 -334l-197 -97zM1016 0h-291v44q-109 -78 -228 -78
q-115 0 -219 60q-108 63 -172 173q-67 116 -67 255q0 226 159 370q130 118 299 118q119 0 228 -78v44h291v-908zM529 680q-85 0 -143 -62q-54 -59 -54 -166q0 -115 69 -175q55 -49 131 -49q86 0 142 61q54 59 54 167q0 117 -68 177q-53 47 -131 47z" />
    <glyph glyph-name="uni1EB2" unicode="&#x1eb2;" horiz-adv-x="1330" 
d="M548 1783q3 78 8.5 97.5t32.5 50.5q14 17 14 24q0 9 -19 9q-11 0 -75 -22l-87 190q98 32 132.5 39.5t80.5 7.5q145 0 210 -72q42 -46 42 -104t-42 -115l-33 -45q-3 -4 -3 -19q0 -1 -1 -12v-17v-14l195 -14q-12 -91 -17 -112t-21 -53q-39 -74 -111 -120q-83 -54 -193 -54
q-161 0 -259 103q-65 69 -72 152q-1 20 -3 85zM579 1778v-7l3 -44q4 -82 78 -82q47 0 66 34q12 22 24 92l1 7h-172zM922 301h-516l-105 -301h-320l510 1365h347l510 -1365h-321zM825 582l-161 459l-161 -459h322z" />
    <glyph glyph-name="uni1EB3" unicode="&#x1eb3;" horiz-adv-x="1113" 
d="M191 1347l251 18q5 -94 19 -114q21 -27 63 -27q47 0 66 34q13 23 26 106l251 -17q-12 -92 -17 -113t-21 -52q-39 -75 -111 -121q-83 -54 -194 -54q-161 0 -258 103q-65 70 -72 152q-1 20 -3 85zM672 1380h-260q2 78 8 100t33 53q14 17 14 24q0 9 -19 9t-53 -14
q-12 -5 -22 -8l-88 190q96 31 132.5 39t82.5 8q144 0 209 -72q42 -46 42 -104q0 -57 -42 -115l-33 -45q-5 -7 -4 -65zM1016 0h-291v44q-109 -78 -228 -78q-115 0 -219 60q-108 63 -172 173q-67 116 -67 255q0 226 159 370q130 118 299 118q119 0 228 -78v44h291v-908z
M529 680q-85 0 -143 -62q-54 -59 -54 -166q0 -115 69 -175q55 -49 131 -49q86 0 142 61q54 59 54 167q0 117 -68 177q-53 47 -131 47z" />
    <glyph glyph-name="uni1EB4" unicode="&#x1eb4;" horiz-adv-x="1330" 
d="M327 1768l251 17q4 -94 19 -114q20 -27 63 -27q47 0 66 34q13 24 25 107l252 -18q-12 -91 -17 -112.5t-22 -52.5q-39 -75 -110 -121q-83 -54 -194 -54q-162 0 -258 103q-66 70 -72 152q-2 21 -3 86zM770 2110l242 -48q-9 -105 -40 -157q-26 -41 -77 -66t-110 -25
q-83 0 -167 39q-23 11 -38 11q-9 0 -14 -12t-12 -53l-236 48q11 102 45 155q59 92 185 92q86 0 156 -39q27 -15 44 -16q10 0 14 13.5t8 57.5zM922 301h-516l-105 -301h-320l510 1365h347l510 -1365h-321zM825 582l-161 459l-161 -459h322z" />
    <glyph glyph-name="uni1EB5" unicode="&#x1eb5;" horiz-adv-x="1113" 
d="M194 1353l251 18q5 -94 19 -114q20 -27 63 -27q47 0 66 34q13 23 26 106l251 -18q-12 -91 -17 -112t-21 -52q-40 -75 -111 -121q-83 -54 -194 -54q-161 0 -258 103q-65 69 -72 152q-1 20 -3 85zM637 1702l242 -49q-9 -105 -40 -156q-26 -41 -76.5 -66t-110.5 -25
q-84 0 -166 39q-24 11 -39 11t-26 -65l-236 48q11 102 45 155q28 43 77.5 67.5t107.5 24.5q86 0 156 -39q28 -16 44 -16q17 0 22 71zM1016 0h-291v44q-110 -78 -227 -78q-116 0 -220 60q-108 63 -172 173q-67 116 -67 256q0 225 159 369q130 118 300 118q117 0 227 -78v44
h291v-908zM529 680q-85 0 -143 -62q-54 -59 -54 -167q0 -114 69 -174q55 -49 131 -49q86 0 142 61q54 59 54 167q0 117 -68 177q-53 47 -131 47z" />
    <glyph glyph-name="uni1EB6" unicode="&#x1eb6;" horiz-adv-x="1330" 
d="M922 301h-516l-105 -301h-320l510 1365h347l510 -1365h-321zM825 582l-161 459l-161 -459h322zM327 1799l251 19q4 -102 20 -123q20 -28 61 -28q47 0 66 35q14 25 26 115l252 -19q-12 -100 -17.5 -123.5t-23.5 -58.5q-41 -81 -114 -130q-81 -53 -188 -53q-155 0 -253 105
q-70 76 -77 169q-2 22 -3 92zM665 -68q78 0 130 -57q43 -47 43 -111q0 -75 -56 -124q-50 -45 -117 -45q-73 0 -123.5 49.5t-50.5 121.5q0 71 56 121q49 45 118 45z" />
    <glyph glyph-name="uni1EB7" unicode="&#x1eb7;" horiz-adv-x="1113" 
d="M1016 0h-291v44q-110 -78 -227 -78q-116 0 -220 60q-108 63 -172 173q-67 116 -67 256q0 225 159 369q130 118 300 118q117 0 227 -78v44h291v-908zM529 680q-85 0 -143 -62q-54 -59 -54 -167q0 -114 69 -174q55 -49 131 -49q86 0 142 61q54 59 54 167q0 117 -68 177
q-53 47 -131 47zM543 -68q79 0 131 -57q43 -48 43 -111q0 -74 -56 -124q-50 -45 -117 -45q-73 0 -123.5 49.5t-50.5 121.5q0 70 56 121q49 45 117 45zM190 1370l251 19q4 -107 21 -130q20 -27 60 -27q49 0 72 47q6 13 20 110l252 -19q-12 -100 -17.5 -123.5t-23.5 -58.5
q-41 -82 -114 -130q-81 -53 -188 -53q-155 0 -252 105q-71 76 -78 168q-2 21 -3 92z" />
    <glyph glyph-name="uni1EB8" unicode="&#x1eb8;" horiz-adv-x="1006" 
d="M933 1365v-278h-501v-256h446v-279h-446v-271h520v-281h-821v1365h802zM550 -68q79 0 131 -57q43 -48 43 -111q0 -74 -56 -124q-50 -45 -117 -45q-73 0 -123.5 49.5t-50.5 121.5q0 70 56 121q49 45 117 45z" />
    <glyph glyph-name="uni1EB9" unicode="&#x1eb9;" horiz-adv-x="1011" 
d="M949 211q-159 -245 -428 -245q-219 0 -357 155q-125 140 -125 334q0 222 158 366q132 121 313 121q205 0 340 -151q123 -137 123 -357q0 -28 -3 -75h-633q26 -73 68.5 -106t110.5 -33q113 0 172 92zM684 550q-24 74 -64.5 107t-108.5 33q-70 0 -111.5 -33.5t-62.5 -106.5
h347zM511 -68q78 0 130 -57q43 -48 43 -112q0 -73 -56 -123q-50 -45 -117 -45q-73 0 -123.5 49.5t-50.5 121.5q0 71 56 121q49 45 118 45z" />
    <glyph glyph-name="uni1EBA" unicode="&#x1eba;" horiz-adv-x="1006" 
d="M933 1365v-278h-501v-256h446v-279h-446v-271h520v-281h-821v1365h802zM695 1446h-260q3 85 9 109t32 55q14 18 14 24q0 10 -19 10l-75 -23l-87 205q97 34 132.5 42t81.5 8q140 0 206 -73q45 -50 45 -116q0 -62 -42 -123l-33 -49q-3 -4 -3 -19q0 -1 -1 -14v-16v-20z" />
    <glyph glyph-name="uni1EBB" unicode="&#x1ebb;" horiz-adv-x="1011" 
d="M949 211q-159 -245 -428 -245q-219 0 -357 155q-125 140 -125 334q0 222 158 366q132 121 313 121q205 0 340 -151q123 -137 123 -357q0 -28 -3 -75h-633q26 -73 68.5 -106t110.5 -33q113 0 172 92zM684 550q-24 74 -64.5 107t-108.5 33q-70 0 -111.5 -33.5t-62.5 -106.5
h347zM660 1022h-261q4 86 9.5 109.5t31.5 54.5q15 18 15 24q0 10 -19 10q-1 0 -75 -23l-88 205q93 32 130.5 41t83.5 9q140 0 207 -73q45 -50 45 -115q0 -63 -42 -124l-33 -49q-3 -3 -3 -19q0 -3 -1 -14v-36z" />
    <glyph glyph-name="uni1EBC" unicode="&#x1ebc;" horiz-adv-x="1006" 
d="M933 1365v-278h-501v-256h446v-279h-446v-271h520v-281h-821v1365h802zM609 1805l242 -52q-9 -116 -42 -172q-26 -43 -76 -68.5t-109 -25.5q-81 0 -166 41q-23 12 -38 12q-10 0 -14.5 -12t-11.5 -58l-237 52q11 113 50 173q26 41 74 67t99 26q84 0 175 -47q20 -11 33 -11
q10 0 14 13t7 62z" />
    <glyph glyph-name="uni1EBD" unicode="&#x1ebd;" horiz-adv-x="1011" 
d="M949 211q-159 -245 -428 -245q-219 0 -357 155q-125 140 -125 334q0 222 158 366q132 121 313 121q205 0 340 -151q123 -137 123 -357q0 -28 -3 -75h-633q26 -73 68.5 -106t110.5 -33q113 0 172 92zM684 550q-24 74 -64.5 107t-108.5 33q-70 0 -111.5 -33.5t-62.5 -106.5
h347zM611 1377l242 -52q-9 -115 -43 -172q-26 -43 -76 -68.5t-108 -25.5q-82 0 -166 41q-24 12 -38 12q-10 0 -15 -12t-12 -57l-236 51q11 113 49 173q27 42 75 67.5t99 25.5q83 0 174 -47q21 -11 33 -11q11 0 15 13.5t7 61.5z" />
    <glyph glyph-name="uni1EBE" unicode="&#x1ebe;" horiz-adv-x="1066" 
d="M946 1365v-278h-501v-256h445v-279h-445v-271h520v-281h-821v1365h802zM843 1609l84 -86l-221 -102l-177 165l-177 -165l-221 102l312 318h173l59 -61l159 206l269 -134z" />
    <glyph glyph-name="uni1EBF" unicode="&#x1ebf;" horiz-adv-x="1011" 
d="M657 1341l240 309l268 -134l-348 -325l-86 73l177 -180l-220 -102l-177 168l-177 -168l-219 102l311 317h171zM949 211q-159 -245 -428 -245q-219 0 -357 155q-125 140 -125 334q0 222 158 366q132 121 313 121q205 0 340 -151q123 -137 123 -357q0 -28 -3 -75h-633
q26 -73 68.5 -106t110.5 -33q113 0 172 92zM684 550q-24 74 -64.5 107t-108.5 33q-70 0 -111.5 -33.5t-62.5 -106.5h347z" />
    <glyph glyph-name="uni1EC0" unicode="&#x1ec0;" horiz-adv-x="1140" 
d="M961 1365v-278h-501v-256h446v-279h-446v-271h520v-281h-821v1365h802zM622 1904l269 134l279 -359l-196 -104zM706 1421l-177 159l-177 -159l-221 102l312 318h173l311 -318z" />
    <glyph glyph-name="uni1EC1" unicode="&#x1ec1;" horiz-adv-x="1011" 
d="M949 211q-159 -245 -428 -245q-219 0 -357 155q-125 140 -125 334q0 222 158 366q132 121 313 121q205 0 340 -151q123 -137 123 -357q0 -28 -3 -75h-633q26 -73 68.5 -106t110.5 -33q113 0 172 92zM684 550q-24 74 -64.5 107t-108.5 33q-70 0 -111.5 -33.5t-62.5 -106.5
h347zM559 1401l310 -317l-220 -102l-177 168l-177 -168l-219 102l310 317h173zM513 1500l269 134l280 -358l-197 -104z" />
    <glyph glyph-name="uni1EC2" unicode="&#x1ec2;" horiz-adv-x="1060" 
d="M850 1603l77 -79l-221 -103l-177 160l-177 -160l-221 103l312 317h173l144 -146l4 14q1 2 2 7q5 23 24 54l1 1q13 17 13 21q0 9 -19 9q-18 0 -53 -15q-12 -5 -21 -9l-88 205q93 33 131 42t84 9q140 0 206 -73q45 -51 45 -116q0 -62 -42 -124l-33 -48q-4 -5 -4 -69h-160z
M972 1365v-278h-501v-256h446v-279h-446v-271h520v-281h-821v1365h802z" />
    <glyph glyph-name="uni1EC3" unicode="&#x1ec3;" horiz-adv-x="1011" 
d="M680 1302q3 6 11 29q8 22 30 50q8 9 8 14q0 10 -19 10l-75 -23l-88 205q95 33 132 41.5t83 8.5q140 0 206 -73q45 -50 45 -116q0 -61 -42 -123l-33 -49q-3 -3 -3 -19q0 -1 -1 -14v-36h-161l120 -123l-219 -102l-177 168l-177 -168l-220 102l311 317h172zM949 211
q-159 -245 -428 -245q-219 0 -357 155q-125 140 -125 334q0 222 158 366q132 121 313 121q205 0 340 -151q123 -137 123 -357q0 -28 -3 -75h-633q26 -73 68.5 -106t110.5 -33q113 0 172 92zM684 550q-24 74 -64.5 107t-108.5 33q-70 0 -111.5 -33.5t-62.5 -106.5h347z" />
    <glyph glyph-name="uni1EC4" unicode="&#x1ec4;" horiz-adv-x="1006" 
d="M933 1365v-278h-501v-256h446v-279h-446v-271h520v-281h-821v1365h802zM338 1409l-221 95l312 297h173l311 -297l-221 -95l-177 150zM621 2125l242 -49q-9 -105 -40 -156q-26 -41 -77 -66t-111 -25q-82 0 -165 39q-24 11 -39 11t-26 -65l-236 48q11 102 45 155
q27 41 75.5 66.5t101.5 25.5q84 0 175 -44q22 -11 34 -11q16 0 21 71z" />
    <glyph glyph-name="uni1EC5" unicode="&#x1ec5;" horiz-adv-x="1011" 
d="M949 211q-159 -245 -428 -245q-219 0 -357 155q-125 140 -125 334q0 222 158 366q132 121 313 121q205 0 340 -151q123 -137 123 -357q0 -28 -3 -75h-633q26 -73 68.5 -106t110.5 -33q113 0 172 92zM684 550q-24 74 -64.5 107t-108.5 33q-70 0 -111.5 -33.5t-62.5 -106.5
h347zM334 1004l-221 96l312 296h172l312 -296l-221 -96l-177 150zM616 1726l242 -48q-8 -105 -40 -156q-25 -42 -76 -67t-111 -25q-83 0 -166 40q-23 11 -38 11q-10 0 -14.5 -11t-12.5 -55l-236 48q11 103 46 156q27 41 75.5 66.5t100.5 25.5q85 0 176 -45q21 -11 33 -11
q10 0 14 13.5t7 57.5z" />
    <glyph glyph-name="uni1EC6" unicode="&#x1ec6;" horiz-adv-x="1006" 
d="M569 -68q78 0 130 -57q43 -48 43 -112q0 -73 -56 -123q-50 -45 -119 -45q-77 0 -129 57q-43 48 -43 114q0 71 56 121q49 45 118 45zM365 1421l-221 102l312 318h172l312 -318l-221 -102l-177 159zM933 1365v-278h-501v-256h446v-279h-446v-271h520v-281h-821v1365h802z
" />
    <glyph glyph-name="uni1EC7" unicode="&#x1ec7;" horiz-adv-x="1011" 
d="M949 211q-159 -245 -428 -245q-219 0 -357 155q-125 140 -125 334q0 222 158 366q132 121 313 121q205 0 340 -151q123 -137 123 -357q0 -28 -3 -75h-633q26 -73 68.5 -106t110.5 -33q113 0 172 92zM684 550q-24 74 -64.5 107t-108.5 33q-70 0 -111.5 -33.5t-62.5 -106.5
h347zM520 -68q78 0 130 -57q43 -48 43 -111q0 -74 -56 -124q-50 -45 -117 -45q-73 0 -123.5 49.5t-50.5 121.5q0 71 56 121q49 45 118 45zM687 995l-177 167l-177 -167l-219 101l310 317h172l311 -317z" />
    <glyph glyph-name="uni1EC8" unicode="&#x1ec8;" horiz-adv-x="563" 
d="M431 1365v-1365h-303v1365h303zM433 1446h-261q3 84 9 108.5t32 55.5q14 18 14 24q0 10 -19 10l-74 -23l-88 205q98 34 133 42t81 8q140 0 206 -73q45 -51 45 -116q0 -63 -42 -123l-33 -49q-3 -4 -3 -19q0 -2 -1 -14v-16q0 -2 1 -20z" />
    <glyph glyph-name="uni1EC9" unicode="&#x1ec9;" horiz-adv-x="487" 
d="M388 908v-908h-291v908h291zM392 1022h-261q3 84 9 109t32 55q14 17 14 24q0 10 -19 10l-74 -23l-88 205q94 33 131 41.5t83 8.5q140 0 206 -73q45 -50 45 -116q0 -62 -42 -123l-33 -49q-3 -4 -3 -19q0 -2 -1 -14v-18q0 -9 1 -18z" />
    <glyph glyph-name="uni1ECA" unicode="&#x1eca;" horiz-adv-x="559" 
d="M431 1365v-1365h-303v1365h303zM280 -68q78 0 130 -57q43 -48 43 -112q0 -73 -56 -123q-50 -45 -117 -45q-73 0 -123.5 49.5t-50.5 121.5q0 70 56 121q49 45 118 45z" />
    <glyph glyph-name="uni1ECB" unicode="&#x1ecb;" horiz-adv-x="487" 
d="M243 1388q79 0 131 -57q43 -48 43 -111q0 -74 -56 -124q-50 -45 -117 -45q-73 0 -123.5 49.5t-50.5 121.5q0 71 56 121q49 45 117 45zM389 908v-908h-291v908h291zM244 -68q78 0 130 -57q43 -48 43 -111q0 -74 -56 -124q-50 -45 -117 -45q-73 0 -123.5 49.5t-50.5 121.5
q0 70 56 121q49 45 118 45z" />
    <glyph glyph-name="uni1ECC" unicode="&#x1ecc;" horiz-adv-x="1563" 
d="M782 1399q195 0 359 -95q172 -99 270 -264q99 -167 99 -358q0 -187 -95 -351q-95 -165 -263 -264q-173 -101 -376 -101q-191 0 -364 101q-168 99 -263 264t-95 362q0 186 99 347q105 171 270 264q168 95 359 95zM779 1117q-182 0 -309 -141q-111 -123 -111 -301
q0 -113 57 -212t159 -158q99 -57 207 -57t207 57q102 59 159 158q57 100 57 218q0 197 -143 327q-119 109 -283 109zM782 -68q78 0 130 -57q43 -48 43 -111q0 -74 -56 -124q-50 -45 -117 -45q-73 0 -123.5 49.5t-50.5 121.5q0 71 56 121q49 45 118 45z" />
    <glyph glyph-name="uni1ECD" unicode="&#x1ecd;" horiz-adv-x="1065" 
d="M539 942q218 0 364 -162q123 -137 123 -325q0 -219 -159 -363q-140 -126 -335 -126q-225 0 -370 162q-123 138 -123 327q0 184 116 317q149 170 384 170zM531 680q-56 0 -103 -28q-96 -58 -96 -198q0 -117 68 -177q56 -49 133 -49q88 0 146 62q54 59 54 166
q0 116 -68 175q-55 49 -134 49zM532 -68q79 0 131 -57q43 -48 43 -111q0 -74 -56 -124q-50 -45 -117 -45q-73 0 -123.5 49.5t-50.5 121.5q0 70 56 121q49 45 117 45z" />
    <glyph glyph-name="uni1ECE" unicode="&#x1ece;" horiz-adv-x="1563" 
d="M782 1399q195 0 359 -95q172 -99 270 -264q99 -167 99 -358q0 -187 -95 -351q-95 -165 -263 -264q-173 -101 -376 -101q-191 0 -364 101q-168 99 -263 264t-95 362q0 186 99 347q105 171 270 264q168 95 359 95zM779 1117q-182 0 -309 -141q-111 -123 -111 -301
q0 -113 57 -212t159 -158q99 -57 207 -57t207 57q102 59 159 158q57 100 57 218q0 197 -143 327q-119 109 -283 109zM936 1446h-261q3 83 9.5 108.5t32.5 55.5q14 17 14 24q0 10 -19 10l-75 -23l-88 205q98 34 133 42t81 8q141 0 207 -73q45 -51 45 -116q0 -61 -43 -123
l-32 -49q-4 -4 -4 -19q0 -1 -1 -14v-18q0 -9 1 -18z" />
    <glyph glyph-name="uni1ECF" unicode="&#x1ecf;" horiz-adv-x="1065" 
d="M539 942q218 0 364 -162q123 -137 123 -325q0 -219 -159 -363q-140 -126 -335 -126q-225 0 -370 162q-123 138 -123 327q0 184 116 317q149 170 384 170zM531 680q-56 0 -103 -28q-96 -58 -96 -198q0 -117 68 -177q56 -49 133 -49q88 0 146 62q54 59 54 166
q0 116 -68 175q-55 49 -134 49zM687 1022h-261q3 85 9 109.5t32 54.5q14 17 14 24q0 10 -19 10q-1 0 -75 -23l-87 205q94 33 131 41.5t83 8.5q140 0 206 -73q45 -50 45 -116q0 -62 -42 -123l-33 -49q-3 -4 -3 -19q0 -2 -1 -14v-18t1 -18z" />
    <glyph glyph-name="uni1ED0" unicode="&#x1ed0;" horiz-adv-x="1563" 
d="M782 1399q195 0 359 -95q172 -99 270 -264q99 -167 99 -358q0 -187 -95 -351q-95 -165 -263 -264q-173 -101 -376 -101q-191 0 -364 101q-168 99 -263 264t-95 362q0 186 99 347q105 171 270 264q168 95 359 95zM779 1117q-182 0 -309 -141q-111 -123 -111 -301
q0 -113 57 -212t159 -158q99 -57 207 -57t207 57q102 59 159 158q57 100 57 218q0 197 -143 327q-119 109 -283 109zM1096 1609l84 -86l-221 -102l-177 162l-177 -162l-221 102l312 318h172l59 -61l160 206l269 -134z" />
    <glyph glyph-name="uni1ED1" unicode="&#x1ed1;" horiz-adv-x="1065" 
d="M678 1341l240 309l269 -134l-348 -325l-86 73l176 -180l-219 -102l-177 168l-178 -168l-219 102l311 317h172zM539 942q218 0 364 -162q123 -137 123 -325q0 -219 -159 -363q-140 -126 -335 -126q-225 0 -370 162q-123 138 -123 327q0 184 116 317q149 170 384 170z
M531 680q-56 0 -103 -28q-96 -58 -96 -198q0 -117 68 -177q56 -49 133 -49q88 0 146 62q54 59 54 166q0 116 -68 175q-55 49 -134 49z" />
    <glyph glyph-name="uni1ED2" unicode="&#x1ed2;" horiz-adv-x="1563" 
d="M782 1399q195 0 359 -95q172 -99 270 -264q99 -167 99 -358q0 -187 -95 -351q-95 -165 -263 -264q-173 -101 -376 -101q-191 0 -364 101q-168 99 -263 264t-95 362q0 186 99 347q105 171 270 264q168 95 359 95zM779 1117q-182 0 -309 -141q-111 -123 -111 -301
q0 -113 57 -212t159 -158q99 -57 207 -57t207 57q102 59 159 158q57 100 57 218q0 197 -143 327q-119 109 -283 109zM875 1904l268 134l280 -359l-196 -104zM959 1421l-177 159l-177 -159l-221 102l312 318h172l312 -318z" />
    <glyph glyph-name="uni1ED3" unicode="&#x1ed3;" horiz-adv-x="1065" 
d="M539 942q218 0 364 -162q123 -137 123 -325q0 -219 -159 -363q-140 -126 -335 -126q-225 0 -370 162q-123 138 -123 327q0 184 116 317q149 170 384 170zM531 680q-56 0 -103 -28q-96 -58 -96 -198q0 -117 68 -177q56 -49 133 -49q88 0 146 62q54 59 54 166
q0 116 -68 175q-55 49 -134 49zM619 1401l310 -317l-219 -102l-177 168l-178 -168l-219 102l311 317h172zM574 1500l268 134l280 -358l-197 -104z" />
    <glyph glyph-name="uni1ED4" unicode="&#x1ed4;" horiz-adv-x="1563" 
d="M1102 1603l78 -79l-221 -103l-177 160l-177 -160l-221 103l312 317h172l144 -146l5 14q1 2 2 7q5 23 23 54l1 1q13 17 13 21q0 9 -18 9q-19 0 -53 -15q-12 -5 -22 -9l-87 205q94 33 131 42t84 9q139 0 205 -73q45 -51 45 -116q0 -63 -42 -124l-33 -48q-3 -4 -3 -19
q0 -1 -1 -14v-18t1 -18h-161zM782 1399q195 0 359 -95q172 -99 270 -264q99 -167 99 -358q0 -187 -95 -351q-95 -165 -263 -264q-173 -101 -376 -101q-191 0 -364 101q-168 99 -263 264t-95 362q0 186 99 347q105 171 270 264q168 95 359 95zM779 1117q-182 0 -309 -141
q-111 -123 -111 -301q0 -113 57 -212t159 -158q99 -57 207 -57t207 57q102 59 159 158q57 100 57 218q0 197 -143 327q-119 109 -283 109z" />
    <glyph glyph-name="uni1ED5" unicode="&#x1ed5;" horiz-adv-x="1065" 
d="M699 1300l5 11l11 30q6 17 24 44q6 8 6 12q0 8 -18 8l-75 -23l-87 205q94 33 131 41.5t83 8.5q140 0 206 -73q45 -50 45 -116q0 -62 -42 -123l-33 -49q-3 -4 -3 -19q0 -2 -1 -14v-36h-161l120 -123l-219 -102l-177 168l-177 -168l-220 102l311 317h172zM539 942
q218 0 364 -162q123 -137 123 -325q0 -219 -159 -363q-140 -126 -335 -126q-225 0 -370 162q-123 138 -123 327q0 184 116 317q149 170 384 170zM531 680q-56 0 -103 -28q-96 -58 -96 -198q0 -117 68 -177q56 -49 133 -49q88 0 146 62q54 59 54 166q0 116 -68 175
q-55 49 -134 49z" />
    <glyph glyph-name="uni1ED6" unicode="&#x1ed6;" horiz-adv-x="1563" 
d="M782 1399q195 0 359 -95q172 -99 270 -264q99 -167 99 -358q0 -187 -95 -351q-95 -165 -263 -264q-173 -101 -376 -101q-191 0 -364 101q-168 99 -263 264t-95 362q0 186 99 347q105 171 270 264q168 95 359 95zM779 1117q-182 0 -309 -141q-111 -123 -111 -301
q0 -113 57 -212t159 -158q99 -57 207 -57t207 57q102 59 159 158q57 100 57 218q0 197 -143 327q-119 109 -283 109zM604 1409l-221 95l312 297h173l311 -297l-221 -95l-177 150zM887 2125l242 -49q-9 -104 -40 -156q-26 -41 -76.5 -66t-111.5 -25q-81 0 -165 39
q-24 11 -39 11q-9 0 -14 -12t-12 -53l-236 48q11 102 45 155q27 41 75.5 66.5t101.5 25.5q85 0 175 -44q22 -11 34 -11q16 0 21 71z" />
    <glyph glyph-name="uni1ED7" unicode="&#x1ed7;" horiz-adv-x="1065" 
d="M539 942q218 0 364 -162q123 -137 123 -325q0 -219 -159 -363q-140 -126 -335 -126q-225 0 -370 162q-123 138 -123 327q0 184 116 317q149 170 384 170zM531 680q-56 0 -103 -28q-96 -58 -96 -198q0 -117 68 -177q56 -49 133 -49q88 0 146 62q54 59 54 166
q0 116 -68 175q-55 49 -134 49zM355 1004l-221 96l312 296h173l312 -296l-221 -96l-177 150zM638 1726l242 -48q-8 -105 -40 -156q-25 -42 -76 -67t-111 -25q-84 0 -166 40q-24 11 -38 11q-10 0 -14.5 -11t-12.5 -55l-236 48q11 103 46 156q26 41 75 66.5t101 25.5
q84 0 175 -45q22 -11 34 -11q10 0 14 13.5t7 57.5z" />
    <glyph glyph-name="uni1ED8" unicode="&#x1ed8;" horiz-adv-x="1563" 
d="M782 1399q195 0 359 -95q172 -99 270 -264q99 -167 99 -358q0 -187 -95 -351q-95 -165 -263 -264q-173 -101 -376 -101q-191 0 -364 101q-168 99 -263 264t-95 362q0 186 99 347q105 171 270 264q168 95 359 95zM779 1117q-182 0 -309 -141q-111 -123 -111 -301
q0 -113 57 -212t159 -158q99 -57 207 -57t207 57q102 59 159 158q57 100 57 218q0 197 -143 327q-119 109 -283 109zM782 -68q78 0 130 -57q43 -48 43 -111q0 -74 -56 -124q-50 -45 -117 -45q-73 0 -123.5 49.5t-50.5 121.5q0 71 56 121q49 45 118 45zM605 1421l-221 102
l312 318h172l312 -318l-221 -102l-177 159z" />
    <glyph glyph-name="uni1ED9" unicode="&#x1ed9;" horiz-adv-x="1065" 
d="M539 942q218 0 364 -162q123 -137 123 -325q0 -219 -159 -363q-140 -126 -335 -126q-225 0 -370 162q-123 138 -123 327q0 184 116 317q149 170 384 170zM531 680q-56 0 -103 -28q-96 -58 -96 -198q0 -117 68 -177q56 -49 133 -49q88 0 146 62q54 59 54 166
q0 116 -68 175q-55 49 -134 49zM710 995l-177 167l-178 -167l-219 101l311 317h172l310 -317zM532 -68q79 0 131 -57q43 -48 43 -111q0 -74 -56 -124q-50 -45 -117 -45q-73 0 -123.5 49.5t-50.5 121.5q0 70 56 121q49 45 117 45z" />
    <glyph glyph-name="uni1EDA" unicode="&#x1eda;" horiz-adv-x="1596" 
d="M1186 1484l225 113q59 -43 82 -65q90 -90 90 -221q0 -173 -164 -285q91 -165 91 -345q0 -186 -95 -350q-96 -165 -263 -264q-173 -101 -370 -101t-370 101q-168 99 -263 264q-95 164 -95 351q0 191 99 358q98 167 270 264q168 95 360 95q265 0 471 -174q71 34 71 86
q0 39 -25 70t-114 103zM779 1117q-182 0 -309 -141q-111 -123 -111 -301q0 -113 57 -212t159 -158q99 -57 207 -57t207 57q102 59 159 158q57 100 57 218q0 197 -143 327q-119 109 -283 109zM1163 1748l-351 -328l-197 104l280 358z" />
    <glyph glyph-name="uni1EDB" unicode="&#x1edb;" horiz-adv-x="1172" 
d="M887 796q25 25 25 57q0 40 -24.5 70.5t-114.5 103.5l225 113q60 -43 82 -65q90 -90 90 -222q0 -168 -158 -280q14 -56 14 -116q0 -221 -159 -365q-139 -126 -334 -126q-226 0 -371 162q-123 138 -123 326q0 219 159 362q139 126 336 126q208 0 353 -146zM531 680
q-56 0 -103 -28q-96 -58 -96 -198q0 -117 68 -177q56 -49 133 -49q88 0 146 62q54 59 54 166q0 116 -68 175q-55 49 -134 49zM876 1320l-352 -329l-196 105l279 358z" />
    <glyph glyph-name="uni1EDC" unicode="&#x1edc;" horiz-adv-x="1596" 
d="M1186 1484l225 113q59 -43 82 -65q90 -90 90 -221q0 -173 -164 -285q91 -165 91 -345q0 -186 -95 -350q-96 -165 -263 -264q-173 -101 -370 -101t-370 101q-168 99 -263 264q-95 164 -95 351q0 191 99 358q98 167 270 264q168 95 360 95q265 0 471 -174q71 34 71 86
q0 39 -25 70t-114 103zM779 1117q-182 0 -309 -141q-111 -123 -111 -301q0 -113 57 -212t159 -158q99 -57 207 -57t207 57q102 59 159 158q57 100 57 218q0 197 -143 327q-119 109 -283 109zM400 1748l269 134l280 -358l-197 -104z" />
    <glyph glyph-name="uni1EDD" unicode="&#x1edd;" horiz-adv-x="1172" 
d="M887 796q25 25 25 57q0 40 -24.5 70.5t-114.5 103.5l225 113q60 -43 82 -65q90 -90 90 -222q0 -168 -158 -280q14 -56 14 -116q0 -221 -159 -365q-139 -126 -334 -126q-226 0 -371 162q-123 138 -123 326q0 219 159 362q139 126 336 126q208 0 353 -146zM531 680
q-56 0 -103 -28q-96 -58 -96 -198q0 -117 68 -177q56 -49 133 -49q88 0 146 62q54 59 54 166q0 116 -68 175q-55 49 -134 49zM175 1320l269 134l279 -358l-196 -105z" />
    <glyph glyph-name="uni1EDE" unicode="&#x1ede;" horiz-adv-x="1596" 
d="M1186 1484l225 113q59 -43 82 -65q90 -90 90 -221q0 -173 -164 -285q91 -165 91 -345q0 -186 -95 -350q-96 -165 -263 -264q-173 -101 -370 -101t-370 101q-168 99 -263 264q-95 164 -95 351q0 191 99 358q98 167 270 264q168 95 360 95q265 0 471 -174q71 34 71 86
q0 39 -25 70t-114 103zM779 1117q-182 0 -309 -141q-111 -123 -111 -301q0 -113 57 -212t159 -158q99 -57 207 -57t207 57q102 59 159 158q57 100 57 218q0 197 -143 327q-119 109 -283 109zM958 1446h-261q3 84 9 109t32 55q14 17 14 24q0 10 -19 10l-75 -23l-87 205
q98 34 133 42t81 8q140 0 206 -73q45 -50 45 -116q0 -62 -42 -123l-33 -49q-3 -4 -3 -19q0 -2 -1 -14v-18q0 -7 1 -18z" />
    <glyph glyph-name="uni1EDF" unicode="&#x1edf;" horiz-adv-x="1172" 
d="M887 796q25 25 25 57q0 40 -24.5 70.5t-114.5 103.5l225 113q60 -43 82 -65q90 -90 90 -222q0 -168 -158 -280q14 -56 14 -116q0 -221 -159 -365q-139 -126 -334 -126q-226 0 -371 162q-123 138 -123 326q0 219 159 362q139 126 336 126q208 0 353 -146zM531 680
q-56 0 -103 -28q-96 -58 -96 -198q0 -117 68 -177q56 -49 133 -49q88 0 146 62q54 59 54 166q0 116 -68 175q-55 49 -134 49zM692 1022h-260q2 84 8.5 109t32.5 55q14 17 14 24q0 10 -19 10l-75 -23l-88 205q94 32 131.5 41t82.5 9q141 0 207 -73q45 -50 45 -116
q0 -61 -43 -123l-32 -49q-4 -5 -4 -19q0 -3 -1 -14v-18q0 -7 1 -18z" />
    <glyph glyph-name="uni1EE0" unicode="&#x1ee0;" horiz-adv-x="1596" 
d="M1186 1484l225 113q59 -43 82 -65q90 -90 90 -221q0 -173 -164 -285q91 -165 91 -345q0 -186 -95 -350q-96 -165 -263 -264q-173 -101 -370 -101t-370 101q-168 99 -263 264q-95 164 -95 351q0 191 99 358q98 167 270 264q168 95 360 95q265 0 471 -174q71 34 71 86
q0 39 -25 70t-114 103zM779 1117q-182 0 -309 -141q-111 -123 -111 -301q0 -113 57 -212t159 -158q99 -57 207 -57t207 57q102 59 159 158q57 100 57 218q0 197 -143 327q-119 109 -283 109zM882 1805l242 -52q-9 -115 -43 -172q-26 -43 -76 -68.5t-108 -25.5q-81 0 -166 41
q-24 12 -38 12q-10 0 -14.5 -11t-12.5 -59l-236 52q11 113 49 173q27 42 74.5 67.5t99.5 25.5q83 0 174 -47q21 -11 33 -11q11 0 14.5 13.5t7.5 61.5z" />
    <glyph glyph-name="uni1EE1" unicode="&#x1ee1;" horiz-adv-x="1172" 
d="M887 796q25 25 25 57q0 40 -24.5 70.5t-114.5 103.5l225 113q60 -43 82 -65q90 -90 90 -222q0 -168 -158 -280q14 -56 14 -116q0 -221 -159 -365q-139 -126 -334 -126q-226 0 -371 162q-123 138 -123 326q0 219 159 362q139 126 336 126q208 0 353 -146zM531 680
q-56 0 -103 -28q-96 -58 -96 -198q0 -117 68 -177q56 -49 133 -49q88 0 146 62q54 59 54 166q0 116 -68 175q-55 49 -134 49zM635 1377l242 -52q-9 -115 -43 -172q-25 -43 -75 -68.5t-109 -25.5q-82 0 -166 41q-24 12 -38 12q-10 0 -14.5 -12t-12.5 -57l-236 51
q11 113 49 173q27 42 75 67.5t99 25.5q84 0 174 -47q21 -11 34 -11q10 0 14 13.5t7 61.5z" />
    <glyph glyph-name="uni1EE2" unicode="&#x1ee2;" horiz-adv-x="1596" 
d="M1186 1484l225 113q59 -43 82 -65q90 -90 90 -221q0 -173 -164 -285q91 -165 91 -345q0 -186 -95 -350q-96 -165 -263 -264q-173 -101 -370 -101t-370 101q-168 99 -263 264q-95 164 -95 351q0 191 99 358q98 167 270 264q168 95 360 95q265 0 471 -174q71 34 71 86
q0 39 -25 70t-114 103zM779 1117q-182 0 -309 -141q-111 -123 -111 -301q0 -113 57 -212t159 -158q99 -57 207 -57t207 57q102 59 159 158q57 100 57 218q0 197 -143 327q-119 109 -283 109zM782 -68q78 0 130 -57q43 -48 43 -111q0 -74 -56 -124q-50 -45 -119 -45
q-77 0 -129 57q-43 48 -43 114q0 70 56 121q49 45 118 45z" />
    <glyph glyph-name="uni1EE3" unicode="&#x1ee3;" horiz-adv-x="1172" 
d="M887 796q25 25 25 57q0 40 -24.5 70.5t-114.5 103.5l225 113q60 -43 82 -65q90 -90 90 -222q0 -168 -158 -280q14 -56 14 -116q0 -221 -159 -365q-139 -126 -334 -126q-226 0 -371 162q-123 138 -123 326q0 219 159 362q139 126 336 126q208 0 353 -146zM531 680
q-56 0 -103 -28q-96 -58 -96 -198q0 -117 68 -177q56 -49 133 -49q88 0 146 62q54 59 54 166q0 116 -68 175q-55 49 -134 49zM533 -68q78 0 130 -57q43 -48 43 -111q0 -74 -56 -124q-50 -45 -117 -45q-73 0 -123.5 49.5t-50.5 121.5q0 71 56 121q49 45 118 45z" />
    <glyph glyph-name="uni1EE4" unicode="&#x1ee4;" horiz-adv-x="1321" 
d="M434 1365v-835q0 -137 27 -183q24 -43 80.5 -71t118.5 -28t118.5 28t81.5 71q26 46 26 183v835h303v-871q0 -172 -61 -276q-64 -109 -180 -176q-132 -76 -288 -76q-216 0 -371 135q-84 74 -121 165.5t-37 227.5v871h303zM660 -68q79 0 131 -57q43 -48 43 -111
q0 -74 -56 -124q-50 -45 -117 -45q-73 0 -123.5 49.5t-50.5 121.5q0 70 56 121q49 45 117 45z" />
    <glyph glyph-name="uni1EE5" unicode="&#x1ee5;" horiz-adv-x="1046" 
d="M658 36q-90 -70 -200 -70q-134 0 -234 89q-127 113 -127 362v491h291v-477q0 -111 23 -154q26 -49 103 -49q88 0 119 57q25 44 25 163v460h291v-908h-291v36zM524 -68q78 0 130 -57q43 -48 43 -111q0 -74 -56 -124q-50 -45 -117 -45q-73 0 -123.5 49.5t-50.5 121.5
q0 71 56 121q49 45 118 45z" />
    <glyph glyph-name="uni1EE6" unicode="&#x1ee6;" horiz-adv-x="1321" 
d="M434 1365v-835q0 -137 27 -183q24 -43 80.5 -71t118.5 -28t118.5 28t81.5 71q26 46 26 183v835h303v-871q0 -172 -61 -276q-64 -109 -180 -176q-132 -76 -288 -76q-216 0 -371 135q-84 74 -121 165.5t-37 227.5v871h303zM812 1446h-260q3 85 8.5 109t31.5 55q15 18 15 24
q0 10 -19 10l-75 -23l-88 205q98 34 133 42t81 8q141 0 207 -73q45 -51 45 -115q0 -63 -42 -124l-33 -49q-3 -3 -3 -19q0 -2 -1 -14v-29v-7z" />
    <glyph glyph-name="uni1EE7" unicode="&#x1ee7;" horiz-adv-x="1046" 
d="M658 36q-90 -70 -200 -70q-134 0 -234 89q-127 113 -127 362v491h291v-477q0 -111 23 -154q26 -49 103 -49q88 0 119 57q25 44 25 163v460h291v-908h-291v36zM675 1022h-260q3 84 9 109t32 55q14 17 14 24q0 10 -19 10t-53 -15q-12 -5 -22 -8l-87 205q93 33 130.5 41.5
t82.5 8.5q141 0 207 -73q45 -50 45 -116q0 -62 -42 -123l-33 -49q-3 -4 -3 -19q0 -2 -1 -14v-18v-18z" />
    <glyph glyph-name="uni1EE8" unicode="&#x1ee8;" horiz-adv-x="1465" 
d="M1189 1240q43 32 43 71t-25 70t-114 103l225 113q60 -43 82 -65q90 -90 90 -223q0 -118 -73.5 -203t-227.5 -147v-465q0 -172 -61 -276q-64 -109 -180 -176q-132 -76 -288 -76q-216 0 -371 135q-84 74 -121 165.5t-37 227.5v871h303v-835q0 -137 27 -183q24 -43 80.5 -71
t118.5 -28t118.5 28t81.5 71q26 46 26 183v835h303v-125zM1021 1748l-352 -328l-197 104l280 358z" />
    <glyph glyph-name="uni1EE9" unicode="&#x1ee9;" horiz-adv-x="1261" 
d="M949 777q52 31 52 77q0 40 -25 70.5t-114 102.5l225 113q59 -43 82 -65q90 -90 90 -223q0 -115 -77 -205.5t-221 -142.5l-12 -5v-499h-291v36q-90 -70 -200 -70q-134 0 -234 89q-127 113 -127 362v491h291v-477q0 -111 23 -154q26 -49 103 -49q88 0 119 57q25 44 25 163
v460h291v-131zM876 1320l-352 -329l-197 105l280 358z" />
    <glyph glyph-name="uni1EEA" unicode="&#x1eea;" horiz-adv-x="1465" 
d="M1189 1240q43 32 43 71t-25 70t-114 103l225 113q60 -43 82 -65q90 -90 90 -223q0 -118 -73.5 -203t-227.5 -147v-465q0 -172 -61 -276q-64 -109 -180 -176q-132 -76 -288 -76q-216 0 -371 135q-84 74 -121 165.5t-37 227.5v871h303v-835q0 -137 27 -183q24 -43 80.5 -71
t118.5 -28t118.5 28t81.5 71q26 46 26 183v835h303v-125zM280 1748l268 134l280 -358l-197 -104z" />
    <glyph glyph-name="uni1EEB" unicode="&#x1eeb;" horiz-adv-x="1261" 
d="M949 777q52 31 52 77q0 40 -25 70.5t-114 102.5l225 113q59 -43 82 -65q90 -90 90 -223q0 -115 -77 -205.5t-221 -142.5l-12 -5v-499h-291v36q-90 -70 -200 -70q-134 0 -234 89q-127 113 -127 362v491h291v-477q0 -111 23 -154q26 -49 103 -49q88 0 119 57q25 44 25 163
v460h291v-131zM156 1320l269 134l279 -358l-196 -105z" />
    <glyph glyph-name="uni1EEC" unicode="&#x1eec;" horiz-adv-x="1465" 
d="M1189 1240q43 32 43 71t-25 70t-114 103l225 113q60 -43 82 -65q90 -90 90 -223q0 -118 -73.5 -203t-227.5 -147v-465q0 -172 -61 -276q-64 -109 -180 -176q-132 -76 -288 -76q-216 0 -371 135q-84 74 -121 165.5t-37 227.5v871h303v-835q0 -137 27 -183q24 -43 80.5 -71
t118.5 -28t118.5 28t81.5 71q26 46 26 183v835h303v-125zM827 1446h-260q3 85 9 109t32 55q14 18 14 24q0 10 -19 10l-75 -23l-88 205q98 34 133 42t81 8q141 0 207 -73q45 -51 45 -115q0 -63 -42 -124l-33 -49q-4 -5 -4 -62v-7z" />
    <glyph glyph-name="uni1EED" unicode="&#x1eed;" horiz-adv-x="1261" 
d="M949 777q52 31 52 77q0 40 -25 70.5t-114 102.5l225 113q59 -43 82 -65q90 -90 90 -223q0 -115 -77 -205.5t-221 -142.5l-12 -5v-499h-291v36q-90 -70 -200 -70q-134 0 -234 89q-127 113 -127 362v491h291v-477q0 -111 23 -154q26 -49 103 -49q88 0 119 57q25 44 25 163
v460h291v-131zM686 1022h-260q3 85 8.5 108t31.5 56q15 19 15 24q0 10 -19 10l-75 -23l-88 205q94 33 131.5 41.5t82.5 8.5q140 0 207 -73q45 -50 45 -115q0 -63 -42 -124l-33 -49q-3 -3 -3 -19q0 -2 -1 -14v-29v-7z" />
    <glyph glyph-name="uni1EEE" unicode="&#x1eee;" horiz-adv-x="1465" 
d="M1189 1240q43 32 43 71t-25 70t-114 103l225 113q60 -43 82 -65q90 -90 90 -223q0 -118 -73.5 -203t-227.5 -147v-465q0 -172 -61 -276q-64 -109 -180 -176q-132 -76 -288 -76q-216 0 -371 135q-84 74 -121 165.5t-37 227.5v871h303v-835q0 -137 27 -183q24 -43 80.5 -71
t118.5 -28t118.5 28t81.5 71q26 46 26 183v835h303v-125zM763 1805l242 -52q-9 -116 -43 -172q-26 -43 -76 -68.5t-109 -25.5q-81 0 -166 41q-23 12 -38 12q-10 0 -14.5 -12t-11.5 -58l-236 52q11 113 49 173q26 41 74 67t99 26q84 0 175 -47q20 -11 33 -11q10 0 14 13t8 62
z" />
    <glyph glyph-name="uni1EEF" unicode="&#x1eef;" horiz-adv-x="1261" 
d="M949 777q52 31 52 77q0 40 -25 70.5t-114 102.5l225 113q59 -43 82 -65q90 -90 90 -223q0 -115 -77 -205.5t-221 -142.5l-12 -5v-499h-291v36q-90 -70 -200 -70q-134 0 -234 89q-127 113 -127 362v491h291v-477q0 -111 23 -154q26 -49 103 -49q88 0 119 57q25 44 25 163
v460h291v-131zM616 1377l242 -52q-9 -115 -43 -172q-26 -43 -76 -68.5t-109 -25.5q-81 0 -165 41q-24 12 -38 12q-10 0 -14.5 -11t-12.5 -58l-236 51q11 113 49 173q26 42 74 67.5t100 25.5q83 0 174 -47q21 -11 33 -11q11 0 14.5 14t7.5 61z" />
    <glyph glyph-name="uni1EF0" unicode="&#x1ef0;" horiz-adv-x="1465" 
d="M1189 1240q43 32 43 71t-25 70t-114 103l225 113q60 -43 82 -65q90 -90 90 -223q0 -118 -73.5 -203t-227.5 -147v-465q0 -172 -61 -276q-64 -109 -180 -176q-132 -76 -288 -76q-216 0 -371 135q-84 74 -121 165.5t-37 227.5v871h303v-835q0 -137 27 -183q24 -43 80.5 -71
t118.5 -28t118.5 28t81.5 71q26 46 26 183v835h303v-125zM661 -68q78 0 130 -57q43 -48 43 -112q0 -73 -56 -123q-50 -45 -117 -45q-73 0 -123.5 49.5t-50.5 121.5q0 70 56 121q49 45 118 45z" />
    <glyph glyph-name="uni1EF1" unicode="&#x1ef1;" horiz-adv-x="1261" 
d="M949 777q52 31 52 77q0 40 -25 70.5t-114 102.5l225 113q59 -43 82 -65q90 -90 90 -223q0 -115 -77 -205.5t-221 -142.5l-12 -5v-499h-291v36q-90 -70 -200 -70q-134 0 -234 89q-127 113 -127 362v491h291v-477q0 -111 23 -154q26 -49 103 -49q88 0 119 57q25 44 25 163
v460h291v-131zM524 -68q78 0 130 -57q43 -48 43 -111q0 -74 -56 -124q-50 -45 -119 -45q-77 0 -129 57q-43 48 -43 114q0 70 56 121q49 45 118 45z" />
    <glyph glyph-name="Ygrave" unicode="&#x1ef2;" horiz-adv-x="1157" 
d="M427 562l-459 803h340l271 -488l271 488h339l-459 -803v-562h-303v562zM219 1748l269 134l280 -358l-197 -104z" />
    <glyph glyph-name="ygrave" unicode="&#x1ef3;" horiz-adv-x="973" 
d="M313 49l-344 859h308l196 -503l224 503h307l-620 -1386h-306zM140 1320l269 134l280 -358l-197 -105z" />
    <glyph glyph-name="uni1EF4" unicode="&#x1ef4;" horiz-adv-x="1157" 
d="M427 562l-459 803h340l271 -488l271 488h339l-459 -803v-562h-303v562zM579 -68q78 0 130 -57q43 -48 43 -112q0 -73 -56 -123q-50 -45 -119 -45q-77 0 -129 57q-43 48 -43 114q0 71 56 121q49 45 118 45z" />
    <glyph glyph-name="uni1EF5" unicode="&#x1ef5;" horiz-adv-x="973" 
d="M313 49l-344 859h308l196 -503l224 503h307l-620 -1386h-306zM745 -68q78 0 130 -57q43 -47 43 -111q0 -75 -56 -124q-50 -45 -119 -45q-77 0 -129 57q-43 48 -43 114q0 71 56 121q49 45 118 45z" />
    <glyph glyph-name="uni1EF6" unicode="&#x1ef6;" horiz-adv-x="1157" 
d="M427 562l-459 803h340l271 -488l271 488h339l-459 -803v-562h-303v562zM733 1446h-261q3 85 9 109t32 55q15 18 15 24q0 10 -19 10l-76 -23l-87 205q98 34 133 42t81 8q141 0 207 -73q45 -51 45 -115q0 -62 -43 -124l-33 -49q-2 -4 -3 -19q0 -1 -1 -14v-16q0 -9 1 -20z
" />
    <glyph glyph-name="uni1EF7" unicode="&#x1ef7;" horiz-adv-x="973" 
d="M313 49l-344 859h308l196 -503l224 503h307l-620 -1386h-306zM641 1022h-261q3 84 9 109t32 55q14 17 14 24q0 10 -19 10l-75 -23l-87 205q94 33 131 41.5t83 8.5q140 0 206 -73q45 -50 45 -116q0 -62 -42 -123l-33 -49q-3 -5 -3 -19q0 -2 -1 -14v-18q0 -10 1 -18z" />
    <glyph glyph-name="uni1EF8" unicode="&#x1ef8;" horiz-adv-x="1157" 
d="M427 562l-459 803h340l271 -488l271 488h339l-459 -803v-562h-303v562zM684 1805l242 -52q-9 -116 -43 -172q-26 -43 -76 -68.5t-109 -25.5q-81 0 -165 41q-24 12 -39 12q-9 0 -14 -12t-12 -58l-236 52q11 113 49 173q27 42 74.5 67.5t99.5 25.5q83 0 174 -47
q21 -11 33 -11q11 0 14.5 13t7.5 62z" />
    <glyph glyph-name="uni1EF9" unicode="&#x1ef9;" horiz-adv-x="973" 
d="M313 49l-344 859h308l196 -503l224 503h307l-620 -1386h-306zM592 1377l242 -52q-9 -115 -43 -172q-26 -43 -76 -68.5t-109 -25.5q-81 0 -166 41q-23 12 -38 12q-9 0 -14 -12t-12 -57l-236 51q11 113 49 173q26 42 74.5 67.5t99.5 25.5q83 0 174 -47q20 -11 33 -11
q11 0 14.5 13.5t7.5 61.5z" />
    <glyph glyph-name="uni2002" unicode="&#x2002;" horiz-adv-x="983" 
 />
    <glyph glyph-name="uni2003" unicode="&#x2003;" horiz-adv-x="2007" 
 />
    <glyph glyph-name="uni2004" unicode="&#x2004;" horiz-adv-x="642" 
 />
    <glyph glyph-name="uni2005" unicode="&#x2005;" horiz-adv-x="471" 
 />
    <glyph glyph-name="uni2006" unicode="&#x2006;" horiz-adv-x="96" 
 />
    <glyph glyph-name="uni2007" unicode="&#x2007;" horiz-adv-x="1098" 
 />
    <glyph glyph-name="uni2009" unicode="&#x2009;" horiz-adv-x="215" 
 />
    <glyph glyph-name="uni200A" unicode="&#x200a;" horiz-adv-x="27" 
 />
    <glyph glyph-name="uni2011" unicode="&#x2011;" horiz-adv-x="594" 
d="M43 606h509v-268h-509v268z" />
    <glyph glyph-name="figuredash" unicode="&#x2012;" horiz-adv-x="1231" 
d="M207 606h818v-268h-818v268z" />
    <glyph glyph-name="endash" unicode="&#x2013;" horiz-adv-x="1231" 
d="M207 606h818v-268h-818v268z" />
    <glyph glyph-name="emdash" unicode="&#x2014;" horiz-adv-x="1336" 
d="M43 606h1251v-268h-1251v268z" />
    <glyph glyph-name="afii00208" unicode="&#x2015;" horiz-adv-x="1336" 
d="M43 606h1251v-268h-1251v268z" />
    <glyph glyph-name="underscoredbl" unicode="&#x2017;" horiz-adv-x="1096" 
d="M-32 -37h1161v-242h-1161v242zM-32 -351h1161v-242h-1161v242z" />
    <glyph glyph-name="quoteleft" unicode="&#x2018;" horiz-adv-x="650" 
d="M351 836l-267 97l262 589l220 -88z" />
    <glyph glyph-name="quoteright" unicode="&#x2019;" horiz-adv-x="581" 
d="M252 1522l267 -98l-262 -588l-220 87z" />
    <glyph glyph-name="quotesinglbase" unicode="&#x201a;" horiz-adv-x="581" 
d="M252 288l267 -98l-262 -588l-220 87z" />
    <glyph glyph-name="quotereversed" unicode="&#x201b;" horiz-adv-x="581" 
d="M330 1522l215 -599l-220 -87l-262 588z" />
    <glyph glyph-name="quotedblleft" unicode="&#x201c;" horiz-adv-x="992" 
d="M693 836l-267 97l263 589l220 -88zM566 1434l-215 -598l-267 97l262 589z" />
    <glyph glyph-name="quotedblright" unicode="&#x201d;" horiz-adv-x="992" 
d="M299 1522l267 -98l-262 -588l-220 87zM427 923l215 599l267 -98l-263 -588z" />
    <glyph glyph-name="quotedblbase" unicode="&#x201e;" horiz-adv-x="992" 
d="M299 288l267 -98l-262 -588l-220 87zM642 288l267 -98l-263 -588l-219 87z" />
    <glyph glyph-name="dagger" unicode="&#x2020;" horiz-adv-x="1152" 
d="M428 1361h296v-411h279v-283h-279v-1044h-296v1044h-279v283h279v411z" />
    <glyph glyph-name="daggerdbl" unicode="&#x2021;" horiz-adv-x="1152" 
d="M428 34h-279v283h279v350h-279v283h279v411h296v-411h279v-283h-279v-350h279v-283h-279v-411h-296v411z" />
    <glyph glyph-name="bullet" unicode="&#x2022;" horiz-adv-x="1055" 
d="M533 1037q151 0 258 -118q91 -100 91 -237q0 -158 -117 -264q-102 -91 -238 -91q-158 0 -264 117q-91 101 -91 241q0 153 118 261q100 91 243 91z" />
    <glyph glyph-name="ellipsis" unicode="&#x2026;" horiz-adv-x="1608" 
d="M295 305q78 0 130 -57q43 -47 43 -111q0 -74 -56 -123q-49 -45 -117 -45q-73 0 -123.5 49.5t-50.5 121.5q0 70 56 121q49 44 118 44zM1314 305q78 0 130 -57q43 -47 43 -111q0 -74 -56 -123q-50 -45 -119 -45q-77 0 -129 57q-43 48 -43 114q0 70 56 121q49 44 118 44z
M804 305q78 0 130 -57q43 -47 43 -111q0 -74 -56 -123q-50 -45 -119 -45q-77 0 -129 57q-43 48 -43 114q0 70 56 121q49 44 118 44z" />
    <glyph glyph-name="perthousand" unicode="&#x2030;" horiz-adv-x="2597" 
d="M1224 1399l163 -94l-776 -1340l-163 94zM408 1384q346 0 346 -425q0 -424 -344 -424q-168 0 -254 109t-86 321q0 171 62 276q85 143 276 143zM411 1200q-133 0 -133 -232q0 -129 32.5 -189t102.5 -60q54 0 85 34q20 22 34 81.5t14 121.5q0 124 -33 184t-102 60zM1419 829
q346 0 346 -425q0 -175 -62 -280q-84 -144 -279 -144q-343 0 -343 430q0 171 62 276q86 143 276 143zM1422 645q-53 0 -84 -34q-22 -25 -35.5 -83t-13.5 -128q0 -67 16 -127.5t40 -81.5q30 -27 78 -27q55 0 86 34q20 22 34 82t14 123q0 122 -33.5 182t-101.5 60zM2185 829
q168 0 255 -108t87 -317q0 -174 -62 -280q-84 -144 -279 -144q-343 0 -343 430q0 172 62 276q86 143 280 143zM2184 645q-53 0 -84 -34q-22 -25 -35.5 -83t-13.5 -128q0 -67 16 -127.5t40 -81.5q30 -27 78 -27q55 0 86 34q20 22 34 82t14 123q0 122 -33.5 182t-101.5 60z
" />
    <glyph glyph-name="minute" unicode="&#x2032;" horiz-adv-x="464" 
d="M114 1521l266 -97l-262 -588l-219 88z" />
    <glyph glyph-name="second" unicode="&#x2033;" horiz-adv-x="805" 
d="M114 1521l266 -97l-262 -588l-219 88zM455 1521l266 -97l-262 -588l-219 88z" />
    <glyph glyph-name="guilsinglleft" unicode="&#x2039;" horiz-adv-x="699" 
d="M375 455l252 -312l-202 -160l-382 471l382 479l202 -159z" />
    <glyph glyph-name="guilsinglright" unicode="&#x203a;" horiz-adv-x="699" 
d="M323 455l-251 319l201 159l382 -479l-382 -471l-202 160z" />
    <glyph glyph-name="uni203E" unicode="&#x203e;" horiz-adv-x="1096" 
d="M-32 1770h1161v-270h-1161v270z" />
    <glyph glyph-name="fraction" unicode="&#x2044;" horiz-adv-x="369" 
d="M491 1399l163 -94l-776 -1340l-163 94z" />
    <glyph glyph-name="uni2070" unicode="&#x2070;" 
d="M396 1661q169 0 255.5 -108t86.5 -317q0 -424 -344 -424q-168 0 -254 108.5t-86 321.5q0 171 62 275q86 144 280 144zM395 1477q-53 0 -84 -34q-22 -25 -35.5 -83.5t-13.5 -127.5q0 -67 16 -127.5t40 -81.5q30 -27 78 -27q55 0 86 34q20 22 34 82t14 122q0 123 -33.5 183
t-101.5 60z" />
    <glyph glyph-name="uni2074" unicode="&#x2074;" 
d="M604 1574l-270 -404h90v131h205v-131h75v-184h-75v-155h-205v155h-348v154l357 534z" />
    <glyph glyph-name="uni2075" unicode="&#x2075;" 
d="M373 1398q15 1 21 1q82 0 160 -45q67 -38 105.5 -103t38.5 -140q0 -129 -99 -217q-92 -82 -226 -82q-147 0 -249 108q-29 30 -61 78l168 111q39 -67 69 -90.5t76 -23.5q50 0 83 32t33 80t-32.5 79.5t-82.5 31.5t-91 -45l-5 -5l-159 31l95 441h443v-186h-274z" />
    <glyph glyph-name="uni2076" unicode="&#x2076;" 
d="M434 1674l162 -113l-137 -181q83 -15 141 -60q106 -82 106 -212q0 -129 -99 -217q-89 -79 -213 -79q-145 0 -239 102q-76 83 -76 193q0 101 69 191zM393 1205q-47 0 -78 -29t-31 -74q0 -46 31 -76.5t78 -30.5q46 0 77 31.5t31 78.5q0 43 -30.5 71.5t-77.5 28.5z" />
    <glyph glyph-name="uni2077" unicode="&#x2077;" 
d="M134 887l325 567h-339v186h595v-135l-401 -708z" />
    <glyph glyph-name="uni2078" unicode="&#x2078;" 
d="M180 1263q-64 65 -64 149q0 103 82 177q78 71 199 71q137 0 217 -90q63 -71 63 -158q0 -84 -65 -149q50 -48 69.5 -88t19.5 -94q0 -116 -87 -192q-88 -77 -218 -77q-149 0 -238 97q-67 72 -67 172q0 54 19.5 94t69.5 88zM394 1169q-45 0 -72 -24t-27 -64
q0 -39 27.5 -63.5t73.5 -24.5t73.5 24t27.5 65q0 40 -27.5 63.5t-75.5 23.5zM396 1484q-37 0 -60 -20.5t-23 -54.5q0 -32 23 -52t60 -20q38 0 61 20t23 53t-23.5 53.5t-60.5 20.5z" />
    <glyph glyph-name="uni2079" unicode="&#x2079;" 
d="M358 798l-163 113l138 181q-83 15 -142 60q-106 82 -106 213q0 128 99 216q89 79 213 79q146 0 240 -102q75 -83 75 -192q0 -102 -68 -192zM398 1477q-46 0 -77 -31.5t-31 -78.5q0 -43 30.5 -71.5t77.5 -28.5t78 29t31 74q0 46 -31 76.5t-78 30.5z" />
    <glyph glyph-name="uni2080" unicode="&#x2080;" 
d="M396 564q169 0 255.5 -108t86.5 -317q0 -175 -62 -280q-85 -144 -279 -144q-343 0 -343 430q0 172 62 276q86 143 280 143zM395 380q-53 0 -84 -34q-22 -25 -35.5 -83t-13.5 -128q0 -67 16 -127.5t40 -81.5q30 -27 78 -27q55 0 86 34q20 22 34 82t14 122q0 123 -33.5 183
t-101.5 60z" />
    <glyph glyph-name="uni2081" unicode="&#x2081;" 
d="M532 -265h-206v564l-78 -42l-100 162l230 124h154v-808z" />
    <glyph glyph-name="uni2082" unicode="&#x2082;" 
d="M112 -265v150l291 305q71 75 71 130q0 61 -76 61q-46 0 -66 -22.5t-41 -97.5l-193 50q22 96 64 152q35 47 98.5 74t137.5 27q143 0 220 -85q61 -67 61 -164q0 -118 -94 -216l-169 -178h280v-186h-584z" />
    <glyph glyph-name="uni2083" unicode="&#x2083;" 
d="M298 244h86q86 0 86 68q0 69 -77 69q-37 0 -59.5 -15.5t-64.5 -69.5l-170 89q39 62 78 100q82 79 213 79q142 0 222 -89q62 -69 62 -160q0 -83 -62 -150q44 -46 61.5 -85t17.5 -93q0 -119 -87 -195q-88 -77 -217 -77q-247 0 -306 260l196 49q22 -76 44 -100.5t67 -24.5
q44 0 70.5 24.5t26.5 64.5q0 80 -101 80h-86v176z" />
    <glyph glyph-name="uni2084" unicode="&#x2084;" 
d="M604 477l-270 -404h90v131h205v-131h75v-184h-75v-154h-205v154h-348v153l357 535z" />
    <glyph glyph-name="uni2085" unicode="&#x2085;" 
d="M373 302q16 1 21 1q82 0 160 -45q67 -38 105.5 -103t38.5 -141q0 -129 -99 -217q-92 -82 -226 -82q-98 0 -171.5 44t-138.5 142l168 112q38 -67 68.5 -91t76.5 -24q50 0 83 32t33 80q0 49 -32.5 80.5t-82.5 31.5q-49 0 -91 -45q-2 -3 -5 -6l-159 32l95 441h443v-186h-274
z" />
    <glyph glyph-name="uni2086" unicode="&#x2086;" 
d="M434 577l162 -113l-137 -181q82 -15 141 -60q106 -82 106 -212q0 -129 -99 -217q-89 -79 -213 -79q-146 0 -240 102q-75 83 -75 193q0 100 69 191zM393 108q-47 0 -78 -29t-31 -74q0 -46 31 -76.5t78 -30.5q46 0 77 31.5t31 78.5q0 43 -30.5 71.5t-77.5 28.5z" />
    <glyph glyph-name="uni2087" unicode="&#x2087;" 
d="M134 -209l325 567h-339v186h595v-135l-401 -708z" />
    <glyph glyph-name="uni2088" unicode="&#x2088;" 
d="M180 166q-64 66 -64 150q0 103 82 177q77 71 199 71q138 0 217 -90q63 -71 63 -158q0 -84 -65 -150q50 -48 69.5 -88t19.5 -94q0 -116 -87 -192q-87 -77 -218 -77q-150 0 -238 97q-67 72 -67 172q0 55 19.5 95t69.5 87zM396 72q-46 0 -73.5 -24t-27.5 -65q0 -39 28 -63
t73 -24q46 0 73.5 24t27.5 64t-27.5 64t-73.5 24zM396 388q-37 0 -60 -21t-23 -55q0 -32 23.5 -52t60.5 -20t60 20.5t23 52.5q0 34 -23.5 54.5t-60.5 20.5z" />
    <glyph glyph-name="uni2089" unicode="&#x2089;" 
d="M358 -299l-163 113l138 181q-84 15 -142 61q-106 81 -106 212q0 129 99 217q89 79 213 79q146 0 240 -102q75 -83 75 -193q0 -102 -68 -192zM398 381q-46 0 -77 -32t-31 -79q0 -43 30.5 -71.5t77.5 -28.5t78 29t31 74q0 46 -31 77t-78 31z" />
    <glyph glyph-name="franc" unicode="&#x20a3;" horiz-adv-x="1579" 
d="M972 1365v-279h-456v-254h338v-281h-338v-551h-303v1365h759zM1213 792q76 47 156 47q39 0 92 -9v-257q-58 8 -93 8q-90 0 -122.5 -45.5t-32.5 -171.5v-364h-291v832h291v-40z" />
    <glyph glyph-name="lira" unicode="&#x20a4;" horiz-adv-x="1172" 
d="M552 656h368v-209h-334q1 -20 1 -28q0 -66 -37 -144h552v-275h-981v236q17 14 53 43q110 100 106 163v3v2h-159v209h126l-10 50h-116v209h85q-1 15 -1 24q0 225 140 347q130 113 318 113q209 0 338 -146q42 -48 92 -128l-244 -153q-44 68 -76 100q-51 51 -120 51
q-75 0 -111 -50.5t-36 -157.5h414v-209h-378z" />
    <glyph glyph-name="peseta" unicode="&#x20a7;" horiz-adv-x="1243" 
d="M243 0v823h-105v193h105v349h336q415 7 500 -349h114v-193h-115q-85 -356 -499 -347h-33v-476h-303zM544 823v-78h52q77 0 118.5 18t59.5 60h-230zM544 1016h231q-23 45 -61.5 62t-117.5 17h-52v-79z" />
    <glyph glyph-name="dong" unicode="&#x20ab;" horiz-adv-x="1128" 
d="M725 1006h-221v251h221v108h291v-108h110v-251h-110v-1006h-291v44q-109 -78 -227 -78q-116 0 -220 60q-109 63 -172 173q-67 116 -67 255q0 225 159 369q130 118 300 118q118 0 227 -78v143zM529 680q-84 0 -143 -62q-54 -58 -54 -166q0 -115 69 -175q55 -49 131 -49
q86 0 142 61q54 59 54 167q0 117 -68 177q-53 47 -131 47zM58 -72h1064v-270h-1064v270z" />
    <glyph glyph-name="Euro" unicode="&#x20ac;" horiz-adv-x="1641" 
d="M592 706v-26v-24h700l-87 -209h-546q130 -199 360 -199q73 0 136.5 22.5t142.5 76.5q78 54 170 140v-368q-18 -12 -54 -38q-69 -51 -178 -83t-214 -32q-321 0 -535 224q-102 108 -161 257h-222l87 209h96v2v10v11v27h-183l87 209h135q57 153 162 262q213 222 543 222
q138 0 245 -37.5t254 -137.5l-113 -269l-72 48q-166 114 -324 114q-233 0 -365 -202h745l-88 -209h-721z" />
    <glyph glyph-name="uni20B4" unicode="&#x20b4;" horiz-adv-x="1283" 
d="M437 970l-251 158q60 99 122 157q129 119 319 119q137 0 254 -66q96 -54 151 -148q52 -90 52 -196q0 -35 -8 -77h65v-181h-167q-6 -6 -65 -48h232v-181h-593q-40 -25 -54.5 -43.5t-14.5 -45.5q0 -69 52 -117t125 -48q114 0 162 124q7 18 28 98l297 -79
q-37 -164 -111 -258q-59 -75 -156 -120q-101 -47 -217 -47q-228 0 -370 157q-115 127 -115 285q0 40 10 94h-46v181h151q26 24 60 48h-211v181h603q42 32 42 73q0 56 -42 94.5t-103 38.5q-64 0 -102.5 -29t-98.5 -124z" />
    <glyph glyph-name="uni2101" unicode="&#x2101;" horiz-adv-x="1935" 
d="M696 724h-297l-65 -177h-223l322 827h230l232 -595l-134 -232zM627 914l-80 219l-79 -219h159zM1392 294q2 -11 5 -21q13 -60 36.5 -86.5t66.5 -26.5q40 0 68 25t28 61q0 17 -9 28q-17 21 -89 47l-73 27q-202 73 -202 236q0 110 83 184q85 74 212 74q176 0 282 -169l4 -6
l4 -6l-177 -106q-7 11 -11 16q-30 46 -52.5 62.5t-56.5 16.5q-32 0 -54 -19.5t-22 -47.5q0 -33 75 -60l77 -27q223 -81 223 -248q0 -120 -93 -202q-89 -79 -220 -79q-252 0 -314 274zM1358 1399l163 -94l-775 -1340l-164 94z" />
    <glyph glyph-name="afii61248" unicode="&#x2105;" horiz-adv-x="2152" 
d="M1370 1399l164 -94l-776 -1340l-163 94zM1587 833q205 0 343 -150q111 -121 111 -279q0 -184 -144 -312q-132 -117 -308 -117t-306 112q-150 128 -150 322q0 177 144 307q131 117 310 117zM1585 644q-108 0 -181 -80q-61 -68 -61 -164q0 -105 83 -176q71 -60 161 -60
q108 0 184 82q60 66 60 157q0 106 -79 178q-69 63 -167 63zM921 1222l-151 -134q-58 64 -103 88.5t-104 24.5q-110 0 -181 -79q-61 -69 -61 -162q0 -106 78 -176q71 -63 166 -63q101 0 189 92q14 15 21 22l149 -134l-22 -22q-148 -147 -336 -147q-209 0 -345 149
q-110 121 -110 280q0 184 143 312q131 117 313 117q151 0 278 -100q36 -28 76 -68z" />
    <glyph glyph-name="uni2117" unicode="&#x2117;" horiz-adv-x="1706" 
d="M596 1143h254q129 0 202 -42q65 -37 104 -103q42 -72 42 -160q0 -123 -77 -209q-48 -53 -111.5 -75.5t-168.5 -22.5h-14v-309h-231v921zM826 744h35q61 0 86.5 21t25.5 72q0 50 -25.5 71t-86.5 21h-35v-185zM863 1466q204 0 381 -105q183 -108 287 -287
q105 -179 105 -390t-105 -393q-105 -181 -287 -286q-181 -105 -391 -105t-391 105q-182 104 -287 286t-105 389q0 208 105 394q133 236 398 340q134 52 290 52zM847 1274q-152 0 -289 -79q-137 -80 -217 -216q-79 -137 -79 -296t79 -296q79 -136 217 -216q137 -79 295 -79
t295 79q138 80 217 216q79 138 79 299q0 258 -196 436q-167 152 -401 152z" />
    <glyph glyph-name="trademark" unicode="&#x2122;" horiz-adv-x="1377" 
d="M560 1378v-131h-155v-508h-146v508h-155v131h456zM611 739v639h134l197 -334l196 334h134v-639h-146v357l-134 -230h-101l-134 227v-354h-146z" />
    <glyph glyph-name="uni2126" unicode="&#x2126;" horiz-adv-x="1624" 
d="M870 355q141 40 205 87q154 113 154 294q0 164 -127 275q-122 106 -290 106q-194 0 -319 -136q-97 -105 -97 -245q0 -127 82 -226q50 -59 105.5 -90t171.5 -65v-355h-632v281h171q-98 103 -137 180q-66 129 -66 271q0 167 85 314q90 156 256 251q176 102 381 102
t381 -102q165 -95 255 -251q85 -147 85 -313q0 -130 -46.5 -233.5t-156.5 -218.5h171v-281h-632v355z" />
    <glyph glyph-name="estimated" unicode="&#x212e;" horiz-adv-x="1527" 
d="M1416 588h-951v-164q37 -94 80 -132q75 -66 224 -66q174 0 266 93q53 53 104 166h268q-39 -127 -63 -182.5t-62 -104.5q-71 -97 -175 -153q-145 -79 -332 -79q-363 0 -542 258q-122 176 -122 450q0 303 147 488q187 237 517 237q225 0 393 -119q194 -138 231 -399
q14 -100 17 -293zM1079 824v131q-37 88 -116.5 136.5t-187.5 48.5q-119 0 -184 -39.5t-126 -149.5v-127h614z" />
    <glyph glyph-name="onethird" unicode="&#x2153;" horiz-adv-x="1707" 
d="M1118 1402l164 -94l-776 -1341l-163 94zM1190 509h86q86 0 86 67q0 69 -77 69q-38 0 -60.5 -15.5t-63.5 -68.5l-170 89q39 62 78 100q82 79 213 79q142 0 222 -89q62 -69 62 -160q0 -82 -62 -150q44 -46 61.5 -85t17.5 -93q0 -119 -87 -195q-88 -77 -217 -77
q-74 0 -138.5 28t-100.5 76q-43 56 -67 156l196 49q22 -76 43.5 -100.5t67.5 -24.5q44 0 70.5 24.5t26.5 64.5q0 80 -101 80h-86v176zM465 556h-206v564l-78 -42l-100 162l230 124h154v-808z" />
    <glyph glyph-name="twothirds" unicode="&#x2154;" horiz-adv-x="1707" 
d="M1168 1399l163 -94l-775 -1340l-164 94zM86 555v150l291 305q71 75 71 130q0 61 -76 61q-46 0 -66 -22.5t-41 -97.5l-193 50q22 96 64 152q35 47 98.5 74t137.5 27q143 0 220 -85q61 -67 61 -164q0 -118 -94 -216l-169 -178h280v-186h-584zM1186 509h86q86 0 86 67
q0 69 -77 69q-38 0 -60.5 -15.5t-63.5 -68.5l-170 89q39 62 78 100q82 79 213 79q142 0 222 -89q62 -69 62 -160q0 -82 -62 -150q45 -47 62 -85.5t17 -91.5q0 -120 -87 -196q-87 -77 -217 -77q-73 0 -138 28.5t-101 75.5q-42 55 -68 156l197 49q22 -76 43.5 -100.5
t67.5 -24.5q44 0 70.5 24.5t26.5 64.5q0 80 -101 80h-86v176z" />
    <glyph glyph-name="uni2155" unicode="&#x2155;" horiz-adv-x="1707" 
d="M1080 1399l164 -94l-776 -1340l-163 94zM1235 567q15 1 21 1q82 0 160 -45q67 -38 105.5 -103t38.5 -141q0 -129 -99 -217q-92 -82 -226 -82q-146 0 -249 108q-29 31 -61 79l168 111q39 -67 69 -91t76 -24q50 0 83 32t33 80q0 49 -32.5 80.5t-82.5 31.5q-49 0 -91 -45
q-2 -3 -5 -6l-159 32l95 441h443v-186h-274zM469 556h-206v564l-78 -42l-100 162l230 124h154v-808z" />
    <glyph glyph-name="uni2156" unicode="&#x2156;" horiz-adv-x="1707" 
d="M1180 1399l163 -94l-775 -1340l-164 94zM90 555v150l291 305q71 75 71 130q0 61 -76 61q-46 0 -66 -22.5t-41 -97.5l-193 50q22 96 64 152q35 47 98.5 74t137.5 27q143 0 220 -85q61 -67 61 -164q0 -118 -94 -216l-169 -178h280v-186h-584zM1231 567q15 1 21 1
q81 0 160 -45q67 -38 105 -103t38 -141q0 -129 -99 -217q-91 -82 -225 -82q-147 0 -249 108q-30 31 -61 79l168 111q38 -67 68 -91t77 -24q49 0 82 32t33 80q0 49 -32.5 80.5t-81.5 31.5q-50 0 -91 -45q-2 -3 -5 -6l-159 32l95 441h443v-186h-274z" />
    <glyph glyph-name="uni2157" unicode="&#x2157;" horiz-adv-x="1707" 
d="M1138 1399l163 -94l-776 -1340l-163 94zM1230 567q15 1 21 1q82 0 160 -45q67 -38 105.5 -103t38.5 -141q0 -129 -99 -217q-92 -82 -226 -82q-146 0 -249 108q-29 31 -61 79l168 111q39 -67 69 -91t76 -24q50 0 83 32t33 80q0 49 -32.5 80.5t-82.5 31.5q-49 0 -91 -45
q-2 -3 -5 -6l-159 32l95 441h443v-186h-274zM291 1065h86q86 0 86 67q0 69 -77 69q-38 0 -59 -14.5t-65 -69.5l-170 89q39 61 78 99q82 79 213 79q142 0 222 -89q62 -68 62 -159q0 -84 -62 -150q44 -46 61.5 -85t17.5 -93q0 -119 -87 -195q-88 -77 -217 -77q-246 0 -306 260
l196 49q22 -76 44 -100.5t67 -24.5q44 0 70.5 24t26.5 65q0 80 -101 80h-86v176z" />
    <glyph glyph-name="uni2158" unicode="&#x2158;" horiz-adv-x="1707" 
d="M609 1298l-269 -404h89v131h205v-131h76v-184h-76v-154h-205v154h-347v154l356 534zM1166 1399l163 -94l-776 -1340l-163 94zM1229 567q15 1 21 1q82 0 160 -45q67 -38 105.5 -103t38.5 -141q0 -129 -99 -217q-92 -82 -226 -82q-146 0 -249 108q-29 31 -61 79l168 111
q38 -67 68.5 -91t76.5 -24q50 0 83 32t33 80q0 49 -32.5 80.5t-82.5 31.5q-49 0 -91 -45q-2 -3 -5 -6l-159 32l95 441h443v-186h-274z" />
    <glyph glyph-name="uni2159" unicode="&#x2159;" horiz-adv-x="1707" 
d="M1111 1399l163 -94l-776 -1340l-163 94zM1285 843l162 -114l-138 -180q84 -15 142 -61q106 -81 106 -212q0 -129 -99 -217q-89 -79 -213 -79q-145 0 -239 102q-76 83 -76 193q0 101 69 191zM1244 374q-47 0 -78 -29.5t-31 -73.5q0 -47 31 -77.5t78 -30.5q46 0 77 31.5
t31 78.5q0 44 -30.5 72.5t-77.5 28.5zM472 556h-206v564l-78 -42l-100 162l230 124h154v-808z" />
    <glyph glyph-name="uni215A" unicode="&#x215a;" horiz-adv-x="1707" 
d="M1190 1399l164 -94l-776 -1340l-163 94zM1283 843l163 -114l-138 -180q83 -15 142 -61q106 -81 106 -212q0 -129 -99 -217q-89 -79 -213 -79q-146 0 -240 102q-75 83 -75 193q0 102 68 191zM1243 374q-47 0 -78 -29t-31 -74q0 -47 31 -77.5t78 -30.5q46 0 77 31.5
t31 78.5q0 44 -30.5 72.5t-77.5 28.5zM383 1123q16 1 22 1q80 0 159 -45q67 -38 105.5 -103t38.5 -141q0 -129 -99 -217q-92 -82 -226 -82q-147 0 -249 107q-29 32 -61 79l168 112q39 -67 69 -91t76 -24q50 0 83 32t33 80t-32.5 80t-82.5 32q-49 0 -91 -45q-2 -3 -5 -6
l-159 32l95 440h443v-185h-274z" />
    <glyph glyph-name="oneeighth" unicode="&#x215b;" horiz-adv-x="1707" 
d="M1079 1399l164 -94l-776 -1340l-163 94zM468 556h-206v564l-78 -42l-100 162l230 124h154v-808zM1059 432q-65 66 -65 149q0 103 82 177q78 71 199 71q137 0 217 -90q63 -71 63 -158q0 -83 -65 -149q51 -49 70.5 -88.5t19.5 -94.5q0 -116 -87 -192q-88 -77 -218 -77
q-150 0 -239 97q-67 72 -67 172q0 55 19.5 95t70.5 88zM1274 338q-46 0 -73.5 -24t-27.5 -65q0 -39 28 -63.5t73 -24.5q46 0 74 24.5t28 64.5t-27.5 64t-74.5 24zM1274 653q-37 0 -60 -21t-23 -55q0 -31 23.5 -51t60.5 -20t60 20t23 52q0 34 -23.5 54.5t-60.5 20.5z" />
    <glyph glyph-name="threeeighths" unicode="&#x215c;" horiz-adv-x="1707" 
d="M1128 1399l163 -94l-776 -1340l-163 94zM1035 432q-65 66 -65 149q0 103 82 177q78 71 199 71q137 0 217 -90q63 -71 63 -158q0 -84 -65 -149q50 -48 69.5 -88t19.5 -95q0 -116 -87 -192q-88 -77 -218 -77q-149 0 -238 97q-67 72 -67 172q0 55 19.5 95t70.5 88zM1248 338
q-45 0 -72 -24t-27 -64t28 -64.5t73 -24.5q46 0 73.5 24.5t27.5 64.5q0 41 -28 64.5t-75 23.5zM1250 653q-37 0 -60 -21t-23 -55q0 -31 23.5 -51t59.5 -20q38 0 61 20t23 52q0 34 -23 54.5t-61 20.5zM290 1065h86q86 0 86 67q0 69 -77 69q-38 0 -59 -14.5t-65 -69.5l-170 89
q39 61 78 99q82 79 213 79q142 0 222 -89q62 -68 62 -159q0 -84 -62 -150q44 -46 61.5 -85t17.5 -93q0 -119 -87 -195q-88 -77 -217 -77q-246 0 -306 260l196 49q22 -76 44 -100.5t67 -24.5q44 0 70.5 24t26.5 65q0 80 -101 80h-86v176z" />
    <glyph glyph-name="fiveeighths" unicode="&#x215d;" horiz-adv-x="1707" 
d="M1137 1399l164 -94l-776 -1340l-163 94zM378 1123q16 1 22 1q80 0 159 -45q67 -38 105.5 -103t38.5 -141q0 -129 -99 -217q-92 -82 -226 -82q-147 0 -249 107q-29 32 -61 79l168 112q39 -67 69 -91t76 -24q50 0 83 32t33 80t-32.5 80t-82.5 32q-49 0 -91 -45q-2 -3 -5 -6
l-159 32l95 440h443v-185h-274zM1039 432q-65 66 -65 149q0 103 82 177q78 71 199 71q137 0 217 -90q63 -71 63 -158q0 -84 -65 -149q50 -48 70 -88t20 -95q0 -116 -87 -192q-88 -77 -218 -77q-149 0 -238 97q-67 72 -67 172q0 55 19.5 95t69.5 88zM1253 338q-45 0 -72 -24
t-27 -64t28 -64.5t73 -24.5q46 0 73.5 24.5t27.5 64.5t-28 64t-75 24zM1254 653q-37 0 -60 -21t-23 -55q0 -31 23.5 -51t59.5 -20q38 0 61 20t23 52q0 34 -23 54.5t-61 20.5z" />
    <glyph glyph-name="seveneighths" unicode="&#x215e;" horiz-adv-x="1707" 
d="M1055 1399l163 -94l-775 -1340l-163 94zM1029 432q-64 66 -64 149q0 103 82 177q78 71 199 71q137 0 217 -90q63 -71 63 -158q0 -83 -65 -149q50 -48 69.5 -88t19.5 -95q0 -116 -87 -192q-88 -77 -218 -77q-149 0 -238 97q-67 72 -67 172q0 55 19.5 95t69.5 88zM1245 338
q-46 0 -73.5 -24t-27.5 -65q0 -39 28 -63.5t73 -24.5q46 0 73.5 24.5t27.5 64.5t-27.5 64t-73.5 24zM1245 653q-37 0 -60 -21t-23 -54q0 -32 23.5 -52t59.5 -20q38 0 61 20t23 52q0 34 -23.5 54.5t-60.5 20.5zM143 611l325 568h-339v185h595v-135l-401 -707z" />
    <glyph glyph-name="partialdiff" unicode="&#x2202;" horiz-adv-x="1194" 
d="M248 1365q265 -33 404 -103q213 -107 325.5 -304t112.5 -462q0 -266 -162 -408q-140 -122 -330 -122q-226 0 -371 162q-123 138 -123 327q0 209 150 351q65 62 144 97.5t151 35.5q19 0 37 -6l-9 9q-79 71 -150.5 102t-218.5 58zM596 680q-56 0 -103 -28q-96 -58 -96 -198
q0 -117 68 -177q56 -49 133 -49q88 0 146 62q54 59 54 166q0 116 -68 175q-55 49 -134 49z" />
    <glyph glyph-name="emptyset" unicode="&#x2205;" horiz-adv-x="1337" 
d="M529 133l-119 -234l-221 113l120 236q-96 92 -136 162q-69 123 -69 268q0 257 186 424q161 145 382 145q56 0 135 -17l119 234l221 -113l-120 -236q97 -89 139 -167q67 -124 67 -264q0 -151 -76 -283q-75 -130 -203 -205q-135 -78 -299 -78q-55 0 -126 15zM650 372
q23 -3 30 -3q59 0 118.5 28t104.5 77q80 87 80 208q0 108 -74 202zM687 994q-22 2 -30 2q-73 0 -145 -43q-74 -43 -116 -117q-42 -72 -42 -153q0 -103 75 -199z" />
    <glyph glyph-name="uni2206" unicode="&#x2206;" horiz-adv-x="1425" 
d="M1396 0h-1367l518 1365h331zM448 282h527l-264 738z" />
    <glyph glyph-name="product" unicode="&#x220f;" horiz-adv-x="1352" 
d="M494 0h-303v1084h-155v281h1280v-281h-155v-1084h-303v1084h-364v-1084z" />
    <glyph glyph-name="summation" unicode="&#x2211;" horiz-adv-x="1378" 
d="M537 706l-308 435v224h947v-281l-556 1l272 -379l-300 -424h621v-282h-1021v224z" />
    <glyph glyph-name="minus" unicode="&#x2212;" horiz-adv-x="1139" 
d="M1047 771v-265h-956v265h956z" />
    <glyph glyph-name="uni2215" unicode="&#x2215;" horiz-adv-x="369" 
d="M491 1399l163 -94l-776 -1340l-163 94z" />
    <glyph glyph-name="uni2218" unicode="&#x2218;" horiz-adv-x="1055" 
d="M533 1038q151 0 258 -118q91 -101 91 -237q0 -158 -117 -264q-102 -91 -238 -91q-158 0 -264 117q-91 101 -91 241q0 153 118 261q100 91 243 91zM524 872q-81 0 -138 -62q-48 -54 -48 -127q0 -84 62 -141q54 -48 127 -48q85 0 141 62q48 54 48 128q0 82 -62 140
q-53 48 -130 48z" />
    <glyph glyph-name="radical" unicode="&#x221a;" horiz-adv-x="1294" 
d="M200 617h-164v279h387l154 -461l422 1261h668v-281h-443l-480 -1415h-335z" />
    <glyph glyph-name="infinity" unicode="&#x221e;" horiz-adv-x="1499" 
d="M752 477q-72 -76 -126 -110q-96 -59 -211 -59q-175 0 -283 120q-96 105 -96 266q0 177 121 283q110 97 259 97q94 0 171.5 -39t158.5 -128q149 167 340 167q174 0 282 -121q95 -106 95 -264q0 -180 -121 -287q-107 -95 -256 -95q-187 0 -334 170zM909 691q48 -66 83 -91
t79 -25q51 0 84 33t33 83q0 54 -37 84q-36 31 -82 31q-79 0 -160 -115zM591 691q-50 66 -84.5 90.5t-79.5 24.5q-50 0 -83 -33t-33 -83t34 -82.5t86 -32.5q76 0 160 116z" />
    <glyph glyph-name="integral" unicode="&#x222b;" horiz-adv-x="651" 
d="M36 -365v259q53 -19 89 -19q55 0 55 71v1244q0 180 91 260q73 65 189 65q68 0 155 -20v-259q-52 20 -88 20q-56 0 -56 -71v-1245q0 -179 -91 -259q-73 -65 -189 -65q-68 0 -155 19z" />
    <glyph glyph-name="similar" unicode="&#x223c;" horiz-adv-x="1250" 
d="M247 402l-202 131q76 170 151 246q38 38 97 61.5t119 23.5q102 0 258 -76q120 -59 170 -59q31 0 49 12q37 25 76 93q12 21 35 59l206 -121q-79 -161 -132 -215q-50 -52 -115.5 -82t-126.5 -30q-60 0 -129.5 22.5t-196.5 82.5q-65 30 -107 30q-36 0 -62.5 -31.5
t-89.5 -146.5z" />
    <glyph glyph-name="uni2243" unicode="&#x2243;" horiz-adv-x="1250" 
d="M246 599l-202 132q78 170 151 245q38 39 97 62t119 23q103 0 259 -77q118 -58 169 -58q31 0 49 12q24 16 38 35t73 117l206 -121q-79 -162 -132 -216q-50 -51 -115.5 -81t-126.5 -30q-59 0 -129.5 22.5t-196.5 81.5q-65 31 -108 31q-35 0 -62 -31.5t-89 -146.5zM1184 553
v-263h-1122v263h1122z" />
    <glyph glyph-name="approxequal" unicode="&#x2248;" horiz-adv-x="1250" 
d="M247 634l-202 131q78 171 151 246q38 39 97 62t119 23q103 0 259 -77q118 -58 169 -58q31 0 49 12q24 16 38 35t73 117l206 -121q-79 -163 -132 -216q-51 -51 -116 -81t-126 -30q-60 0 -129 22t-197 83q-65 30 -108 30q-35 0 -62 -31.5t-89 -146.5zM247 186l-202 132
q78 172 151 246q38 38 97 61.5t119 23.5q102 0 259 -77q119 -58 169 -58q31 0 49 12q25 17 39 36t72 116l206 -122q-79 -161 -131 -215q-50 -51 -116 -81t-127 -30q-59 0 -129.5 22.5t-196.5 82.5q-65 30 -108 30q-35 0 -62.5 -33t-88.5 -146z" />
    <glyph glyph-name="notequal" unicode="&#x2260;" horiz-adv-x="1211" 
d="M771 689l-50 -99h446v-265h-578l-122 -246l-232 96l74 150h-264v265h396l50 99h-446v265h578l122 246l232 -96l-74 -150h264v-265h-396z" />
    <glyph glyph-name="lessequal" unicode="&#x2264;" horiz-adv-x="1211" 
d="M1028 264l-935 420v221l1024 466v-298l-623 -276l623 -276v-521h-1024v264h935z" />
    <glyph glyph-name="greaterequal" unicode="&#x2265;" horiz-adv-x="1211" 
d="M182 264h935v-264h-1024v521l623 276l-623 276v298l1024 -466v-221z" />
    <glyph glyph-name="dotmath" unicode="&#x22c5;" horiz-adv-x="544" 
d="M272 852q79 0 131 -57q43 -48 43 -111q0 -74 -56 -124q-50 -45 -119 -45q-77 0 -129 57q-43 48 -43 114q0 71 56 121q49 45 117 45z" />
    <glyph glyph-name="lozenge" unicode="&#x25ca;" horiz-adv-x="1398" 
d="M698 -81l-591 764l591 764l593 -764zM947 683l-248 312l-247 -312l247 -313z" />
    <glyph glyph-name="openbullet" unicode="&#x25e6;" horiz-adv-x="1055" 
d="M533 1038q151 0 258 -118q91 -101 91 -237q0 -158 -117 -264q-102 -91 -238 -91q-158 0 -264 117q-91 101 -91 241q0 153 118 261q100 91 243 91zM524 872q-81 0 -138 -62q-48 -54 -48 -127q0 -84 62 -141q54 -48 127 -48q85 0 141 62q48 54 48 128q0 82 -62 140
q-53 48 -130 48z" />
    <glyph glyph-name="glyph155" horiz-adv-x="447" 
 />
    <glyph glyph-name="glyph172" horiz-adv-x="1199" 
 />
    <glyph glyph-name="glyph210" horiz-adv-x="447" 
 />
    <glyph glyph-name="seven.dnom" 
d="M134 56l325 567h-339v186h595v-135l-401 -708z" />
    <glyph glyph-name="eight.dnom" 
d="M180 432q-64 65 -64 149q0 103 82 177q78 71 199 71q137 0 217 -90q63 -71 63 -158q0 -83 -65 -149q50 -48 69.5 -88t19.5 -95q0 -116 -87 -192q-88 -77 -218 -77q-149 0 -238 97q-67 72 -67 172q0 55 19.5 95t69.5 88zM394 338q-45 0 -72 -24t-27 -64t28 -64.5t73 -24.5
q46 0 73.5 24.5t27.5 64.5q0 41 -28 64.5t-75 23.5zM396 653q-37 0 -60 -20.5t-23 -54.5q0 -32 23.5 -52t59.5 -20q38 0 61 20t23 52q0 34 -23 54.5t-61 20.5z" />
    <glyph glyph-name="nine.dnom" 
d="M358 -34l-163 114l138 181q-84 15 -142 60q-106 81 -106 212q0 129 99 217q89 79 213 79q146 0 240 -102q75 -83 75 -193q0 -101 -68 -191zM398 646q-46 0 -77 -31.5t-31 -79.5q0 -43 30.5 -71.5t77.5 -28.5t78 29t31 74q0 47 -31 77.5t-78 30.5z" />
    <glyph glyph-name="four.pnum" horiz-adv-x="1143" 
d="M642 1416l249 -152l-459 -719h208v229h301v-229h126v-277h-126v-268h-301v268h-579v239z" />
    <glyph glyph-name="three.pnum" horiz-adv-x="1143" 
d="M424 580v264h122q164 0 164 138q0 66 -41 103.5t-113 37.5q-62 0 -101.5 -27t-105.5 -113l-248 135q65 107 129 164q130 117 324 117q138 0 253 -63q94 -52 149 -148q53 -92 53 -199q0 -150 -112 -261q141 -128 141 -311q0 -201 -144 -328q-139 -123 -343 -123
q-162 0 -286 84q-77 52 -122 127t-77 204l288 76q31 -113 69 -161q41 -53 130 -53q90 0 139 55q43 48 43 121q0 82 -46.5 121.5t-142.5 39.5h-122z" />
    <glyph glyph-name="zero.dnom" 
d="M396 829q169 0 255.5 -107.5t86.5 -317.5q0 -175 -62 -280q-84 -144 -279 -144q-343 0 -343 430q0 172 62 276q86 143 280 143zM395 645q-53 0 -84 -34q-22 -25 -35.5 -83t-13.5 -128q0 -67 16 -127.5t40 -81.5q30 -27 78 -27q55 0 86 34q20 22 34 82t14 123
q0 122 -33.5 182t-101.5 60z" />
    <glyph glyph-name="two.pnum" horiz-adv-x="1143" 
d="M134 0v231l478 525q125 136 125 239q0 59 -39.5 93t-107.5 34q-83 0 -121.5 -40.5t-72.5 -162.5l-282 77q34 152 104 242q55 71 142 111q108 50 230 50q137 0 249 -60q93 -50 145 -144q53 -93 53 -208q0 -196 -151 -362l-315 -345h494v-280h-931z" />
    <glyph glyph-name="one.pnum" horiz-adv-x="1143" 
d="M478 997l-144 -81l-145 246l361 203h231v-1088h216v-277h-758v277h239v720z" />
    <glyph glyph-name="dieresis.aalt" horiz-adv-x="975" 
d="M681 1793q73 0 121 -53q40 -44 40 -103q0 -65 -47 -110.5t-115 -45.5q-67 0 -113.5 46t-46.5 113q0 62 47.5 107.5t113.5 45.5zM295 1793q73 0 121 -53q40 -44 40 -103q0 -69 -52 -115q-46 -41 -109 -41q-68 0 -114.5 46t-46.5 112q0 63 47.5 108.5t113.5 45.5z" />
    <glyph glyph-name="dotaccent.aalt" horiz-adv-x="975" 
d="M487 1805q79 0 131 -57q43 -47 43 -111q0 -74 -56 -124q-50 -44 -117 -44q-73 0 -123.5 49.5t-50.5 121.5q0 70 56 120q49 45 117 45z" />
    <glyph glyph-name="ring.aalt" horiz-adv-x="975" 
d="M487 1881q112 0 187 -82q62 -68 62 -161q0 -108 -81 -181q-71 -63 -167 -63q-103 0 -175 71q-73 72 -73 176q0 102 82 177q69 63 165 63zM487 1743q-44 0 -74.5 -31t-30.5 -76q0 -42 31.5 -73t74.5 -31q44 0 75 31t31 74q0 45 -31 75.5t-76 30.5z" />
    <glyph glyph-name="acute.aalt" horiz-adv-x="975" 
d="M847 1748l-351 -328l-197 104l280 358z" />
    <glyph glyph-name="grave.aalt" horiz-adv-x="975" 
d="M128 1748l269 134l279 -358l-196 -104z" />
    <glyph glyph-name="five.pnum" horiz-adv-x="1143" 
d="M507 944q15 2 35 2q239 0 388 -163q123 -134 123 -319q0 -218 -164 -366q-145 -132 -357 -132q-156 0 -270.5 70t-218.5 228l246 169q59 -107 113 -149t131 -42q102 0 164 70q54 60 54 146q0 100 -70 163q-59 53 -142 53q-93 0 -158 -76l-10 -10l-234 48l151 729h702
v-280h-454z" />
    <glyph glyph-name="caron.aalt" horiz-adv-x="975" 
d="M310 1848l177 -159l177 159l221 -102l-311 -318h-173l-312 318z" />
    <glyph glyph-name="breve.aalt" horiz-adv-x="975" 
d="M149 1799l251 19q5 -102 20 -123q21 -28 62 -28q46 0 65 35q14 24 27 115l251 -19q-12 -100 -17 -123.5t-23 -58.5q-42 -81 -115 -130q-81 -53 -188 -53q-155 0 -252 105q-71 76 -78 169q-1 21 -3 92z" />
    <glyph glyph-name="tilde.aalt" horiz-adv-x="975" 
d="M592 1805l242 -52q-9 -116 -43 -172q-25 -43 -75.5 -68.5t-108.5 -25.5q-81 0 -166 41q-24 12 -38 12q-10 0 -14.5 -12t-12.5 -58l-236 52q11 113 49 173q27 41 75 67t99 26q83 0 174 -47q21 -11 33 -11q11 0 15 13t7 62z" />
    <glyph glyph-name="hungarumlaut.aalt" horiz-adv-x="975" 
d="M664 1760l84 118l236 -127l-351 -327l-147 85l133 187l-292 -273l-166 99l278 356z" />
    <glyph glyph-name="cedilla.aalt" horiz-adv-x="975" 
d="M751 -137l-290 -343l-211 98l239 350z" />
    <glyph glyph-name="ogonek.aalt" horiz-adv-x="975" 
d="M939 0q-58 -75 -58 -109q0 -14 16 -14q27 0 74 24l87 -205q-143 -50 -212 -50q-132 0 -202 77q-51 57 -51 132q0 65 55 145h291z" />
    <glyph glyph-name="macron.aalt" horiz-adv-x="975" 
d="M143 1757h688v-240h-688v240z" />
    <glyph glyph-name="glyph599" horiz-adv-x="975" 
d="M383 -33l272 -77l-186 -401l-218 64z" />
    <glyph glyph-name="glyph600" horiz-adv-x="975" 
d="M630 1879l272 -77l-186 -401l-218 63z" />
    <glyph glyph-name="glyph601" horiz-adv-x="975" 
d="M303 1793q73 0 121 -53q40 -44 40 -103q0 -69 -52 -115q-46 -41 -109 -41q-68 0 -114.5 46t-46.5 112q0 63 47.5 108.5t113.5 45.5zM658 1793q73 0 121 -53q40 -44 40 -103q0 -69 -52 -115q-46 -41 -110 -41q-67 0 -113.5 46t-46.5 113q0 62 47.5 107.5t113.5 45.5z" />
    <glyph glyph-name="glyph602" horiz-adv-x="975" 
d="M383 -33l272 -77l-186 -401l-218 64z" />
    <glyph glyph-name="glyph603" horiz-adv-x="975" 
d="M630 1451l272 -76l-186 -401l-218 63z" />
    <glyph glyph-name="glyph604" horiz-adv-x="975" 
d="M658 1376q72 0 121 -53q40 -44 40 -103q0 -69 -52 -115q-46 -41 -109 -41q-67 0 -114 46t-47 112t52 113q46 41 109 41zM303 1376q72 0 121 -53q40 -44 40 -103q0 -69 -52 -115q-46 -41 -109 -41q-68 0 -114.5 46t-46.5 113q0 62 47.5 107.5t113.5 45.5z" />
    <glyph glyph-name="glyph605" horiz-adv-x="975" 
d="M770 972l-272 77l186 401l218 -64z" />
    <glyph glyph-name="G.aalt" horiz-adv-x="1501" 
d="M1350 1146l-216 -201q-72 72 -127 108q-100 64 -220 64q-195 0 -317 -139q-111 -125 -111 -296q0 -197 142 -325q122 -109 282 -109q170 0 308 133v120h-337v277h636v-502q-3 -3 -5 -6q-87 -116 -195 -185q-187 -119 -407 -119q-198 0 -368 98t-267 267q-94 164 -94 351
q0 190 97 358q97 165 261 260q172 99 378 99q158 0 287 -58t273 -195z" />
    <glyph glyph-name="M.aalt" horiz-adv-x="1704" 
d="M104 0l140 1365h266l342 -693l342 693h265l140 -1365h-305l-78 778l-251 -507h-226l-251 506l-78 -777h-306z" />
    <glyph glyph-name="y.aalt" horiz-adv-x="973" 
d="M313 49l-344 859h308l196 -503l224 503h307l-538 -1204q-97 -216 -257 -216q-61 0 -171 36l44 275l15 -6q48 -22 71 -22q22 0 42 45z" />
    <glyph glyph-name="parenleft.aalt" horiz-adv-x="695" 
d="M335 1663l262 -124q-53 -136 -81 -235q-81 -280 -81 -621q0 -368 97 -676q24 -73 65 -180l-262 -124q-55 121 -61 137q-60 148 -98 383.5t-38 459.5q0 348 82 674q22 88 36.5 126.5t78.5 179.5z" />
    <glyph glyph-name="parenright.aalt" horiz-adv-x="695" 
d="M358 1662q53 -115 62 -138q46 -111 80 -283q56 -288 56 -559q0 -350 -82 -674q-23 -90 -37.5 -128t-78.5 -178l-261 124q53 136 81 235q81 281 81 621q0 368 -97 676q-24 73 -65 180z" />
    <glyph glyph-name="bracketleft.aalt" horiz-adv-x="658" 
d="M601 1348h-173v-1331h173v-275h-470v1881h470v-275z" />
    <glyph glyph-name="bracketright.aalt" horiz-adv-x="658" 
d="M56 1348v275h470v-1881h-470v275h173v1331h-173z" />
    <glyph glyph-name="glyph613" horiz-adv-x="1525" 
d="M1111 554q137 0 228 -100q75 -82 75 -193q0 -128 -97 -215q-87 -78 -211 -78q-143 0 -234 100q-75 82 -75 195q0 126 97 213q87 78 217 78zM1104 379q-48 0 -77.5 -32.5t-29.5 -85.5t30 -85.5t78 -32.5q49 0 79 32.5t30 86.5q0 53 -30 85t-80 32zM543 1083q-39 39 -64 53
t-57 14q-51 0 -81 -32t-30 -86t30 -86t81 -32q61 0 124 71l125 -132q-113 -114 -249 -114q-146 0 -236 100q-75 82 -75 193q0 129 96 215q88 78 214 78q131 0 247 -111zM1058 1399l163 -94l-775 -1340l-164 94z" />
    <glyph glyph-name="braceleft.aalt" horiz-adv-x="656" 
d="M625 17v-273q-104 -3 -129 -3q-153 0 -234 79q-83 80 -83 257v389q0 59 -16 75t-91 33v229l49 12q34 9 46 28t12 65v379q0 177 83 257q81 79 231 79q21 0 132 -3v-273h-66h-39q-29 0 -36.5 -6.5t-7.5 -34.5v-412q0 -71 -14 -118t-49 -94q63 -81 63 -216v-409q0 -26 7 -33
t34 -7h53h55z" />
    <glyph glyph-name="braceright.aalt" horiz-adv-x="656" 
d="M31 18q37 1 61 1q7 0 36 -1h15q23 0 30 7.5t7 32.5v409q3 141 63 216q-27 36 -38 63q-25 59 -25 149v412q0 28 -7.5 34.5t-36.5 6.5h-105v273q53 1 79 2q32 1 53 1q150 0 231 -79q83 -80 83 -257v-380q0 -45 12 -64t46 -28l49 -13v-228q-75 -17 -91 -33t-16 -75v-389
q0 -178 -83 -257q-81 -79 -234 -79q-23 0 -129 3v273z" />
    <glyph glyph-name="copyright.aalt" horiz-adv-x="920" 
d="M703 1286l-96 -88q-34 39 -57 53t-54 14q-51 0 -86 -36.5t-35 -89.5q0 -52 35.5 -88.5t86.5 -36.5q50 0 98 52q12 13 15 17l95 -89l-4 -4l-4 -4q-94 -97 -199 -97q-115 0 -191 84q-64 71 -64 167q0 110 83 185q73 65 172 65q108 0 205 -104zM488 1567q179 0 304 -126
q126 -126 126 -310q0 -107 -58 -208q-59 -101 -157 -157q-98 -57 -213 -57q-192 0 -319 141q-111 124 -111 288q0 188 143 319q120 110 285 110zM486 1444q-133 0 -223 -101q-80 -88 -80 -208q0 -123 90 -213q88 -90 215 -90q137 0 228 101q79 88 79 205q0 135 -101 227
q-86 79 -208 79z" />
    <glyph glyph-name="registered.aalt" horiz-adv-x="920" 
d="M489 1567q178 0 304 -126q125 -126 125 -309q0 -108 -58 -209q-59 -101 -157 -157q-98 -57 -213 -57q-193 0 -320 142q-110 123 -110 287q0 188 143 319q119 110 286 110zM703 919q92 91 92 220q0 135 -101 227q-87 78 -206 78q-136 0 -226 -100q-79 -90 -79 -205
q0 -127 90 -217q88 -90 215 -90q109 0 196 70h-119l-87 157h-3h-4l-13 -3v-154h-132v476h134q108 0 156 -55q41 -47 41 -107q0 -66 -55 -116zM457 1177h8q36 0 50.5 8.5t14.5 30.5t-14.5 31.5t-50.5 9.5h-8v-80z" />
    <glyph glyph-name="circumflex.aalt" horiz-adv-x="975" 
d="M310 1421l-221 102l312 318h173l311 -318l-221 -102l-177 159z" />
    <glyph glyph-name="six.pnum" horiz-adv-x="1143" 
d="M641 1415l237 -172l-237 -326q160 -24 262 -107q167 -135 167 -352q0 -130 -66 -244q-66 -115 -180 -181q-116 -67 -254 -67q-228 0 -378 165q-126 139 -126 326q0 168 110 320zM569 650q-94 0 -153 -65q-50 -55 -50 -135q0 -97 67 -158q55 -50 135 -50q90 0 149 67
q53 60 53 147q0 88 -62 143q-57 51 -139 51z" />
    <glyph glyph-name="seven.pnum" horiz-adv-x="1143" 
d="M161 86l549 999h-580v280h952v-208l-657 -1208z" />
    <glyph glyph-name="eight.pnum" horiz-adv-x="1143" 
d="M242 729q-55 56 -78 99q-40 75 -40 162q0 174 137 297q125 112 310 112q212 0 342 -143q105 -116 105 -266q0 -76 -27 -136t-91 -125q159 -135 159 -318q0 -194 -144 -322q-139 -123 -344 -123q-145 0 -269 70q-104 59 -163 160q-56 98 -56 215q0 183 159 318zM570 587
q-80 0 -129 -40q-59 -49 -59 -135q0 -79 55 -128q50 -46 134 -46q94 0 146 57q43 49 43 119q0 79 -54 128q-49 45 -136 45zM569 1136q-70 0 -113.5 -42.5t-43.5 -110.5q0 -64 44.5 -105t115.5 -41q70 0 114 41.5t44 106.5q0 69 -47 112q-44 39 -114 39z" />
    </font>
</defs>
</svg>
